G04 #@! TF.GenerationSoftware,KiCad,Pcbnew,(5.0.0)*
G04 #@! TF.CreationDate,2018-09-23T08:44:06-04:00*
G04 #@! TF.ProjectId,Multiplexer,4D756C7469706C657865722E6B696361,rev?*
G04 #@! TF.SameCoordinates,Original*
G04 #@! TF.FileFunction,Soldermask,Top*
G04 #@! TF.FilePolarity,Negative*
%FSLAX46Y46*%
G04 Gerber Fmt 4.6, Leading zero omitted, Abs format (unit mm)*
G04 Created by KiCad (PCBNEW (5.0.0)) date 09/23/18 08:44:06*
%MOMM*%
%LPD*%
G01*
G04 APERTURE LIST*
%ADD10C,1.900000*%
%ADD11O,1.600000X2.400000*%
G04 APERTURE END LIST*
D10*
G04 #@! TO.C,J1*
X38735000Y-38735000D03*
X38735000Y-41275000D03*
X38735000Y-43815000D03*
X38735000Y-46355000D03*
X38735000Y-48895000D03*
X38735000Y-51435000D03*
X38735000Y-53975000D03*
X38735000Y-56515000D03*
X38735000Y-59055000D03*
X38735000Y-61595000D03*
X38735000Y-64135000D03*
X38735000Y-66675000D03*
X38735000Y-69215000D03*
X38735000Y-71755000D03*
X38735000Y-74295000D03*
X38735000Y-76835000D03*
X38735000Y-79375000D03*
X38735000Y-81915000D03*
X38735000Y-84455000D03*
X38735000Y-86995000D03*
X38735000Y-89535000D03*
X38735000Y-92075000D03*
X38735000Y-94615000D03*
X38735000Y-97155000D03*
X38735000Y-99695000D03*
X38735000Y-102235000D03*
X38735000Y-104775000D03*
X38735000Y-107315000D03*
X38735000Y-109855000D03*
X38735000Y-112395000D03*
X38735000Y-114935000D03*
X38735000Y-117475000D03*
X38735000Y-120015000D03*
X38735000Y-122555000D03*
X38735000Y-125095000D03*
X38735000Y-127635000D03*
X38735000Y-130175000D03*
X38735000Y-132715000D03*
X38735000Y-135255000D03*
X38735000Y-137795000D03*
G04 #@! TD*
G04 #@! TO.C,J2*
X38735000Y-140970000D03*
X38735000Y-143510000D03*
X38735000Y-146050000D03*
X38735000Y-148590000D03*
X38735000Y-151130000D03*
X38735000Y-153670000D03*
X38735000Y-156210000D03*
X38735000Y-158750000D03*
G04 #@! TD*
G04 #@! TO.C,J3*
X103505000Y-33020000D03*
X106045000Y-33020000D03*
X108585000Y-33020000D03*
X111125000Y-33020000D03*
X113665000Y-33020000D03*
X116205000Y-33020000D03*
X118745000Y-33020000D03*
X121285000Y-33020000D03*
G04 #@! TD*
G04 #@! TO.C,J4*
X100330000Y-33020000D03*
X97790000Y-33020000D03*
X95250000Y-33020000D03*
X92710000Y-33020000D03*
X90170000Y-33020000D03*
X87630000Y-33020000D03*
X85090000Y-33020000D03*
X82550000Y-33020000D03*
G04 #@! TD*
G04 #@! TO.C,J5*
X170180000Y-33020000D03*
X172720000Y-33020000D03*
X175260000Y-33020000D03*
X177800000Y-33020000D03*
X180340000Y-33020000D03*
X182880000Y-33020000D03*
X185420000Y-33020000D03*
X187960000Y-33020000D03*
G04 #@! TD*
G04 #@! TO.C,J6*
X137160000Y-33020000D03*
X134620000Y-33020000D03*
X132080000Y-33020000D03*
X129540000Y-33020000D03*
G04 #@! TD*
D11*
G04 #@! TO.C,U1*
X172720000Y-50165000D03*
X172720000Y-57785000D03*
X175260000Y-50165000D03*
X175260000Y-57785000D03*
X177800000Y-50165000D03*
X177800000Y-57785000D03*
X180340000Y-50165000D03*
X180340000Y-57785000D03*
X182880000Y-50165000D03*
X182880000Y-57785000D03*
X185420000Y-50165000D03*
X185420000Y-57785000D03*
X187960000Y-50165000D03*
X187960000Y-57785000D03*
G04 #@! TD*
G04 #@! TO.C,U2*
X151130000Y-160655000D03*
X151130000Y-153035000D03*
X148590000Y-160655000D03*
X148590000Y-153035000D03*
X146050000Y-160655000D03*
X146050000Y-153035000D03*
X143510000Y-160655000D03*
X143510000Y-153035000D03*
X140970000Y-160655000D03*
X140970000Y-153035000D03*
X138430000Y-160655000D03*
X138430000Y-153035000D03*
X135890000Y-160655000D03*
X135890000Y-153035000D03*
G04 #@! TD*
G04 #@! TO.C,U3*
X117475000Y-107315000D03*
X117475000Y-114935000D03*
X120015000Y-107315000D03*
X120015000Y-114935000D03*
X122555000Y-107315000D03*
X122555000Y-114935000D03*
X125095000Y-107315000D03*
X125095000Y-114935000D03*
X127635000Y-107315000D03*
X127635000Y-114935000D03*
X130175000Y-107315000D03*
X130175000Y-114935000D03*
X132715000Y-107315000D03*
X132715000Y-114935000D03*
G04 #@! TD*
G04 #@! TO.C,U4*
X169545000Y-149225000D03*
X169545000Y-141605000D03*
X167005000Y-149225000D03*
X167005000Y-141605000D03*
X164465000Y-149225000D03*
X164465000Y-141605000D03*
X161925000Y-149225000D03*
X161925000Y-141605000D03*
X159385000Y-149225000D03*
X159385000Y-141605000D03*
X156845000Y-149225000D03*
X156845000Y-141605000D03*
X154305000Y-149225000D03*
X154305000Y-141605000D03*
G04 #@! TD*
G04 #@! TO.C,U5*
X99060000Y-153035000D03*
X99060000Y-160655000D03*
X101600000Y-153035000D03*
X101600000Y-160655000D03*
X104140000Y-153035000D03*
X104140000Y-160655000D03*
X106680000Y-153035000D03*
X106680000Y-160655000D03*
X109220000Y-153035000D03*
X109220000Y-160655000D03*
X111760000Y-153035000D03*
X111760000Y-160655000D03*
X114300000Y-153035000D03*
X114300000Y-160655000D03*
G04 #@! TD*
G04 #@! TO.C,U6*
X169545000Y-103505000D03*
X169545000Y-95885000D03*
X167005000Y-103505000D03*
X167005000Y-95885000D03*
X164465000Y-103505000D03*
X164465000Y-95885000D03*
X161925000Y-103505000D03*
X161925000Y-95885000D03*
X159385000Y-103505000D03*
X159385000Y-95885000D03*
X156845000Y-103505000D03*
X156845000Y-95885000D03*
X154305000Y-103505000D03*
X154305000Y-95885000D03*
G04 #@! TD*
G04 #@! TO.C,U7*
X172720000Y-73025000D03*
X172720000Y-80645000D03*
X175260000Y-73025000D03*
X175260000Y-80645000D03*
X177800000Y-73025000D03*
X177800000Y-80645000D03*
X180340000Y-73025000D03*
X180340000Y-80645000D03*
X182880000Y-73025000D03*
X182880000Y-80645000D03*
X185420000Y-73025000D03*
X185420000Y-80645000D03*
X187960000Y-73025000D03*
X187960000Y-80645000D03*
G04 #@! TD*
G04 #@! TO.C,U8*
X169545000Y-69215000D03*
X169545000Y-61595000D03*
X167005000Y-69215000D03*
X167005000Y-61595000D03*
X164465000Y-69215000D03*
X164465000Y-61595000D03*
X161925000Y-69215000D03*
X161925000Y-61595000D03*
X159385000Y-69215000D03*
X159385000Y-61595000D03*
X156845000Y-69215000D03*
X156845000Y-61595000D03*
X154305000Y-69215000D03*
X154305000Y-61595000D03*
G04 #@! TD*
G04 #@! TO.C,U9*
X80645000Y-130175000D03*
X80645000Y-137795000D03*
X83185000Y-130175000D03*
X83185000Y-137795000D03*
X85725000Y-130175000D03*
X85725000Y-137795000D03*
X88265000Y-130175000D03*
X88265000Y-137795000D03*
X90805000Y-130175000D03*
X90805000Y-137795000D03*
X93345000Y-130175000D03*
X93345000Y-137795000D03*
X95885000Y-130175000D03*
X95885000Y-137795000D03*
G04 #@! TD*
G04 #@! TO.C,U10*
X77470000Y-80645000D03*
X77470000Y-73025000D03*
X74930000Y-80645000D03*
X74930000Y-73025000D03*
X72390000Y-80645000D03*
X72390000Y-73025000D03*
X69850000Y-80645000D03*
X69850000Y-73025000D03*
X67310000Y-80645000D03*
X67310000Y-73025000D03*
X64770000Y-80645000D03*
X64770000Y-73025000D03*
X62230000Y-80645000D03*
X62230000Y-73025000D03*
G04 #@! TD*
G04 #@! TO.C,U11*
X62230000Y-84455000D03*
X62230000Y-92075000D03*
X64770000Y-84455000D03*
X64770000Y-92075000D03*
X67310000Y-84455000D03*
X67310000Y-92075000D03*
X69850000Y-84455000D03*
X69850000Y-92075000D03*
X72390000Y-84455000D03*
X72390000Y-92075000D03*
X74930000Y-84455000D03*
X74930000Y-92075000D03*
X77470000Y-84455000D03*
X77470000Y-92075000D03*
G04 #@! TD*
G04 #@! TO.C,U12*
X95885000Y-46355000D03*
X95885000Y-38735000D03*
X93345000Y-46355000D03*
X93345000Y-38735000D03*
X90805000Y-46355000D03*
X90805000Y-38735000D03*
X88265000Y-46355000D03*
X88265000Y-38735000D03*
X85725000Y-46355000D03*
X85725000Y-38735000D03*
X83185000Y-46355000D03*
X83185000Y-38735000D03*
X80645000Y-46355000D03*
X80645000Y-38735000D03*
G04 #@! TD*
G04 #@! TO.C,U13*
X95885000Y-57785000D03*
X95885000Y-50165000D03*
X93345000Y-57785000D03*
X93345000Y-50165000D03*
X90805000Y-57785000D03*
X90805000Y-50165000D03*
X88265000Y-57785000D03*
X88265000Y-50165000D03*
X85725000Y-57785000D03*
X85725000Y-50165000D03*
X83185000Y-57785000D03*
X83185000Y-50165000D03*
X80645000Y-57785000D03*
X80645000Y-50165000D03*
G04 #@! TD*
G04 #@! TO.C,U14*
X151130000Y-137795000D03*
X151130000Y-130175000D03*
X148590000Y-137795000D03*
X148590000Y-130175000D03*
X146050000Y-137795000D03*
X146050000Y-130175000D03*
X143510000Y-137795000D03*
X143510000Y-130175000D03*
X140970000Y-137795000D03*
X140970000Y-130175000D03*
X138430000Y-137795000D03*
X138430000Y-130175000D03*
X135890000Y-137795000D03*
X135890000Y-130175000D03*
G04 #@! TD*
G04 #@! TO.C,U15*
X99060000Y-107315000D03*
X99060000Y-114935000D03*
X101600000Y-107315000D03*
X101600000Y-114935000D03*
X104140000Y-107315000D03*
X104140000Y-114935000D03*
X106680000Y-107315000D03*
X106680000Y-114935000D03*
X109220000Y-107315000D03*
X109220000Y-114935000D03*
X111760000Y-107315000D03*
X111760000Y-114935000D03*
X114300000Y-107315000D03*
X114300000Y-114935000D03*
G04 #@! TD*
G04 #@! TO.C,U16*
X132715000Y-160655000D03*
X132715000Y-153035000D03*
X130175000Y-160655000D03*
X130175000Y-153035000D03*
X127635000Y-160655000D03*
X127635000Y-153035000D03*
X125095000Y-160655000D03*
X125095000Y-153035000D03*
X122555000Y-160655000D03*
X122555000Y-153035000D03*
X120015000Y-160655000D03*
X120015000Y-153035000D03*
X117475000Y-160655000D03*
X117475000Y-153035000D03*
G04 #@! TD*
G04 #@! TO.C,U17*
X135890000Y-73025000D03*
X135890000Y-80645000D03*
X138430000Y-73025000D03*
X138430000Y-80645000D03*
X140970000Y-73025000D03*
X140970000Y-80645000D03*
X143510000Y-73025000D03*
X143510000Y-80645000D03*
X146050000Y-73025000D03*
X146050000Y-80645000D03*
X148590000Y-73025000D03*
X148590000Y-80645000D03*
X151130000Y-73025000D03*
X151130000Y-80645000D03*
G04 #@! TD*
G04 #@! TO.C,U18*
X114300000Y-126365000D03*
X114300000Y-118745000D03*
X111760000Y-126365000D03*
X111760000Y-118745000D03*
X109220000Y-126365000D03*
X109220000Y-118745000D03*
X106680000Y-126365000D03*
X106680000Y-118745000D03*
X104140000Y-126365000D03*
X104140000Y-118745000D03*
X101600000Y-126365000D03*
X101600000Y-118745000D03*
X99060000Y-126365000D03*
X99060000Y-118745000D03*
G04 #@! TD*
G04 #@! TO.C,U19*
X154485000Y-107315000D03*
X154485000Y-114935000D03*
X157025000Y-107315000D03*
X157025000Y-114935000D03*
X159565000Y-107315000D03*
X159565000Y-114935000D03*
X162105000Y-107315000D03*
X162105000Y-114935000D03*
X164645000Y-107315000D03*
X164645000Y-114935000D03*
X167185000Y-107315000D03*
X167185000Y-114935000D03*
X169725000Y-107315000D03*
X169725000Y-114935000D03*
G04 #@! TD*
G04 #@! TO.C,U20*
X135890000Y-50080000D03*
X135890000Y-57700000D03*
X138430000Y-50080000D03*
X138430000Y-57700000D03*
X140970000Y-50080000D03*
X140970000Y-57700000D03*
X143510000Y-50080000D03*
X143510000Y-57700000D03*
X146050000Y-50080000D03*
X146050000Y-57700000D03*
X148590000Y-50080000D03*
X148590000Y-57700000D03*
X151130000Y-50080000D03*
X151130000Y-57700000D03*
G04 #@! TD*
G04 #@! TO.C,U21*
X150965000Y-46355000D03*
X150965000Y-38735000D03*
X148425000Y-46355000D03*
X148425000Y-38735000D03*
X145885000Y-46355000D03*
X145885000Y-38735000D03*
X143345000Y-46355000D03*
X143345000Y-38735000D03*
X140805000Y-46355000D03*
X140805000Y-38735000D03*
X138265000Y-46355000D03*
X138265000Y-38735000D03*
X135725000Y-46355000D03*
X135725000Y-38735000D03*
G04 #@! TD*
G04 #@! TO.C,U22*
X117340000Y-38735000D03*
X117340000Y-46355000D03*
X119880000Y-38735000D03*
X119880000Y-46355000D03*
X122420000Y-38735000D03*
X122420000Y-46355000D03*
X124960000Y-38735000D03*
X124960000Y-46355000D03*
X127500000Y-38735000D03*
X127500000Y-46355000D03*
X130040000Y-38735000D03*
X130040000Y-46355000D03*
X132580000Y-38735000D03*
X132580000Y-46355000D03*
G04 #@! TD*
G04 #@! TO.C,U23*
X117475000Y-50080000D03*
X117475000Y-57700000D03*
X120015000Y-50080000D03*
X120015000Y-57700000D03*
X122555000Y-50080000D03*
X122555000Y-57700000D03*
X125095000Y-50080000D03*
X125095000Y-57700000D03*
X127635000Y-50080000D03*
X127635000Y-57700000D03*
X130175000Y-50080000D03*
X130175000Y-57700000D03*
X132715000Y-50080000D03*
X132715000Y-57700000D03*
G04 #@! TD*
G04 #@! TO.C,U24*
X114300000Y-149225000D03*
X114300000Y-141605000D03*
X111760000Y-149225000D03*
X111760000Y-141605000D03*
X109220000Y-149225000D03*
X109220000Y-141605000D03*
X106680000Y-149225000D03*
X106680000Y-141605000D03*
X104140000Y-149225000D03*
X104140000Y-141605000D03*
X101600000Y-149225000D03*
X101600000Y-141605000D03*
X99060000Y-149225000D03*
X99060000Y-141605000D03*
G04 #@! TD*
G04 #@! TO.C,U25*
X172720000Y-118745000D03*
X172720000Y-126365000D03*
X175260000Y-118745000D03*
X175260000Y-126365000D03*
X177800000Y-118745000D03*
X177800000Y-126365000D03*
X180340000Y-118745000D03*
X180340000Y-126365000D03*
X182880000Y-118745000D03*
X182880000Y-126365000D03*
X185420000Y-118745000D03*
X185420000Y-126365000D03*
X187960000Y-118745000D03*
X187960000Y-126365000D03*
G04 #@! TD*
G04 #@! TO.C,U26*
X169545000Y-160655000D03*
X169545000Y-153035000D03*
X167005000Y-160655000D03*
X167005000Y-153035000D03*
X164465000Y-160655000D03*
X164465000Y-153035000D03*
X161925000Y-160655000D03*
X161925000Y-153035000D03*
X159385000Y-160655000D03*
X159385000Y-153035000D03*
X156845000Y-160655000D03*
X156845000Y-153035000D03*
X154305000Y-160655000D03*
X154305000Y-153035000D03*
G04 #@! TD*
G04 #@! TO.C,U27*
X172720000Y-95885000D03*
X172720000Y-103505000D03*
X175260000Y-95885000D03*
X175260000Y-103505000D03*
X177800000Y-95885000D03*
X177800000Y-103505000D03*
X180340000Y-95885000D03*
X180340000Y-103505000D03*
X182880000Y-95885000D03*
X182880000Y-103505000D03*
X185420000Y-95885000D03*
X185420000Y-103505000D03*
X187960000Y-95885000D03*
X187960000Y-103505000D03*
G04 #@! TD*
G04 #@! TO.C,U28*
X59055000Y-160655000D03*
X59055000Y-153035000D03*
X56515000Y-160655000D03*
X56515000Y-153035000D03*
X53975000Y-160655000D03*
X53975000Y-153035000D03*
X51435000Y-160655000D03*
X51435000Y-153035000D03*
X48895000Y-160655000D03*
X48895000Y-153035000D03*
X46355000Y-160655000D03*
X46355000Y-153035000D03*
X43815000Y-160655000D03*
X43815000Y-153035000D03*
G04 #@! TD*
G04 #@! TO.C,U29*
X172900000Y-130175000D03*
X172900000Y-137795000D03*
X175440000Y-130175000D03*
X175440000Y-137795000D03*
X177980000Y-130175000D03*
X177980000Y-137795000D03*
X180520000Y-130175000D03*
X180520000Y-137795000D03*
X183060000Y-130175000D03*
X183060000Y-137795000D03*
X185600000Y-130175000D03*
X185600000Y-137795000D03*
X188140000Y-130175000D03*
X188140000Y-137795000D03*
G04 #@! TD*
G04 #@! TO.C,U30*
X77470000Y-149225000D03*
X77470000Y-141605000D03*
X74930000Y-149225000D03*
X74930000Y-141605000D03*
X72390000Y-149225000D03*
X72390000Y-141605000D03*
X69850000Y-149225000D03*
X69850000Y-141605000D03*
X67310000Y-149225000D03*
X67310000Y-141605000D03*
X64770000Y-149225000D03*
X64770000Y-141605000D03*
X62230000Y-149225000D03*
X62230000Y-141605000D03*
G04 #@! TD*
G04 #@! TO.C,U31*
X117475000Y-141605000D03*
X117475000Y-149225000D03*
X120015000Y-141605000D03*
X120015000Y-149225000D03*
X122555000Y-141605000D03*
X122555000Y-149225000D03*
X125095000Y-141605000D03*
X125095000Y-149225000D03*
X127635000Y-141605000D03*
X127635000Y-149225000D03*
X130175000Y-141605000D03*
X130175000Y-149225000D03*
X132715000Y-141605000D03*
X132715000Y-149225000D03*
G04 #@! TD*
G04 #@! TO.C,U32*
X187960000Y-69215000D03*
X187960000Y-61595000D03*
X185420000Y-69215000D03*
X185420000Y-61595000D03*
X182880000Y-69215000D03*
X182880000Y-61595000D03*
X180340000Y-69215000D03*
X180340000Y-61595000D03*
X177800000Y-69215000D03*
X177800000Y-61595000D03*
X175260000Y-69215000D03*
X175260000Y-61595000D03*
X172720000Y-69215000D03*
X172720000Y-61595000D03*
G04 #@! TD*
G04 #@! TO.C,U33*
X95885000Y-149225000D03*
X95885000Y-141605000D03*
X93345000Y-149225000D03*
X93345000Y-141605000D03*
X90805000Y-149225000D03*
X90805000Y-141605000D03*
X88265000Y-149225000D03*
X88265000Y-141605000D03*
X85725000Y-149225000D03*
X85725000Y-141605000D03*
X83185000Y-149225000D03*
X83185000Y-141605000D03*
X80645000Y-149225000D03*
X80645000Y-141605000D03*
G04 #@! TD*
G04 #@! TO.C,U34*
X59040000Y-46355000D03*
X59040000Y-38735000D03*
X56500000Y-46355000D03*
X56500000Y-38735000D03*
X53960000Y-46355000D03*
X53960000Y-38735000D03*
X51420000Y-46355000D03*
X51420000Y-38735000D03*
X48880000Y-46355000D03*
X48880000Y-38735000D03*
X46340000Y-46355000D03*
X46340000Y-38735000D03*
X43800000Y-46355000D03*
X43800000Y-38735000D03*
G04 #@! TD*
G04 #@! TO.C,U35*
X43800000Y-50165000D03*
X43800000Y-57785000D03*
X46340000Y-50165000D03*
X46340000Y-57785000D03*
X48880000Y-50165000D03*
X48880000Y-57785000D03*
X51420000Y-50165000D03*
X51420000Y-57785000D03*
X53960000Y-50165000D03*
X53960000Y-57785000D03*
X56500000Y-50165000D03*
X56500000Y-57785000D03*
X59040000Y-50165000D03*
X59040000Y-57785000D03*
G04 #@! TD*
G04 #@! TO.C,U36*
X62185000Y-38735000D03*
X62185000Y-46355000D03*
X64725000Y-38735000D03*
X64725000Y-46355000D03*
X67265000Y-38735000D03*
X67265000Y-46355000D03*
X69805000Y-38735000D03*
X69805000Y-46355000D03*
X72345000Y-38735000D03*
X72345000Y-46355000D03*
X74885000Y-38735000D03*
X74885000Y-46355000D03*
X77425000Y-38735000D03*
X77425000Y-46355000D03*
G04 #@! TD*
G04 #@! TO.C,U37*
X77470000Y-57785000D03*
X77470000Y-50165000D03*
X74930000Y-57785000D03*
X74930000Y-50165000D03*
X72390000Y-57785000D03*
X72390000Y-50165000D03*
X69850000Y-57785000D03*
X69850000Y-50165000D03*
X67310000Y-57785000D03*
X67310000Y-50165000D03*
X64770000Y-57785000D03*
X64770000Y-50165000D03*
X62230000Y-57785000D03*
X62230000Y-50165000D03*
G04 #@! TD*
G04 #@! TO.C,U38*
X59055000Y-149225000D03*
X59055000Y-141605000D03*
X56515000Y-149225000D03*
X56515000Y-141605000D03*
X53975000Y-149225000D03*
X53975000Y-141605000D03*
X51435000Y-149225000D03*
X51435000Y-141605000D03*
X48895000Y-149225000D03*
X48895000Y-141605000D03*
X46355000Y-149225000D03*
X46355000Y-141605000D03*
X43815000Y-149225000D03*
X43815000Y-141605000D03*
G04 #@! TD*
G04 #@! TO.C,U39*
X62230000Y-153035000D03*
X62230000Y-160655000D03*
X64770000Y-153035000D03*
X64770000Y-160655000D03*
X67310000Y-153035000D03*
X67310000Y-160655000D03*
X69850000Y-153035000D03*
X69850000Y-160655000D03*
X72390000Y-153035000D03*
X72390000Y-160655000D03*
X74930000Y-153035000D03*
X74930000Y-160655000D03*
X77470000Y-153035000D03*
X77470000Y-160655000D03*
G04 #@! TD*
G04 #@! TO.C,U40*
X169545000Y-80645000D03*
X169545000Y-73025000D03*
X167005000Y-80645000D03*
X167005000Y-73025000D03*
X164465000Y-80645000D03*
X164465000Y-73025000D03*
X161925000Y-80645000D03*
X161925000Y-73025000D03*
X159385000Y-80645000D03*
X159385000Y-73025000D03*
X156845000Y-80645000D03*
X156845000Y-73025000D03*
X154305000Y-80645000D03*
X154305000Y-73025000D03*
G04 #@! TD*
G04 #@! TO.C,U41*
X172720000Y-84455000D03*
X172720000Y-92075000D03*
X175260000Y-84455000D03*
X175260000Y-92075000D03*
X177800000Y-84455000D03*
X177800000Y-92075000D03*
X180340000Y-84455000D03*
X180340000Y-92075000D03*
X182880000Y-84455000D03*
X182880000Y-92075000D03*
X185420000Y-84455000D03*
X185420000Y-92075000D03*
X187960000Y-84455000D03*
X187960000Y-92075000D03*
G04 #@! TD*
G04 #@! TO.C,U42*
X169780000Y-126365000D03*
X169780000Y-118745000D03*
X167240000Y-126365000D03*
X167240000Y-118745000D03*
X164700000Y-126365000D03*
X164700000Y-118745000D03*
X162160000Y-126365000D03*
X162160000Y-118745000D03*
X159620000Y-126365000D03*
X159620000Y-118745000D03*
X157080000Y-126365000D03*
X157080000Y-118745000D03*
X154540000Y-126365000D03*
X154540000Y-118745000D03*
G04 #@! TD*
G04 #@! TO.C,U43*
X154305000Y-84455000D03*
X154305000Y-92075000D03*
X156845000Y-84455000D03*
X156845000Y-92075000D03*
X159385000Y-84455000D03*
X159385000Y-92075000D03*
X161925000Y-84455000D03*
X161925000Y-92075000D03*
X164465000Y-84455000D03*
X164465000Y-92075000D03*
X167005000Y-84455000D03*
X167005000Y-92075000D03*
X169545000Y-84455000D03*
X169545000Y-92075000D03*
G04 #@! TD*
G04 #@! TO.C,U44*
X99060000Y-130175000D03*
X99060000Y-137795000D03*
X101600000Y-130175000D03*
X101600000Y-137795000D03*
X104140000Y-130175000D03*
X104140000Y-137795000D03*
X106680000Y-130175000D03*
X106680000Y-137795000D03*
X109220000Y-130175000D03*
X109220000Y-137795000D03*
X111760000Y-130175000D03*
X111760000Y-137795000D03*
X114300000Y-130175000D03*
X114300000Y-137795000D03*
G04 #@! TD*
G04 #@! TO.C,U45*
X154540000Y-130175000D03*
X154540000Y-137795000D03*
X157080000Y-130175000D03*
X157080000Y-137795000D03*
X159620000Y-130175000D03*
X159620000Y-137795000D03*
X162160000Y-130175000D03*
X162160000Y-137795000D03*
X164700000Y-130175000D03*
X164700000Y-137795000D03*
X167240000Y-130175000D03*
X167240000Y-137795000D03*
X169780000Y-130175000D03*
X169780000Y-137795000D03*
G04 #@! TD*
G04 #@! TO.C,U46*
X172720000Y-107315000D03*
X172720000Y-114935000D03*
X175260000Y-107315000D03*
X175260000Y-114935000D03*
X177800000Y-107315000D03*
X177800000Y-114935000D03*
X180340000Y-107315000D03*
X180340000Y-114935000D03*
X182880000Y-107315000D03*
X182880000Y-114935000D03*
X185420000Y-107315000D03*
X185420000Y-114935000D03*
X187960000Y-107315000D03*
X187960000Y-114935000D03*
G04 #@! TD*
G04 #@! TO.C,U47*
X169545000Y-46355000D03*
X169545000Y-38735000D03*
X167005000Y-46355000D03*
X167005000Y-38735000D03*
X164465000Y-46355000D03*
X164465000Y-38735000D03*
X161925000Y-46355000D03*
X161925000Y-38735000D03*
X159385000Y-46355000D03*
X159385000Y-38735000D03*
X156845000Y-46355000D03*
X156845000Y-38735000D03*
X154305000Y-46355000D03*
X154305000Y-38735000D03*
G04 #@! TD*
G04 #@! TO.C,U48*
X62230000Y-107315000D03*
X62230000Y-114935000D03*
X64770000Y-107315000D03*
X64770000Y-114935000D03*
X67310000Y-107315000D03*
X67310000Y-114935000D03*
X69850000Y-107315000D03*
X69850000Y-114935000D03*
X72390000Y-107315000D03*
X72390000Y-114935000D03*
X74930000Y-107315000D03*
X74930000Y-114935000D03*
X77470000Y-107315000D03*
X77470000Y-114935000D03*
G04 #@! TD*
G04 #@! TO.C,U49*
X95885000Y-160655000D03*
X95885000Y-153035000D03*
X93345000Y-160655000D03*
X93345000Y-153035000D03*
X90805000Y-160655000D03*
X90805000Y-153035000D03*
X88265000Y-160655000D03*
X88265000Y-153035000D03*
X85725000Y-160655000D03*
X85725000Y-153035000D03*
X83185000Y-160655000D03*
X83185000Y-153035000D03*
X80645000Y-160655000D03*
X80645000Y-153035000D03*
G04 #@! TD*
G04 #@! TO.C,U50*
X135890000Y-107315000D03*
X135890000Y-114935000D03*
X138430000Y-107315000D03*
X138430000Y-114935000D03*
X140970000Y-107315000D03*
X140970000Y-114935000D03*
X143510000Y-107315000D03*
X143510000Y-114935000D03*
X146050000Y-107315000D03*
X146050000Y-114935000D03*
X148590000Y-107315000D03*
X148590000Y-114935000D03*
X151130000Y-107315000D03*
X151130000Y-114935000D03*
G04 #@! TD*
G04 #@! TO.C,U51*
X77530000Y-103275000D03*
X77530000Y-95655000D03*
X74990000Y-103275000D03*
X74990000Y-95655000D03*
X72450000Y-103275000D03*
X72450000Y-95655000D03*
X69910000Y-103275000D03*
X69910000Y-95655000D03*
X67370000Y-103275000D03*
X67370000Y-95655000D03*
X64830000Y-103275000D03*
X64830000Y-95655000D03*
X62290000Y-103275000D03*
X62290000Y-95655000D03*
G04 #@! TD*
G04 #@! TO.C,U52*
X43800000Y-84455000D03*
X43800000Y-92075000D03*
X46340000Y-84455000D03*
X46340000Y-92075000D03*
X48880000Y-84455000D03*
X48880000Y-92075000D03*
X51420000Y-84455000D03*
X51420000Y-92075000D03*
X53960000Y-84455000D03*
X53960000Y-92075000D03*
X56500000Y-84455000D03*
X56500000Y-92075000D03*
X59040000Y-84455000D03*
X59040000Y-92075000D03*
G04 #@! TD*
G04 #@! TO.C,U53*
X59040000Y-103505000D03*
X59040000Y-95885000D03*
X56500000Y-103505000D03*
X56500000Y-95885000D03*
X53960000Y-103505000D03*
X53960000Y-95885000D03*
X51420000Y-103505000D03*
X51420000Y-95885000D03*
X48880000Y-103505000D03*
X48880000Y-95885000D03*
X46340000Y-103505000D03*
X46340000Y-95885000D03*
X43800000Y-103505000D03*
X43800000Y-95885000D03*
G04 #@! TD*
G04 #@! TO.C,U54*
X99060000Y-38735000D03*
X99060000Y-46355000D03*
X101600000Y-38735000D03*
X101600000Y-46355000D03*
X104140000Y-38735000D03*
X104140000Y-46355000D03*
X106680000Y-38735000D03*
X106680000Y-46355000D03*
X109220000Y-38735000D03*
X109220000Y-46355000D03*
X111760000Y-38735000D03*
X111760000Y-46355000D03*
X114300000Y-38735000D03*
X114300000Y-46355000D03*
G04 #@! TD*
G04 #@! TO.C,U55*
X95885000Y-80645000D03*
X95885000Y-73025000D03*
X93345000Y-80645000D03*
X93345000Y-73025000D03*
X90805000Y-80645000D03*
X90805000Y-73025000D03*
X88265000Y-80645000D03*
X88265000Y-73025000D03*
X85725000Y-80645000D03*
X85725000Y-73025000D03*
X83185000Y-80645000D03*
X83185000Y-73025000D03*
X80645000Y-80645000D03*
X80645000Y-73025000D03*
G04 #@! TD*
G04 #@! TO.C,U56*
X62230000Y-61595000D03*
X62230000Y-69215000D03*
X64770000Y-61595000D03*
X64770000Y-69215000D03*
X67310000Y-61595000D03*
X67310000Y-69215000D03*
X69850000Y-61595000D03*
X69850000Y-69215000D03*
X72390000Y-61595000D03*
X72390000Y-69215000D03*
X74930000Y-61595000D03*
X74930000Y-69215000D03*
X77470000Y-61595000D03*
X77470000Y-69215000D03*
G04 #@! TD*
G04 #@! TO.C,U57*
X59040000Y-80570000D03*
X59040000Y-72950000D03*
X56500000Y-80570000D03*
X56500000Y-72950000D03*
X53960000Y-80570000D03*
X53960000Y-72950000D03*
X51420000Y-80570000D03*
X51420000Y-72950000D03*
X48880000Y-80570000D03*
X48880000Y-72950000D03*
X46340000Y-80570000D03*
X46340000Y-72950000D03*
X43800000Y-80570000D03*
X43800000Y-72950000D03*
G04 #@! TD*
G04 #@! TO.C,U58*
X43800000Y-61595000D03*
X43800000Y-69215000D03*
X46340000Y-61595000D03*
X46340000Y-69215000D03*
X48880000Y-61595000D03*
X48880000Y-69215000D03*
X51420000Y-61595000D03*
X51420000Y-69215000D03*
X53960000Y-61595000D03*
X53960000Y-69215000D03*
X56500000Y-61595000D03*
X56500000Y-69215000D03*
X59040000Y-61595000D03*
X59040000Y-69215000D03*
G04 #@! TD*
G04 #@! TO.C,U59*
X43815000Y-130175000D03*
X43815000Y-137795000D03*
X46355000Y-130175000D03*
X46355000Y-137795000D03*
X48895000Y-130175000D03*
X48895000Y-137795000D03*
X51435000Y-130175000D03*
X51435000Y-137795000D03*
X53975000Y-130175000D03*
X53975000Y-137795000D03*
X56515000Y-130175000D03*
X56515000Y-137795000D03*
X59055000Y-130175000D03*
X59055000Y-137795000D03*
G04 #@! TD*
G04 #@! TO.C,U60*
X95885000Y-69215000D03*
X95885000Y-61595000D03*
X93345000Y-69215000D03*
X93345000Y-61595000D03*
X90805000Y-69215000D03*
X90805000Y-61595000D03*
X88265000Y-69215000D03*
X88265000Y-61595000D03*
X85725000Y-69215000D03*
X85725000Y-61595000D03*
X83185000Y-69215000D03*
X83185000Y-61595000D03*
X80645000Y-69215000D03*
X80645000Y-61595000D03*
G04 #@! TD*
G04 #@! TO.C,U61*
X135890000Y-118745000D03*
X135890000Y-126365000D03*
X138430000Y-118745000D03*
X138430000Y-126365000D03*
X140970000Y-118745000D03*
X140970000Y-126365000D03*
X143510000Y-118745000D03*
X143510000Y-126365000D03*
X146050000Y-118745000D03*
X146050000Y-126365000D03*
X148590000Y-118745000D03*
X148590000Y-126365000D03*
X151130000Y-118745000D03*
X151130000Y-126365000D03*
G04 #@! TD*
G04 #@! TO.C,U62*
X114300000Y-57785000D03*
X114300000Y-50165000D03*
X111760000Y-57785000D03*
X111760000Y-50165000D03*
X109220000Y-57785000D03*
X109220000Y-50165000D03*
X106680000Y-57785000D03*
X106680000Y-50165000D03*
X104140000Y-57785000D03*
X104140000Y-50165000D03*
X101600000Y-57785000D03*
X101600000Y-50165000D03*
X99060000Y-57785000D03*
X99060000Y-50165000D03*
G04 #@! TD*
G04 #@! TO.C,U63*
X62230000Y-118745000D03*
X62230000Y-126365000D03*
X64770000Y-118745000D03*
X64770000Y-126365000D03*
X67310000Y-118745000D03*
X67310000Y-126365000D03*
X69850000Y-118745000D03*
X69850000Y-126365000D03*
X72390000Y-118745000D03*
X72390000Y-126365000D03*
X74930000Y-118745000D03*
X74930000Y-126365000D03*
X77470000Y-118745000D03*
X77470000Y-126365000D03*
G04 #@! TD*
G04 #@! TO.C,U64*
X59055000Y-114935000D03*
X59055000Y-107315000D03*
X56515000Y-114935000D03*
X56515000Y-107315000D03*
X53975000Y-114935000D03*
X53975000Y-107315000D03*
X51435000Y-114935000D03*
X51435000Y-107315000D03*
X48895000Y-114935000D03*
X48895000Y-107315000D03*
X46355000Y-114935000D03*
X46355000Y-107315000D03*
X43815000Y-114935000D03*
X43815000Y-107315000D03*
G04 #@! TD*
G04 #@! TO.C,U65*
X132715000Y-80645000D03*
X132715000Y-73025000D03*
X130175000Y-80645000D03*
X130175000Y-73025000D03*
X127635000Y-80645000D03*
X127635000Y-73025000D03*
X125095000Y-80645000D03*
X125095000Y-73025000D03*
X122555000Y-80645000D03*
X122555000Y-73025000D03*
X120015000Y-80645000D03*
X120015000Y-73025000D03*
X117475000Y-80645000D03*
X117475000Y-73025000D03*
G04 #@! TD*
G04 #@! TO.C,U66*
X59055000Y-126365000D03*
X59055000Y-118745000D03*
X56515000Y-126365000D03*
X56515000Y-118745000D03*
X53975000Y-126365000D03*
X53975000Y-118745000D03*
X51435000Y-126365000D03*
X51435000Y-118745000D03*
X48895000Y-126365000D03*
X48895000Y-118745000D03*
X46355000Y-126365000D03*
X46355000Y-118745000D03*
X43815000Y-126365000D03*
X43815000Y-118745000D03*
G04 #@! TD*
G04 #@! TO.C,U67*
X172720000Y-38735000D03*
X172720000Y-46355000D03*
X175260000Y-38735000D03*
X175260000Y-46355000D03*
X177800000Y-38735000D03*
X177800000Y-46355000D03*
X180340000Y-38735000D03*
X180340000Y-46355000D03*
X182880000Y-38735000D03*
X182880000Y-46355000D03*
X185420000Y-38735000D03*
X185420000Y-46355000D03*
X187960000Y-38735000D03*
X187960000Y-46355000D03*
G04 #@! TD*
G04 #@! TO.C,U68*
X95885000Y-126365000D03*
X95885000Y-118745000D03*
X93345000Y-126365000D03*
X93345000Y-118745000D03*
X90805000Y-126365000D03*
X90805000Y-118745000D03*
X88265000Y-126365000D03*
X88265000Y-118745000D03*
X85725000Y-126365000D03*
X85725000Y-118745000D03*
X83185000Y-126365000D03*
X83185000Y-118745000D03*
X80645000Y-126365000D03*
X80645000Y-118745000D03*
G04 #@! TD*
G04 #@! TO.C,U69*
X99060000Y-95885000D03*
X99060000Y-103505000D03*
X101600000Y-95885000D03*
X101600000Y-103505000D03*
X104140000Y-95885000D03*
X104140000Y-103505000D03*
X106680000Y-95885000D03*
X106680000Y-103505000D03*
X109220000Y-95885000D03*
X109220000Y-103505000D03*
X111760000Y-95885000D03*
X111760000Y-103505000D03*
X114300000Y-95885000D03*
X114300000Y-103505000D03*
G04 #@! TD*
G04 #@! TO.C,U70*
X132715000Y-137795000D03*
X132715000Y-130175000D03*
X130175000Y-137795000D03*
X130175000Y-130175000D03*
X127635000Y-137795000D03*
X127635000Y-130175000D03*
X125095000Y-137795000D03*
X125095000Y-130175000D03*
X122555000Y-137795000D03*
X122555000Y-130175000D03*
X120015000Y-137795000D03*
X120015000Y-130175000D03*
X117475000Y-137795000D03*
X117475000Y-130175000D03*
G04 #@! TD*
G04 #@! TO.C,U71*
X135890000Y-61595000D03*
X135890000Y-69215000D03*
X138430000Y-61595000D03*
X138430000Y-69215000D03*
X140970000Y-61595000D03*
X140970000Y-69215000D03*
X143510000Y-61595000D03*
X143510000Y-69215000D03*
X146050000Y-61595000D03*
X146050000Y-69215000D03*
X148590000Y-61595000D03*
X148590000Y-69215000D03*
X151130000Y-61595000D03*
X151130000Y-69215000D03*
G04 #@! TD*
G04 #@! TO.C,U72*
X95885000Y-103505000D03*
X95885000Y-95885000D03*
X93345000Y-103505000D03*
X93345000Y-95885000D03*
X90805000Y-103505000D03*
X90805000Y-95885000D03*
X88265000Y-103505000D03*
X88265000Y-95885000D03*
X85725000Y-103505000D03*
X85725000Y-95885000D03*
X83185000Y-103505000D03*
X83185000Y-95885000D03*
X80645000Y-103505000D03*
X80645000Y-95885000D03*
G04 #@! TD*
G04 #@! TO.C,U73*
X135890000Y-141605000D03*
X135890000Y-149225000D03*
X138430000Y-141605000D03*
X138430000Y-149225000D03*
X140970000Y-141605000D03*
X140970000Y-149225000D03*
X143510000Y-141605000D03*
X143510000Y-149225000D03*
X146050000Y-141605000D03*
X146050000Y-149225000D03*
X148590000Y-141605000D03*
X148590000Y-149225000D03*
X151130000Y-141605000D03*
X151130000Y-149225000D03*
G04 #@! TD*
G04 #@! TO.C,U74*
X114300000Y-92075000D03*
X114300000Y-84455000D03*
X111760000Y-92075000D03*
X111760000Y-84455000D03*
X109220000Y-92075000D03*
X109220000Y-84455000D03*
X106680000Y-92075000D03*
X106680000Y-84455000D03*
X104140000Y-92075000D03*
X104140000Y-84455000D03*
X101600000Y-92075000D03*
X101600000Y-84455000D03*
X99060000Y-92075000D03*
X99060000Y-84455000D03*
G04 #@! TD*
G04 #@! TO.C,U75*
X172720000Y-141605000D03*
X172720000Y-149225000D03*
X175260000Y-141605000D03*
X175260000Y-149225000D03*
X177800000Y-141605000D03*
X177800000Y-149225000D03*
X180340000Y-141605000D03*
X180340000Y-149225000D03*
X182880000Y-141605000D03*
X182880000Y-149225000D03*
X185420000Y-141605000D03*
X185420000Y-149225000D03*
X187960000Y-141605000D03*
X187960000Y-149225000D03*
G04 #@! TD*
G04 #@! TO.C,U76*
X135890000Y-95885000D03*
X135890000Y-103505000D03*
X138430000Y-95885000D03*
X138430000Y-103505000D03*
X140970000Y-95885000D03*
X140970000Y-103505000D03*
X143510000Y-95885000D03*
X143510000Y-103505000D03*
X146050000Y-95885000D03*
X146050000Y-103505000D03*
X148590000Y-95885000D03*
X148590000Y-103505000D03*
X151130000Y-95885000D03*
X151130000Y-103505000D03*
G04 #@! TD*
G04 #@! TO.C,U77*
X151130000Y-92075000D03*
X151130000Y-84455000D03*
X148590000Y-92075000D03*
X148590000Y-84455000D03*
X146050000Y-92075000D03*
X146050000Y-84455000D03*
X143510000Y-92075000D03*
X143510000Y-84455000D03*
X140970000Y-92075000D03*
X140970000Y-84455000D03*
X138430000Y-92075000D03*
X138430000Y-84455000D03*
X135890000Y-92075000D03*
X135890000Y-84455000D03*
G04 #@! TD*
G04 #@! TO.C,U78*
X117475000Y-84455000D03*
X117475000Y-92075000D03*
X120015000Y-84455000D03*
X120015000Y-92075000D03*
X122555000Y-84455000D03*
X122555000Y-92075000D03*
X125095000Y-84455000D03*
X125095000Y-92075000D03*
X127635000Y-84455000D03*
X127635000Y-92075000D03*
X130175000Y-84455000D03*
X130175000Y-92075000D03*
X132715000Y-84455000D03*
X132715000Y-92075000D03*
G04 #@! TD*
G04 #@! TO.C,U79*
X117475000Y-95885000D03*
X117475000Y-103505000D03*
X120015000Y-95885000D03*
X120015000Y-103505000D03*
X122555000Y-95885000D03*
X122555000Y-103505000D03*
X125095000Y-95885000D03*
X125095000Y-103505000D03*
X127635000Y-95885000D03*
X127635000Y-103505000D03*
X130175000Y-95885000D03*
X130175000Y-103505000D03*
X132715000Y-95885000D03*
X132715000Y-103505000D03*
G04 #@! TD*
G04 #@! TO.C,U80*
X95885000Y-114935000D03*
X95885000Y-107315000D03*
X93345000Y-114935000D03*
X93345000Y-107315000D03*
X90805000Y-114935000D03*
X90805000Y-107315000D03*
X88265000Y-114935000D03*
X88265000Y-107315000D03*
X85725000Y-114935000D03*
X85725000Y-107315000D03*
X83185000Y-114935000D03*
X83185000Y-107315000D03*
X80645000Y-114935000D03*
X80645000Y-107315000D03*
G04 #@! TD*
G04 #@! TO.C,U81*
X117475000Y-118745000D03*
X117475000Y-126365000D03*
X120015000Y-118745000D03*
X120015000Y-126365000D03*
X122555000Y-118745000D03*
X122555000Y-126365000D03*
X125095000Y-118745000D03*
X125095000Y-126365000D03*
X127635000Y-118745000D03*
X127635000Y-126365000D03*
X130175000Y-118745000D03*
X130175000Y-126365000D03*
X132715000Y-118745000D03*
X132715000Y-126365000D03*
G04 #@! TD*
G04 #@! TO.C,U82*
X114300000Y-69215000D03*
X114300000Y-61595000D03*
X111760000Y-69215000D03*
X111760000Y-61595000D03*
X109220000Y-69215000D03*
X109220000Y-61595000D03*
X106680000Y-69215000D03*
X106680000Y-61595000D03*
X104140000Y-69215000D03*
X104140000Y-61595000D03*
X101600000Y-69215000D03*
X101600000Y-61595000D03*
X99060000Y-69215000D03*
X99060000Y-61595000D03*
G04 #@! TD*
G04 #@! TO.C,U83*
X99060000Y-73025000D03*
X99060000Y-80645000D03*
X101600000Y-73025000D03*
X101600000Y-80645000D03*
X104140000Y-73025000D03*
X104140000Y-80645000D03*
X106680000Y-73025000D03*
X106680000Y-80645000D03*
X109220000Y-73025000D03*
X109220000Y-80645000D03*
X111760000Y-73025000D03*
X111760000Y-80645000D03*
X114300000Y-73025000D03*
X114300000Y-80645000D03*
G04 #@! TD*
G04 #@! TO.C,U84*
X95885000Y-92075000D03*
X95885000Y-84455000D03*
X93345000Y-92075000D03*
X93345000Y-84455000D03*
X90805000Y-92075000D03*
X90805000Y-84455000D03*
X88265000Y-92075000D03*
X88265000Y-84455000D03*
X85725000Y-92075000D03*
X85725000Y-84455000D03*
X83185000Y-92075000D03*
X83185000Y-84455000D03*
X80645000Y-92075000D03*
X80645000Y-84455000D03*
G04 #@! TD*
G04 #@! TO.C,U85*
X154305000Y-50165000D03*
X154305000Y-57785000D03*
X156845000Y-50165000D03*
X156845000Y-57785000D03*
X159385000Y-50165000D03*
X159385000Y-57785000D03*
X161925000Y-50165000D03*
X161925000Y-57785000D03*
X164465000Y-50165000D03*
X164465000Y-57785000D03*
X167005000Y-50165000D03*
X167005000Y-57785000D03*
X169545000Y-50165000D03*
X169545000Y-57785000D03*
G04 #@! TD*
G04 #@! TO.C,U86*
X132715000Y-69215000D03*
X132715000Y-61595000D03*
X130175000Y-69215000D03*
X130175000Y-61595000D03*
X127635000Y-69215000D03*
X127635000Y-61595000D03*
X125095000Y-69215000D03*
X125095000Y-61595000D03*
X122555000Y-69215000D03*
X122555000Y-61595000D03*
X120015000Y-69215000D03*
X120015000Y-61595000D03*
X117475000Y-69215000D03*
X117475000Y-61595000D03*
G04 #@! TD*
G04 #@! TO.C,U87*
X77470000Y-137795000D03*
X77470000Y-130175000D03*
X74930000Y-137795000D03*
X74930000Y-130175000D03*
X72390000Y-137795000D03*
X72390000Y-130175000D03*
X69850000Y-137795000D03*
X69850000Y-130175000D03*
X67310000Y-137795000D03*
X67310000Y-130175000D03*
X64770000Y-137795000D03*
X64770000Y-130175000D03*
X62230000Y-137795000D03*
X62230000Y-130175000D03*
G04 #@! TD*
M02*
