M48
;DRILL file {KiCad (5.0.0)} date 09/23/18 08:44:16
;FORMAT={-:-/ absolute / inch / decimal}
FMAT,2
INCH,TZ
T1C0.0157
T2C0.0197
T3C0.0315
%
G90
G05
M72
T1
X1.3274Y-4.0169
X1.3274Y-4.134
X1.356Y-2.271
X1.4116Y-3.5735
X1.4452Y-5.3647
X1.4732Y-3.9959
X1.4822Y-6.1137
X1.575Y-5.98
X1.5827Y-5.3261
X1.5961Y-5.8847
X1.5963Y-6.0145
X1.6004Y-3.7721
X1.6062Y-4.348
X1.6134Y-2.1285
X1.6224Y-6.0949
X1.6237Y-6.0512
X1.637Y-1.3365
X1.6412Y-2.8683
X1.6682Y-3.5645
X1.6699Y-4.0292
X1.6777Y-4.9519
X1.6815Y-1.3397
X1.7156Y-6.1145
X1.7335Y-1.2934
X1.7549Y-4.8983
X1.7607Y-3.9629
X1.7813Y-3.8825
X1.8251Y-3.0827
X1.8517Y-6.5009
X1.8632Y-6.4476
X1.8662Y-4.1452
X1.9111Y-1.4408
X1.9319Y-3.8738
X1.939Y-5.3331
X1.954Y-2.0557
X1.9736Y-4.1442
X1.9849Y-4.8206
X2.0076Y-1.6838
X2.0102Y-4.4597
X2.0381Y-4.3986
X2.0398Y-6.1045
X2.0676Y-3.0675
X2.0756Y-6.3822
X2.0809Y-4.4591
X2.1327Y-3.5128
X2.1348Y-4.4165
X2.175Y-4.7074
X2.1793Y-3.8915
X2.1905Y-4.1504
X2.2045Y-4.4311
X2.2288Y-3.5233
X2.2581Y-5.2319
X2.2761Y-3.1193
X2.2837Y-4.9146
X2.2892Y-1.7024
X2.293Y-2.78
X2.3032Y-3.2634
X2.3633Y-2.6808
X2.3689Y-3.2601
X2.3707Y-3.8561
X2.3875Y-5.0348
X2.3913Y-3.9788
X2.3928Y-4.344
X2.4065Y-2.6534
X2.4245Y-5.3494
X2.4358Y-6.239
X2.4428Y-3.8561
X2.4671Y-2.6428
X2.5547Y-1.2794
X2.5687Y-4.7868
X2.585Y-3.3727
X2.5959Y-4.4687
X2.6021Y-2.8242
X2.6372Y-3.0936
X2.6434Y-4.4095
X2.6434Y-5.3431
X2.6808Y-4.8973
X2.6879Y-3.0834
X2.6921Y-5.0729
X2.6941Y-3.8513
X2.7136Y-2.6208
X2.7223Y-3.7066
X2.7294Y-1.7223
X2.7345Y-2.5105
X2.8057Y-5.7765
X2.8133Y-2.1499
X2.857Y-4.809
X2.8689Y-2.9651
X2.8839Y-4.8897
X2.8993Y-3.116
X2.8994Y-4.4648
X2.9527Y-1.6322
X2.9639Y-3.4837
X2.9738Y-3.9605
X2.9806Y-1.7452
X2.9851Y-4.8756
X2.9954Y-2.1808
X3.0133Y-3.5763
X3.0212Y-5.233
X3.0474Y-5.7129
X3.0894Y-4.3261
X3.1125Y-4.6857
X3.1125Y-5.2247
X3.1145Y-3.7118
X3.175Y-3.9292
X3.238Y-3.3824
X3.3391Y-2.9217
X3.3485Y-3.2596
X3.3688Y-3.4979
X3.3693Y-3.0746
X3.413Y-3.7042
X3.425Y-3.7902
X3.434Y-4.0311
X3.434Y-4.1456
X3.4629Y-2.0464
X3.4821Y-4.8906
X3.5082Y-3.8565
X3.5386Y-2.1162
X3.5418Y-1.8755
X3.5676Y-3.8854
X3.5684Y-2.6243
X3.5724Y-2.2051
X3.6179Y-1.6874
X3.675Y-2.5989
X3.6814Y-3.9297
X3.7023Y-3.0535
X3.7065Y-4.4725
X3.7101Y-3.502
X3.7278Y-6.4762
X3.7416Y-3.7147
X3.7437Y-4.278
X3.7477Y-5.2552
X3.8057Y-2.1328
X3.8097Y-5.8263
X3.8161Y-2.6249
X3.8204Y-1.8885
X3.8634Y-1.4533
X3.8653Y-4.7554
X3.8704Y-2.0296
X3.8977Y-1.269
X3.8978Y-2.9513
X3.9Y-2.8106
X3.9207Y-5.2789
X3.9327Y-2.4825
X3.9389Y-6.191
X3.9631Y-4.7864
X3.977Y-5.1905
X4.Y-2.9401
X4.031Y-1.9092
X4.0499Y-4.6171
X4.0634Y-2.4883
X4.0634Y-4.4548
X4.0813Y-6.1201
X4.1226Y-3.5544
X4.1237Y-3.9771
X4.1436Y-5.1715
X4.1616Y-2.0944
X4.2045Y-3.4832
X4.2217Y-3.9908
X4.2232Y-4.3726
X4.2483Y-3.112
X4.2537Y-3.5001
X4.2646Y-4.1675
X4.2744Y-5.7479
X4.2981Y-3.0709
X4.3473Y-2.7657
X4.3484Y-4.4728
X4.3602Y-2.1505
X4.3607Y-2.5699
X4.3679Y-3.9657
X4.417Y-5.7656
X4.4332Y-4.3425
X4.4482Y-3.888
X4.4552Y-5.943
X4.4553Y-1.7191
X4.4572Y-5.0152
X4.5163Y-1.7228
X4.5289Y-6.4078
X4.5412Y-5.9272
X4.5462Y-5.3402
X4.5773Y-3.1852
X4.5871Y-3.4843
X4.5885Y-2.0653
X4.6184Y-4.4294
X4.6234Y-3.8625
X4.625Y-5.3045
X4.6267Y-2.6249
X4.6421Y-2.5396
X4.6758Y-2.9132
X4.6972Y-3.0763
X4.7192Y-4.7683
X4.725Y-5.793
X4.7375Y-3.9267
X4.7547Y-2.6446
X4.7622Y-4.4793
X4.825Y-5.7883
X4.8465Y-3.8723
X4.8762Y-4.2974
X4.8907Y-2.63
X4.8984Y-4.8486
X4.9198Y-3.4681
X4.9528Y-1.7228
X4.9714Y-4.0044
X4.975Y-3.1833
X4.9832Y-3.4911
X4.9866Y-3.6849
X4.9912Y-4.8761
X5.0094Y-3.2527
X5.0214Y-4.7563
X5.0279Y-3.9708
X5.0373Y-5.3161
X5.0453Y-4.3356
X5.0842Y-4.8603
X5.0881Y-6.2602
X5.1197Y-1.4439
X5.1202Y-4.3328
X5.1218Y-3.9885
X5.125Y-2.0722
X5.1433Y-5.3181
X5.1577Y-3.378
X5.1923Y-4.583
X5.2401Y-1.2075
X5.2527Y-2.6505
X5.2633Y-6.2308
X5.2662Y-3.6961
X5.2723Y-5.6555
X5.2727Y-5.146
X5.3041Y-1.4707
X5.3117Y-4.583
X5.3126Y-5.7307
X5.3136Y-3.2213
X5.3157Y-4.7565
X5.3183Y-2.9702
X5.3523Y-5.2373
X5.3821Y-5.0379
X5.3917Y-4.3236
X5.3917Y-4.7852
X5.3952Y-2.5521
X5.4072Y-3.378
X5.425Y-5.0465
X5.4417Y-3.0676
X5.4588Y-1.3976
X5.4678Y-4.7745
X5.487Y-3.7242
X5.5031Y-3.8837
X5.5032Y-3.8358
X5.5136Y-5.9253
X5.5192Y-3.1101
X5.5422Y-1.3985
X5.5562Y-3.5606
X5.5718Y-3.96
X5.5784Y-2.9472
X5.5828Y-6.0772
X5.5892Y-3.6772
X5.5892Y-3.8649
X5.5915Y-5.2013
X5.6065Y-4.0223
X5.6809Y-2.3415
X5.7068Y-4.4291
X5.7496Y-2.1722
X5.7861Y-2.5812
X5.8Y-5.2521
X5.804Y-2.1859
X5.8049Y-1.1506
X5.8323Y-5.2283
X5.8574Y-1.6794
X5.8861Y-3.1031
X5.8956Y-2.1392
X5.8958Y-2.4869
X5.8958Y-3.0454
X5.9053Y-4.794
X5.9154Y-3.4712
X5.9343Y-2.1102
X5.9681Y-3.4966
X5.9698Y-3.9869
X5.9874Y-2.6342
X5.9877Y-5.7504
X6.0235Y-1.151
X6.0458Y-4.4451
X6.0463Y-3.4786
X6.075Y-5.7021
X6.0791Y-4.7784
X6.0852Y-3.4527
X6.0942Y-1.2633
X6.1316Y-1.352
X6.1456Y-5.1701
X6.1675Y-1.255
X6.175Y-1.7253
X6.2108Y-4.3417
X6.2434Y-1.8937
X6.2595Y-2.5521
X6.2595Y-5.7517
X6.2821Y-4.3445
X6.3125Y-2.7978
X6.3934Y-3.9679
X6.4224Y-6.1376
X6.5068Y-1.2688
X6.5119Y-4.3048
X6.5228Y-3.6055
X6.575Y-3.4527
X6.5993Y-4.3235
X6.5993Y-4.4197
X6.6172Y-4.798
X6.6488Y-5.3726
X6.7159Y-3.0803
X6.7345Y-5.0658
X6.7372Y-2.6264
X6.7556Y-3.4242
X6.803Y-5.274
X6.8195Y-3.5281
X6.8342Y-4.3734
X6.9Y-1.1512
X6.9859Y-3.4812
X7.046Y-3.0628
X7.0845Y-5.7746
X7.1306Y-1.2106
X7.3222Y-3.0694
X7.3329Y-2.9279
X7.4286Y-1.5869
X7.4378Y-3.9134
X7.4435Y-5.6645
X7.4558Y-4.5888
X7.4743Y-1.4076
X7.5008Y-2.1817
X7.5138Y-5.7019
X7.5195Y-2.6065
X7.5432Y-5.5386
X7.555Y-2.5602
X7.5598Y-2.0279
X7.5669Y-6.5009
X7.6191Y-4.3926
X7.6246Y-4.452
X7.6489Y-2.0811
T2
X3.175Y-5.125
X3.175Y-5.425
X3.275Y-5.125
X3.275Y-5.425
X3.375Y-5.125
X3.375Y-5.425
X3.475Y-5.125
X3.475Y-5.425
X3.575Y-5.125
X3.575Y-5.425
X3.675Y-5.125
X3.675Y-5.425
X3.775Y-5.125
X3.775Y-5.425
X3.9Y-4.675
X3.9Y-4.975
X4.Y-4.675
X4.Y-4.975
X4.1Y-4.675
X4.1Y-4.975
X4.2Y-4.675
X4.2Y-4.975
X4.3Y-4.675
X4.3Y-4.975
X4.4Y-4.675
X4.4Y-4.975
X4.5Y-4.675
X4.5Y-4.975
X3.175Y-1.975
X3.175Y-2.275
X3.275Y-1.975
X3.275Y-2.275
X3.375Y-1.975
X3.375Y-2.275
X3.475Y-1.975
X3.475Y-2.275
X3.575Y-1.975
X3.575Y-2.275
X3.675Y-1.975
X3.675Y-2.275
X3.775Y-1.975
X3.775Y-2.275
X3.9Y-4.225
X3.9Y-4.525
X4.Y-4.225
X4.Y-4.525
X4.1Y-4.225
X4.1Y-4.525
X4.2Y-4.225
X4.2Y-4.525
X4.3Y-4.225
X4.3Y-4.525
X4.4Y-4.225
X4.4Y-4.525
X4.5Y-4.225
X4.5Y-4.525
X4.625Y-2.875
X4.625Y-3.175
X4.725Y-2.875
X4.725Y-3.175
X4.825Y-2.875
X4.825Y-3.175
X4.925Y-2.875
X4.925Y-3.175
X5.025Y-2.875
X5.025Y-3.175
X5.125Y-2.875
X5.125Y-3.175
X5.225Y-2.875
X5.225Y-3.175
X1.7244Y-1.525
X1.7244Y-1.825
X1.8244Y-1.525
X1.8244Y-1.825
X1.9244Y-1.525
X1.9244Y-1.825
X2.0244Y-1.525
X2.0244Y-1.825
X2.1244Y-1.525
X2.1244Y-1.825
X2.2244Y-1.525
X2.2244Y-1.825
X2.3244Y-1.525
X2.3244Y-1.825
X4.625Y-5.125
X4.625Y-5.425
X4.725Y-5.125
X4.725Y-5.425
X4.825Y-5.125
X4.825Y-5.425
X4.925Y-5.125
X4.925Y-5.425
X5.025Y-5.125
X5.025Y-5.425
X5.125Y-5.125
X5.125Y-5.425
X5.225Y-5.125
X5.225Y-5.425
X5.35Y-4.225
X5.35Y-4.525
X5.45Y-4.225
X5.45Y-4.525
X5.55Y-4.225
X5.55Y-4.525
X5.65Y-4.225
X5.65Y-4.525
X5.75Y-4.225
X5.75Y-4.525
X5.85Y-4.225
X5.85Y-4.525
X5.95Y-4.225
X5.95Y-4.525
X3.175Y-3.325
X3.175Y-3.625
X3.275Y-3.325
X3.275Y-3.625
X3.375Y-3.325
X3.375Y-3.625
X3.475Y-3.325
X3.475Y-3.625
X3.575Y-3.325
X3.575Y-3.625
X3.675Y-3.325
X3.675Y-3.625
X3.775Y-3.325
X3.775Y-3.625
X1.7244Y-3.325
X1.7244Y-3.625
X1.8244Y-3.325
X1.8244Y-3.625
X1.9244Y-3.325
X1.9244Y-3.625
X2.0244Y-3.325
X2.0244Y-3.625
X2.1244Y-3.325
X2.1244Y-3.625
X2.2244Y-3.325
X2.2244Y-3.625
X2.3244Y-3.325
X2.3244Y-3.625
X6.075Y-3.325
X6.075Y-3.625
X6.175Y-3.325
X6.175Y-3.625
X6.275Y-3.325
X6.275Y-3.625
X6.375Y-3.325
X6.375Y-3.625
X6.475Y-3.325
X6.475Y-3.625
X6.575Y-3.325
X6.575Y-3.625
X6.675Y-3.325
X6.675Y-3.625
X3.175Y-6.025
X3.175Y-6.325
X3.275Y-6.025
X3.275Y-6.325
X3.375Y-6.025
X3.375Y-6.325
X3.475Y-6.025
X3.475Y-6.325
X3.575Y-6.025
X3.575Y-6.325
X3.675Y-6.025
X3.675Y-6.325
X3.775Y-6.025
X3.775Y-6.325
X1.725Y-4.675
X1.725Y-4.975
X1.825Y-4.675
X1.825Y-4.975
X1.925Y-4.675
X1.925Y-4.975
X2.025Y-4.675
X2.025Y-4.975
X2.125Y-4.675
X2.125Y-4.975
X2.225Y-4.675
X2.225Y-4.975
X2.325Y-4.675
X2.325Y-4.975
X6.075Y-2.425
X6.075Y-2.725
X6.175Y-2.425
X6.175Y-2.725
X6.275Y-2.425
X6.275Y-2.725
X6.375Y-2.425
X6.375Y-2.725
X6.475Y-2.425
X6.475Y-2.725
X6.575Y-2.425
X6.575Y-2.725
X6.675Y-2.425
X6.675Y-2.725
X4.625Y-1.9717
X4.625Y-2.2717
X4.725Y-1.9717
X4.725Y-2.2717
X4.825Y-1.9717
X4.825Y-2.2717
X4.925Y-1.9717
X4.925Y-2.2717
X5.025Y-1.9717
X5.025Y-2.2717
X5.125Y-1.9717
X5.125Y-2.2717
X5.225Y-1.9717
X5.225Y-2.2717
X6.075Y-3.775
X6.075Y-4.075
X6.175Y-3.775
X6.175Y-4.075
X6.275Y-3.775
X6.275Y-4.075
X6.375Y-3.775
X6.375Y-4.075
X6.475Y-3.775
X6.475Y-4.075
X6.575Y-3.775
X6.575Y-4.075
X6.675Y-3.775
X6.675Y-4.075
X5.35Y-5.125
X5.35Y-5.425
X5.45Y-5.125
X5.45Y-5.425
X5.55Y-5.125
X5.55Y-5.425
X5.65Y-5.125
X5.65Y-5.425
X5.75Y-5.125
X5.75Y-5.425
X5.85Y-5.125
X5.85Y-5.425
X5.95Y-5.125
X5.95Y-5.425
X6.075Y-6.025
X6.075Y-6.325
X6.175Y-6.025
X6.175Y-6.325
X6.275Y-6.025
X6.275Y-6.325
X6.375Y-6.025
X6.375Y-6.325
X6.475Y-6.025
X6.475Y-6.325
X6.575Y-6.025
X6.575Y-6.325
X6.675Y-6.025
X6.675Y-6.325
X3.9Y-1.975
X3.9Y-2.275
X4.Y-1.975
X4.Y-2.275
X4.1Y-1.975
X4.1Y-2.275
X4.2Y-1.975
X4.2Y-2.275
X4.3Y-1.975
X4.3Y-2.275
X4.4Y-1.975
X4.4Y-2.275
X4.5Y-1.975
X4.5Y-2.275
X3.9Y-2.875
X3.9Y-3.175
X4.Y-2.875
X4.Y-3.175
X4.1Y-2.875
X4.1Y-3.175
X4.2Y-2.875
X4.2Y-3.175
X4.3Y-2.875
X4.3Y-3.175
X4.4Y-2.875
X4.4Y-3.175
X4.5Y-2.875
X4.5Y-3.175
X2.4524Y-3.7659
X2.4524Y-4.0659
X2.5524Y-3.7659
X2.5524Y-4.0659
X2.6524Y-3.7659
X2.6524Y-4.0659
X2.7524Y-3.7659
X2.7524Y-4.0659
X2.8524Y-3.7659
X2.8524Y-4.0659
X2.9524Y-3.7659
X2.9524Y-4.0659
X3.0524Y-3.7659
X3.0524Y-4.0659
X5.35Y-3.775
X5.35Y-4.075
X5.45Y-3.775
X5.45Y-4.075
X5.55Y-3.775
X5.55Y-4.075
X5.65Y-3.775
X5.65Y-4.075
X5.75Y-3.775
X5.75Y-4.075
X5.85Y-3.775
X5.85Y-4.075
X5.95Y-3.775
X5.95Y-4.075
X3.175Y-2.875
X3.175Y-3.175
X3.275Y-2.875
X3.275Y-3.175
X3.375Y-2.875
X3.375Y-3.175
X3.475Y-2.875
X3.475Y-3.175
X3.575Y-2.875
X3.575Y-3.175
X3.675Y-2.875
X3.675Y-3.175
X3.775Y-2.875
X3.775Y-3.175
X3.175Y-5.575
X3.175Y-5.875
X3.275Y-5.575
X3.275Y-5.875
X3.375Y-5.575
X3.375Y-5.875
X3.475Y-5.575
X3.475Y-5.875
X3.575Y-5.575
X3.575Y-5.875
X3.675Y-5.575
X3.675Y-5.875
X3.775Y-5.575
X3.775Y-5.875
X3.9Y-2.425
X3.9Y-2.725
X4.Y-2.425
X4.Y-2.725
X4.1Y-2.425
X4.1Y-2.725
X4.2Y-2.425
X4.2Y-2.725
X4.3Y-2.425
X4.3Y-2.725
X4.4Y-2.425
X4.4Y-2.725
X4.5Y-2.425
X4.5Y-2.725
X3.9Y-5.125
X3.9Y-5.425
X4.Y-5.125
X4.Y-5.425
X4.1Y-5.125
X4.1Y-5.425
X4.2Y-5.125
X4.2Y-5.425
X4.3Y-5.125
X4.3Y-5.425
X4.4Y-5.125
X4.4Y-5.425
X4.5Y-5.125
X4.5Y-5.425
X6.8Y-2.875
X6.8Y-3.175
X6.9Y-2.875
X6.9Y-3.175
X7.Y-2.875
X7.Y-3.175
X7.1Y-2.875
X7.1Y-3.175
X7.2Y-2.875
X7.2Y-3.175
X7.3Y-2.875
X7.3Y-3.175
X7.4Y-2.875
X7.4Y-3.175
X3.9Y-5.575
X3.9Y-5.875
X4.Y-5.575
X4.Y-5.875
X4.1Y-5.575
X4.1Y-5.875
X4.2Y-5.575
X4.2Y-5.875
X4.3Y-5.575
X4.3Y-5.875
X4.4Y-5.575
X4.4Y-5.875
X4.5Y-5.575
X4.5Y-5.875
X3.9Y-6.025
X3.9Y-6.325
X4.Y-6.025
X4.Y-6.325
X4.1Y-6.025
X4.1Y-6.325
X4.2Y-6.025
X4.2Y-6.325
X4.3Y-6.025
X4.3Y-6.325
X4.4Y-6.025
X4.4Y-6.325
X4.5Y-6.025
X4.5Y-6.325
X5.35Y-1.9717
X5.35Y-2.2717
X5.45Y-1.9717
X5.45Y-2.2717
X5.55Y-1.9717
X5.55Y-2.2717
X5.65Y-1.9717
X5.65Y-2.2717
X5.75Y-1.9717
X5.75Y-2.2717
X5.85Y-1.9717
X5.85Y-2.2717
X5.95Y-1.9717
X5.95Y-2.2717
X6.8Y-4.675
X6.8Y-4.975
X6.9Y-4.675
X6.9Y-4.975
X7.Y-4.675
X7.Y-4.975
X7.1Y-4.675
X7.1Y-4.975
X7.2Y-4.675
X7.2Y-4.975
X7.3Y-4.675
X7.3Y-4.975
X7.4Y-4.675
X7.4Y-4.975
X6.075Y-1.525
X6.075Y-1.825
X6.175Y-1.525
X6.175Y-1.825
X6.275Y-1.525
X6.275Y-1.825
X6.375Y-1.525
X6.375Y-1.825
X6.475Y-1.525
X6.475Y-1.825
X6.575Y-1.525
X6.575Y-1.825
X6.675Y-1.525
X6.675Y-1.825
X3.9Y-3.325
X3.9Y-3.625
X4.Y-3.325
X4.Y-3.625
X4.1Y-3.325
X4.1Y-3.625
X4.2Y-3.325
X4.2Y-3.625
X4.3Y-3.325
X4.3Y-3.625
X4.4Y-3.325
X4.4Y-3.625
X4.5Y-3.325
X4.5Y-3.625
X6.8Y-4.225
X6.8Y-4.525
X6.9Y-4.225
X6.9Y-4.525
X7.Y-4.225
X7.Y-4.525
X7.1Y-4.225
X7.1Y-4.525
X7.2Y-4.225
X7.2Y-4.525
X7.3Y-4.225
X7.3Y-4.525
X7.4Y-4.225
X7.4Y-4.525
X3.9Y-3.775
X3.9Y-4.075
X4.Y-3.775
X4.Y-4.075
X4.1Y-3.775
X4.1Y-4.075
X4.2Y-3.775
X4.2Y-4.075
X4.3Y-3.775
X4.3Y-4.075
X4.4Y-3.775
X4.4Y-4.075
X4.5Y-3.775
X4.5Y-4.075
X6.8Y-2.425
X6.8Y-2.725
X6.9Y-2.425
X6.9Y-2.725
X7.Y-2.425
X7.Y-2.725
X7.1Y-2.425
X7.1Y-2.725
X7.2Y-2.425
X7.2Y-2.725
X7.3Y-2.425
X7.3Y-2.725
X7.4Y-2.425
X7.4Y-2.725
X2.45Y-5.575
X2.45Y-5.875
X2.55Y-5.575
X2.55Y-5.875
X2.65Y-5.575
X2.65Y-5.875
X2.75Y-5.575
X2.75Y-5.875
X2.85Y-5.575
X2.85Y-5.875
X2.95Y-5.575
X2.95Y-5.875
X3.05Y-5.575
X3.05Y-5.875
X3.175Y-4.225
X3.175Y-4.525
X3.275Y-4.225
X3.275Y-4.525
X3.375Y-4.225
X3.375Y-4.525
X3.475Y-4.225
X3.475Y-4.525
X3.575Y-4.225
X3.575Y-4.525
X3.675Y-4.225
X3.675Y-4.525
X3.775Y-4.225
X3.775Y-4.525
X6.0843Y-4.675
X6.0843Y-4.975
X6.1843Y-4.675
X6.1843Y-4.975
X6.2843Y-4.675
X6.2843Y-4.975
X6.3843Y-4.675
X6.3843Y-4.975
X6.4843Y-4.675
X6.4843Y-4.975
X6.5843Y-4.675
X6.5843Y-4.975
X6.6843Y-4.675
X6.6843Y-4.975
X6.075Y-5.575
X6.075Y-5.875
X6.175Y-5.575
X6.175Y-5.875
X6.275Y-5.575
X6.275Y-5.875
X6.375Y-5.575
X6.375Y-5.875
X6.475Y-5.575
X6.475Y-5.875
X6.575Y-5.575
X6.575Y-5.875
X6.675Y-5.575
X6.675Y-5.875
X6.0821Y-4.225
X6.0821Y-4.525
X6.1821Y-4.225
X6.1821Y-4.525
X6.2821Y-4.225
X6.2821Y-4.525
X6.3821Y-4.225
X6.3821Y-4.525
X6.4821Y-4.225
X6.4821Y-4.525
X6.5821Y-4.225
X6.5821Y-4.525
X6.6821Y-4.225
X6.6821Y-4.525
X5.35Y-6.025
X5.35Y-6.325
X5.45Y-6.025
X5.45Y-6.325
X5.55Y-6.025
X5.55Y-6.325
X5.65Y-6.025
X5.65Y-6.325
X5.75Y-6.025
X5.75Y-6.325
X5.85Y-6.025
X5.85Y-6.325
X5.95Y-6.025
X5.95Y-6.325
X4.625Y-6.025
X4.625Y-6.325
X4.725Y-6.025
X4.725Y-6.325
X4.825Y-6.025
X4.825Y-6.325
X4.925Y-6.025
X4.925Y-6.325
X5.025Y-6.025
X5.025Y-6.325
X5.125Y-6.025
X5.125Y-6.325
X5.225Y-6.025
X5.225Y-6.325
X6.075Y-1.975
X6.075Y-2.275
X6.175Y-1.975
X6.175Y-2.275
X6.275Y-1.975
X6.275Y-2.275
X6.375Y-1.975
X6.375Y-2.275
X6.475Y-1.975
X6.475Y-2.275
X6.575Y-1.975
X6.575Y-2.275
X6.675Y-1.975
X6.675Y-2.275
X2.45Y-4.675
X2.45Y-4.975
X2.55Y-4.675
X2.55Y-4.975
X2.65Y-4.675
X2.65Y-4.975
X2.75Y-4.675
X2.75Y-4.975
X2.85Y-4.675
X2.85Y-4.975
X2.95Y-4.675
X2.95Y-4.975
X3.05Y-4.675
X3.05Y-4.975
X4.625Y-3.775
X4.625Y-4.075
X4.725Y-3.775
X4.725Y-4.075
X4.825Y-3.775
X4.825Y-4.075
X4.925Y-3.775
X4.925Y-4.075
X5.025Y-3.775
X5.025Y-4.075
X5.125Y-3.775
X5.125Y-4.075
X5.225Y-3.775
X5.225Y-4.075
X1.7244Y-2.425
X1.7244Y-2.725
X1.8244Y-2.425
X1.8244Y-2.725
X1.9244Y-2.425
X1.9244Y-2.725
X2.0244Y-2.425
X2.0244Y-2.725
X2.1244Y-2.425
X2.1244Y-2.725
X2.2244Y-2.425
X2.2244Y-2.725
X2.3244Y-2.425
X2.3244Y-2.725
X6.8071Y-5.125
X6.8071Y-5.425
X6.9071Y-5.125
X6.9071Y-5.425
X7.0071Y-5.125
X7.0071Y-5.425
X7.1071Y-5.125
X7.1071Y-5.425
X7.2071Y-5.125
X7.2071Y-5.425
X7.3071Y-5.125
X7.3071Y-5.425
X7.4071Y-5.125
X7.4071Y-5.425
X3.9Y-1.525
X3.9Y-1.825
X4.Y-1.525
X4.Y-1.825
X4.1Y-1.525
X4.1Y-1.825
X4.2Y-1.525
X4.2Y-1.825
X4.3Y-1.525
X4.3Y-1.825
X4.4Y-1.525
X4.4Y-1.825
X4.5Y-1.525
X4.5Y-1.825
X6.8Y-5.575
X6.8Y-5.875
X6.9Y-5.575
X6.9Y-5.875
X7.Y-5.575
X7.Y-5.875
X7.1Y-5.575
X7.1Y-5.875
X7.2Y-5.575
X7.2Y-5.875
X7.3Y-5.575
X7.3Y-5.875
X7.4Y-5.575
X7.4Y-5.875
X1.725Y-4.225
X1.725Y-4.525
X1.825Y-4.225
X1.825Y-4.525
X1.925Y-4.225
X1.925Y-4.525
X2.025Y-4.225
X2.025Y-4.525
X2.125Y-4.225
X2.125Y-4.525
X2.225Y-4.225
X2.225Y-4.525
X2.325Y-4.225
X2.325Y-4.525
X4.625Y-4.225
X4.625Y-4.525
X4.725Y-4.225
X4.725Y-4.525
X4.825Y-4.225
X4.825Y-4.525
X4.925Y-4.225
X4.925Y-4.525
X5.025Y-4.225
X5.025Y-4.525
X5.125Y-4.225
X5.125Y-4.525
X5.225Y-4.225
X5.225Y-4.525
X6.8Y-1.975
X6.8Y-2.275
X6.9Y-1.975
X6.9Y-2.275
X7.Y-1.975
X7.Y-2.275
X7.1Y-1.975
X7.1Y-2.275
X7.2Y-1.975
X7.2Y-2.275
X7.3Y-1.975
X7.3Y-2.275
X7.4Y-1.975
X7.4Y-2.275
X4.6197Y-1.525
X4.6197Y-1.825
X4.7197Y-1.525
X4.7197Y-1.825
X4.8197Y-1.525
X4.8197Y-1.825
X4.9197Y-1.525
X4.9197Y-1.825
X5.0197Y-1.525
X5.0197Y-1.825
X5.1197Y-1.525
X5.1197Y-1.825
X5.2197Y-1.525
X5.2197Y-1.825
X3.175Y-1.525
X3.175Y-1.825
X3.275Y-1.525
X3.275Y-1.825
X3.375Y-1.525
X3.375Y-1.825
X3.475Y-1.525
X3.475Y-1.825
X3.575Y-1.525
X3.575Y-1.825
X3.675Y-1.525
X3.675Y-1.825
X3.775Y-1.525
X3.775Y-1.825
X4.625Y-3.325
X4.625Y-3.625
X4.725Y-3.325
X4.725Y-3.625
X4.825Y-3.325
X4.825Y-3.625
X4.925Y-3.325
X4.925Y-3.625
X5.025Y-3.325
X5.025Y-3.625
X5.125Y-3.325
X5.125Y-3.625
X5.225Y-3.325
X5.225Y-3.625
X1.725Y-5.575
X1.725Y-5.875
X1.825Y-5.575
X1.825Y-5.875
X1.925Y-5.575
X1.925Y-5.875
X2.025Y-5.575
X2.025Y-5.875
X2.125Y-5.575
X2.125Y-5.875
X2.225Y-5.575
X2.225Y-5.875
X2.325Y-5.575
X2.325Y-5.875
X4.625Y-4.675
X4.625Y-4.975
X4.725Y-4.675
X4.725Y-4.975
X4.825Y-4.675
X4.825Y-4.975
X4.925Y-4.675
X4.925Y-4.975
X5.025Y-4.675
X5.025Y-4.975
X5.125Y-4.675
X5.125Y-4.975
X5.225Y-4.675
X5.225Y-4.975
X2.45Y-2.425
X2.45Y-2.725
X2.55Y-2.425
X2.55Y-2.725
X2.65Y-2.425
X2.65Y-2.725
X2.75Y-2.425
X2.75Y-2.725
X2.85Y-2.425
X2.85Y-2.725
X2.95Y-2.425
X2.95Y-2.725
X3.05Y-2.425
X3.05Y-2.725
X2.45Y-6.025
X2.45Y-6.325
X2.55Y-6.025
X2.55Y-6.325
X2.65Y-6.025
X2.65Y-6.325
X2.75Y-6.025
X2.75Y-6.325
X2.85Y-6.025
X2.85Y-6.325
X2.95Y-6.025
X2.95Y-6.325
X3.05Y-6.025
X3.05Y-6.325
X1.725Y-5.125
X1.725Y-5.425
X1.825Y-5.125
X1.825Y-5.425
X1.925Y-5.125
X1.925Y-5.425
X2.025Y-5.125
X2.025Y-5.425
X2.125Y-5.125
X2.125Y-5.425
X2.225Y-5.125
X2.225Y-5.425
X2.325Y-5.125
X2.325Y-5.425
X5.35Y-5.575
X5.35Y-5.875
X5.45Y-5.575
X5.45Y-5.875
X5.55Y-5.575
X5.55Y-5.875
X5.65Y-5.575
X5.65Y-5.875
X5.75Y-5.575
X5.75Y-5.875
X5.85Y-5.575
X5.85Y-5.875
X5.95Y-5.575
X5.95Y-5.875
X1.7244Y-2.872
X1.7244Y-3.172
X1.8244Y-2.872
X1.8244Y-3.172
X1.9244Y-2.872
X1.9244Y-3.172
X2.0244Y-2.872
X2.0244Y-3.172
X2.1244Y-2.872
X2.1244Y-3.172
X2.2244Y-2.872
X2.2244Y-3.172
X2.3244Y-2.872
X2.3244Y-3.172
X2.45Y-2.875
X2.45Y-3.175
X2.55Y-2.875
X2.55Y-3.175
X2.65Y-2.875
X2.65Y-3.175
X2.75Y-2.875
X2.75Y-3.175
X2.85Y-2.875
X2.85Y-3.175
X2.95Y-2.875
X2.95Y-3.175
X3.05Y-2.875
X3.05Y-3.175
X5.35Y-2.875
X5.35Y-3.175
X5.45Y-2.875
X5.45Y-3.175
X5.55Y-2.875
X5.55Y-3.175
X5.65Y-2.875
X5.65Y-3.175
X5.75Y-2.875
X5.75Y-3.175
X5.85Y-2.875
X5.85Y-3.175
X5.95Y-2.875
X5.95Y-3.175
X1.725Y-6.025
X1.725Y-6.325
X1.825Y-6.025
X1.825Y-6.325
X1.925Y-6.025
X1.925Y-6.325
X2.025Y-6.025
X2.025Y-6.325
X2.125Y-6.025
X2.125Y-6.325
X2.225Y-6.025
X2.225Y-6.325
X2.325Y-6.025
X2.325Y-6.325
X6.075Y-2.875
X6.075Y-3.175
X6.175Y-2.875
X6.175Y-3.175
X6.275Y-2.875
X6.275Y-3.175
X6.375Y-2.875
X6.375Y-3.175
X6.475Y-2.875
X6.475Y-3.175
X6.575Y-2.875
X6.575Y-3.175
X6.675Y-2.875
X6.675Y-3.175
X5.35Y-3.325
X5.35Y-3.625
X5.45Y-3.325
X5.45Y-3.625
X5.55Y-3.325
X5.55Y-3.625
X5.65Y-3.325
X5.65Y-3.625
X5.75Y-3.325
X5.75Y-3.625
X5.85Y-3.325
X5.85Y-3.625
X5.95Y-3.325
X5.95Y-3.625
X5.35Y-4.675
X5.35Y-4.975
X5.45Y-4.675
X5.45Y-4.975
X5.55Y-4.675
X5.55Y-4.975
X5.65Y-4.675
X5.65Y-4.975
X5.75Y-4.675
X5.75Y-4.975
X5.85Y-4.675
X5.85Y-4.975
X5.95Y-4.675
X5.95Y-4.975
X1.7244Y-1.975
X1.7244Y-2.275
X1.8244Y-1.975
X1.8244Y-2.275
X1.9244Y-1.975
X1.9244Y-2.275
X2.0244Y-1.975
X2.0244Y-2.275
X2.1244Y-1.975
X2.1244Y-2.275
X2.2244Y-1.975
X2.2244Y-2.275
X2.3244Y-1.975
X2.3244Y-2.275
X2.45Y-5.125
X2.45Y-5.425
X2.55Y-5.125
X2.55Y-5.425
X2.65Y-5.125
X2.65Y-5.425
X2.75Y-5.125
X2.75Y-5.425
X2.85Y-5.125
X2.85Y-5.425
X2.95Y-5.125
X2.95Y-5.425
X3.05Y-5.125
X3.05Y-5.425
X4.625Y-5.575
X4.625Y-5.875
X4.725Y-5.575
X4.725Y-5.875
X4.825Y-5.575
X4.825Y-5.875
X4.925Y-5.575
X4.925Y-5.875
X5.025Y-5.575
X5.025Y-5.875
X5.125Y-5.575
X5.125Y-5.875
X5.225Y-5.575
X5.225Y-5.875
X4.625Y-2.425
X4.625Y-2.725
X4.725Y-2.425
X4.725Y-2.725
X4.825Y-2.425
X4.825Y-2.725
X4.925Y-2.425
X4.925Y-2.725
X5.025Y-2.425
X5.025Y-2.725
X5.125Y-2.425
X5.125Y-2.725
X5.225Y-2.425
X5.225Y-2.725
X2.45Y-4.225
X2.45Y-4.525
X2.55Y-4.225
X2.55Y-4.525
X2.65Y-4.225
X2.65Y-4.525
X2.75Y-4.225
X2.75Y-4.525
X2.85Y-4.225
X2.85Y-4.525
X2.95Y-4.225
X2.95Y-4.525
X3.05Y-4.225
X3.05Y-4.525
X3.175Y-4.675
X3.175Y-4.975
X3.275Y-4.675
X3.275Y-4.975
X3.375Y-4.675
X3.375Y-4.975
X3.475Y-4.675
X3.475Y-4.975
X3.575Y-4.675
X3.575Y-4.975
X3.675Y-4.675
X3.675Y-4.975
X3.775Y-4.675
X3.775Y-4.975
X6.8Y-3.325
X6.8Y-3.625
X6.9Y-3.325
X6.9Y-3.625
X7.Y-3.325
X7.Y-3.625
X7.1Y-3.325
X7.1Y-3.625
X7.2Y-3.325
X7.2Y-3.625
X7.3Y-3.325
X7.3Y-3.625
X7.4Y-3.325
X7.4Y-3.625
X2.45Y-3.325
X2.45Y-3.625
X2.55Y-3.325
X2.55Y-3.625
X2.65Y-3.325
X2.65Y-3.625
X2.75Y-3.325
X2.75Y-3.625
X2.85Y-3.325
X2.85Y-3.625
X2.95Y-3.325
X2.95Y-3.625
X3.05Y-3.325
X3.05Y-3.625
X5.3435Y-1.525
X5.3435Y-1.825
X5.4435Y-1.525
X5.4435Y-1.825
X5.5435Y-1.525
X5.5435Y-1.825
X5.6435Y-1.525
X5.6435Y-1.825
X5.7435Y-1.525
X5.7435Y-1.825
X5.8435Y-1.525
X5.8435Y-1.825
X5.9435Y-1.525
X5.9435Y-1.825
X6.8Y-3.775
X6.8Y-4.075
X6.9Y-3.775
X6.9Y-4.075
X7.Y-3.775
X7.Y-4.075
X7.1Y-3.775
X7.1Y-4.075
X7.2Y-3.775
X7.2Y-4.075
X7.3Y-3.775
X7.3Y-4.075
X7.4Y-3.775
X7.4Y-4.075
X2.45Y-1.975
X2.45Y-2.275
X2.55Y-1.975
X2.55Y-2.275
X2.65Y-1.975
X2.65Y-2.275
X2.75Y-1.975
X2.75Y-2.275
X2.85Y-1.975
X2.85Y-2.275
X2.95Y-1.975
X2.95Y-2.275
X3.05Y-1.975
X3.05Y-2.275
X1.7244Y-3.775
X1.7244Y-4.075
X1.8244Y-3.775
X1.8244Y-4.075
X1.9244Y-3.775
X1.9244Y-4.075
X2.0244Y-3.775
X2.0244Y-4.075
X2.1244Y-3.775
X2.1244Y-4.075
X2.2244Y-3.775
X2.2244Y-4.075
X2.3244Y-3.775
X2.3244Y-4.075
X3.175Y-3.775
X3.175Y-4.075
X3.275Y-3.775
X3.275Y-4.075
X3.375Y-3.775
X3.375Y-4.075
X3.475Y-3.775
X3.475Y-4.075
X3.575Y-3.775
X3.575Y-4.075
X3.675Y-3.775
X3.675Y-4.075
X3.775Y-3.775
X3.775Y-4.075
X6.0843Y-5.125
X6.0843Y-5.425
X6.1843Y-5.125
X6.1843Y-5.425
X6.2843Y-5.125
X6.2843Y-5.425
X6.3843Y-5.125
X6.3843Y-5.425
X6.4843Y-5.125
X6.4843Y-5.425
X6.5843Y-5.125
X6.5843Y-5.425
X6.6843Y-5.125
X6.6843Y-5.425
X2.4482Y-1.525
X2.4482Y-1.825
X2.5482Y-1.525
X2.5482Y-1.825
X2.6482Y-1.525
X2.6482Y-1.825
X2.7482Y-1.525
X2.7482Y-1.825
X2.8482Y-1.525
X2.8482Y-1.825
X2.9482Y-1.525
X2.9482Y-1.825
X3.0482Y-1.525
X3.0482Y-1.825
X5.35Y-2.425
X5.35Y-2.725
X5.45Y-2.425
X5.45Y-2.725
X5.55Y-2.425
X5.55Y-2.725
X5.65Y-2.425
X5.65Y-2.725
X5.75Y-2.425
X5.75Y-2.725
X5.85Y-2.425
X5.85Y-2.725
X5.95Y-2.425
X5.95Y-2.725
X3.175Y-2.425
X3.175Y-2.725
X3.275Y-2.425
X3.275Y-2.725
X3.375Y-2.425
X3.375Y-2.725
X3.475Y-2.425
X3.475Y-2.725
X3.575Y-2.425
X3.575Y-2.725
X3.675Y-2.425
X3.675Y-2.725
X3.775Y-2.425
X3.775Y-2.725
X6.8Y-1.525
X6.8Y-1.825
X6.9Y-1.525
X6.9Y-1.825
X7.Y-1.525
X7.Y-1.825
X7.1Y-1.525
X7.1Y-1.825
X7.2Y-1.525
X7.2Y-1.825
X7.3Y-1.525
X7.3Y-1.825
X7.4Y-1.525
X7.4Y-1.825
T3
X5.1Y-1.3
X5.2Y-1.3
X5.3Y-1.3
X5.4Y-1.3
X4.075Y-1.3
X4.175Y-1.3
X4.275Y-1.3
X4.375Y-1.3
X4.475Y-1.3
X4.575Y-1.3
X4.675Y-1.3
X4.775Y-1.3
X3.25Y-1.3
X3.35Y-1.3
X3.45Y-1.3
X3.55Y-1.3
X3.65Y-1.3
X3.75Y-1.3
X3.85Y-1.3
X3.95Y-1.3
X6.7Y-1.3
X6.8Y-1.3
X6.9Y-1.3
X7.Y-1.3
X7.1Y-1.3
X7.2Y-1.3
X7.3Y-1.3
X7.4Y-1.3
X1.525Y-1.525
X1.525Y-1.625
X1.525Y-1.725
X1.525Y-1.825
X1.525Y-1.925
X1.525Y-2.025
X1.525Y-2.125
X1.525Y-2.225
X1.525Y-2.325
X1.525Y-2.425
X1.525Y-2.525
X1.525Y-2.625
X1.525Y-2.725
X1.525Y-2.825
X1.525Y-2.925
X1.525Y-3.025
X1.525Y-3.125
X1.525Y-3.225
X1.525Y-3.325
X1.525Y-3.425
X1.525Y-3.525
X1.525Y-3.625
X1.525Y-3.725
X1.525Y-3.825
X1.525Y-3.925
X1.525Y-4.025
X1.525Y-4.125
X1.525Y-4.225
X1.525Y-4.325
X1.525Y-4.425
X1.525Y-4.525
X1.525Y-4.625
X1.525Y-4.725
X1.525Y-4.825
X1.525Y-4.925
X1.525Y-5.025
X1.525Y-5.125
X1.525Y-5.225
X1.525Y-5.325
X1.525Y-5.425
X1.525Y-5.55
X1.525Y-5.65
X1.525Y-5.75
X1.525Y-5.85
X1.525Y-5.95
X1.525Y-6.05
X1.525Y-6.15
X1.525Y-6.25
T0
M30
