G04 #@! TF.GenerationSoftware,KiCad,Pcbnew,(5.0.0)*
G04 #@! TF.CreationDate,2018-09-20T19:37:14-04:00*
G04 #@! TF.ProjectId,Register,52656769737465722E6B696361645F70,rev?*
G04 #@! TF.SameCoordinates,Original*
G04 #@! TF.FileFunction,Legend,Top*
G04 #@! TF.FilePolarity,Positive*
%FSLAX46Y46*%
G04 Gerber Fmt 4.6, Leading zero omitted, Abs format (unit mm)*
G04 Created by KiCad (PCBNEW (5.0.0)) date 09/20/18 19:37:14*
%MOMM*%
%LPD*%
G01*
G04 APERTURE LIST*
%ADD10C,0.300000*%
%ADD11C,0.150000*%
%ADD12C,0.010000*%
G04 APERTURE END LIST*
D10*
X168032857Y-78061428D02*
X168032857Y-79561428D01*
X167675714Y-79561428D01*
X167461428Y-79490000D01*
X167318571Y-79347142D01*
X167247142Y-79204285D01*
X167175714Y-78918571D01*
X167175714Y-78704285D01*
X167247142Y-78418571D01*
X167318571Y-78275714D01*
X167461428Y-78132857D01*
X167675714Y-78061428D01*
X168032857Y-78061428D01*
X82613571Y-82998571D02*
X82756428Y-83070000D01*
X82899285Y-83212857D01*
X83113571Y-83427142D01*
X83256428Y-83498571D01*
X83399285Y-83498571D01*
X83327857Y-83141428D02*
X83470714Y-83212857D01*
X83613571Y-83355714D01*
X83685000Y-83641428D01*
X83685000Y-84141428D01*
X83613571Y-84427142D01*
X83470714Y-84570000D01*
X83327857Y-84641428D01*
X83042142Y-84641428D01*
X82899285Y-84570000D01*
X82756428Y-84427142D01*
X82685000Y-84141428D01*
X82685000Y-83641428D01*
X82756428Y-83355714D01*
X82899285Y-83212857D01*
X83042142Y-83141428D01*
X83327857Y-83141428D01*
X126559285Y-85681428D02*
X127059285Y-86395714D01*
X127416428Y-85681428D02*
X127416428Y-87181428D01*
X126845000Y-87181428D01*
X126702142Y-87110000D01*
X126630714Y-87038571D01*
X126559285Y-86895714D01*
X126559285Y-86681428D01*
X126630714Y-86538571D01*
X126702142Y-86467142D01*
X126845000Y-86395714D01*
X127416428Y-86395714D01*
X125345000Y-85752857D02*
X125487857Y-85681428D01*
X125773571Y-85681428D01*
X125916428Y-85752857D01*
X125987857Y-85895714D01*
X125987857Y-86467142D01*
X125916428Y-86610000D01*
X125773571Y-86681428D01*
X125487857Y-86681428D01*
X125345000Y-86610000D01*
X125273571Y-86467142D01*
X125273571Y-86324285D01*
X125987857Y-86181428D01*
X124773571Y-86681428D02*
X124416428Y-85681428D01*
X124059285Y-86681428D01*
X122702142Y-85681428D02*
X123559285Y-85681428D01*
X123130714Y-85681428D02*
X123130714Y-87181428D01*
X123273571Y-86967142D01*
X123416428Y-86824285D01*
X123559285Y-86752857D01*
X135816666Y-89221666D02*
X135816666Y-92721666D01*
X134983333Y-92721666D01*
X134483333Y-92555000D01*
X134150000Y-92221666D01*
X133983333Y-91888333D01*
X133816666Y-91221666D01*
X133816666Y-90721666D01*
X133983333Y-90055000D01*
X134150000Y-89721666D01*
X134483333Y-89388333D01*
X134983333Y-89221666D01*
X135816666Y-89221666D01*
X130816666Y-89221666D02*
X130816666Y-91055000D01*
X130983333Y-91388333D01*
X131316666Y-91555000D01*
X131983333Y-91555000D01*
X132316666Y-91388333D01*
X130816666Y-89388333D02*
X131150000Y-89221666D01*
X131983333Y-89221666D01*
X132316666Y-89388333D01*
X132483333Y-89721666D01*
X132483333Y-90055000D01*
X132316666Y-90388333D01*
X131983333Y-90555000D01*
X131150000Y-90555000D01*
X130816666Y-90721666D01*
X129150000Y-91555000D02*
X129150000Y-89221666D01*
X129150000Y-91221666D02*
X128983333Y-91388333D01*
X128650000Y-91555000D01*
X128150000Y-91555000D01*
X127816666Y-91388333D01*
X127650000Y-91055000D01*
X127650000Y-89221666D01*
X125983333Y-89221666D02*
X125983333Y-91555000D01*
X125983333Y-92721666D02*
X126150000Y-92555000D01*
X125983333Y-92388333D01*
X125816666Y-92555000D01*
X125983333Y-92721666D01*
X125983333Y-92388333D01*
X122983333Y-89388333D02*
X123316666Y-89221666D01*
X123983333Y-89221666D01*
X124316666Y-89388333D01*
X124483333Y-89721666D01*
X124483333Y-91055000D01*
X124316666Y-91388333D01*
X123983333Y-91555000D01*
X123316666Y-91555000D01*
X122983333Y-91388333D01*
X122816666Y-91055000D01*
X122816666Y-90721666D01*
X124483333Y-90388333D01*
X120816666Y-89221666D02*
X121150000Y-89388333D01*
X121316666Y-89721666D01*
X121316666Y-92721666D01*
X116816666Y-89221666D02*
X116816666Y-92721666D01*
X114816666Y-89221666D02*
X116316666Y-91221666D01*
X114816666Y-92721666D02*
X116816666Y-90721666D01*
X112816666Y-89221666D02*
X113150000Y-89388333D01*
X113316666Y-89555000D01*
X113483333Y-89888333D01*
X113483333Y-90888333D01*
X113316666Y-91221666D01*
X113150000Y-91388333D01*
X112816666Y-91555000D01*
X112316666Y-91555000D01*
X111983333Y-91388333D01*
X111816666Y-91221666D01*
X111650000Y-90888333D01*
X111650000Y-89888333D01*
X111816666Y-89555000D01*
X111983333Y-89388333D01*
X112316666Y-89221666D01*
X112816666Y-89221666D01*
X110150000Y-91555000D02*
X110150000Y-88055000D01*
X110150000Y-91388333D02*
X109816666Y-91555000D01*
X109150000Y-91555000D01*
X108816666Y-91388333D01*
X108650000Y-91221666D01*
X108483333Y-90888333D01*
X108483333Y-89888333D01*
X108650000Y-89555000D01*
X108816666Y-89388333D01*
X109150000Y-89221666D01*
X109816666Y-89221666D01*
X110150000Y-89388333D01*
X106983333Y-91555000D02*
X106983333Y-88055000D01*
X106983333Y-91388333D02*
X106650000Y-91555000D01*
X105983333Y-91555000D01*
X105650000Y-91388333D01*
X105483333Y-91221666D01*
X105316666Y-90888333D01*
X105316666Y-89888333D01*
X105483333Y-89555000D01*
X105650000Y-89388333D01*
X105983333Y-89221666D01*
X106650000Y-89221666D01*
X106983333Y-89388333D01*
D11*
G04 #@! TO.C,J1*
X81935000Y-95230000D02*
X81935000Y-85110000D01*
X81935000Y-85110000D02*
X84435000Y-85110000D01*
X84435000Y-85110000D02*
X84435000Y-95230000D01*
X84435000Y-95230000D02*
X81935000Y-95230000D01*
X81935000Y-92710000D02*
X84435000Y-92710000D01*
G04 #@! TO.C,J2*
X166390000Y-100310000D02*
X166390000Y-80030000D01*
X166390000Y-80030000D02*
X168890000Y-80030000D01*
X168890000Y-80030000D02*
X168890000Y-100310000D01*
X168890000Y-100310000D02*
X166390000Y-100310000D01*
X166390000Y-97790000D02*
X168890000Y-97790000D01*
G04 #@! TO.C,U1*
X106215000Y-80874999D02*
X123655000Y-80875000D01*
X123655000Y-80875000D02*
X123655000Y-70255001D01*
X123655000Y-70255001D02*
X106215000Y-70255000D01*
X106215000Y-70255000D02*
X106215000Y-73795000D01*
X106215000Y-73795000D02*
X106665000Y-73795000D01*
X106665000Y-73795000D02*
X106665000Y-77334999D01*
X106665000Y-77334999D02*
X106215000Y-77334999D01*
X106215000Y-77334999D02*
X106215000Y-80874999D01*
G04 #@! TO.C,U2*
X106215000Y-107179999D02*
X106215000Y-110719999D01*
X106665000Y-107179999D02*
X106215000Y-107179999D01*
X106665000Y-103640000D02*
X106665000Y-107179999D01*
X106215000Y-103640000D02*
X106665000Y-103640000D01*
X106215000Y-100100000D02*
X106215000Y-103640000D01*
X123655000Y-100100001D02*
X106215000Y-100100000D01*
X123655000Y-110720000D02*
X123655000Y-100100001D01*
X106215000Y-110719999D02*
X123655000Y-110720000D01*
G04 #@! TO.C,U3*
X85260000Y-95479999D02*
X102700000Y-95480000D01*
X102700000Y-95480000D02*
X102700000Y-84860001D01*
X102700000Y-84860001D02*
X85260000Y-84860000D01*
X85260000Y-84860000D02*
X85260000Y-88400000D01*
X85260000Y-88400000D02*
X85710000Y-88400000D01*
X85710000Y-88400000D02*
X85710000Y-91939999D01*
X85710000Y-91939999D02*
X85260000Y-91939999D01*
X85260000Y-91939999D02*
X85260000Y-95479999D01*
G04 #@! TO.C,U4*
X148125000Y-77334999D02*
X148125000Y-80874999D01*
X148575000Y-77334999D02*
X148125000Y-77334999D01*
X148575000Y-73795000D02*
X148575000Y-77334999D01*
X148125000Y-73795000D02*
X148575000Y-73795000D01*
X148125000Y-70255000D02*
X148125000Y-73795000D01*
X165565000Y-70255001D02*
X148125000Y-70255000D01*
X165565000Y-80875000D02*
X165565000Y-70255001D01*
X148125000Y-80874999D02*
X165565000Y-80875000D01*
G04 #@! TO.C,U5*
X126535000Y-80874999D02*
X143975000Y-80875000D01*
X143975000Y-80875000D02*
X143975000Y-70255001D01*
X143975000Y-70255001D02*
X126535000Y-70255000D01*
X126535000Y-70255000D02*
X126535000Y-73795000D01*
X126535000Y-73795000D02*
X126985000Y-73795000D01*
X126985000Y-73795000D02*
X126985000Y-77334999D01*
X126985000Y-77334999D02*
X126535000Y-77334999D01*
X126535000Y-77334999D02*
X126535000Y-80874999D01*
G04 #@! TO.C,U6*
X148125000Y-107179999D02*
X148125000Y-110719999D01*
X148575000Y-107179999D02*
X148125000Y-107179999D01*
X148575000Y-103640000D02*
X148575000Y-107179999D01*
X148125000Y-103640000D02*
X148575000Y-103640000D01*
X148125000Y-100100000D02*
X148125000Y-103640000D01*
X165565000Y-100100001D02*
X148125000Y-100100000D01*
X165565000Y-110720000D02*
X165565000Y-100100001D01*
X148125000Y-110719999D02*
X165565000Y-110720000D01*
G04 #@! TO.C,U7*
X85260000Y-80874999D02*
X102700000Y-80875000D01*
X102700000Y-80875000D02*
X102700000Y-70255001D01*
X102700000Y-70255001D02*
X85260000Y-70255000D01*
X85260000Y-70255000D02*
X85260000Y-73795000D01*
X85260000Y-73795000D02*
X85710000Y-73795000D01*
X85710000Y-73795000D02*
X85710000Y-77334999D01*
X85710000Y-77334999D02*
X85260000Y-77334999D01*
X85260000Y-77334999D02*
X85260000Y-80874999D01*
G04 #@! TO.C,U8*
X127170000Y-107179999D02*
X127170000Y-110719999D01*
X127620000Y-107179999D02*
X127170000Y-107179999D01*
X127620000Y-103640000D02*
X127620000Y-107179999D01*
X127170000Y-103640000D02*
X127620000Y-103640000D01*
X127170000Y-100100000D02*
X127170000Y-103640000D01*
X144610000Y-100100001D02*
X127170000Y-100100000D01*
X144610000Y-110720000D02*
X144610000Y-100100001D01*
X127170000Y-110719999D02*
X144610000Y-110720000D01*
G04 #@! TO.C,U9*
X85260000Y-110719999D02*
X102700000Y-110720000D01*
X102700000Y-110720000D02*
X102700000Y-100100001D01*
X102700000Y-100100001D02*
X85260000Y-100100000D01*
X85260000Y-100100000D02*
X85260000Y-103640000D01*
X85260000Y-103640000D02*
X85710000Y-103640000D01*
X85710000Y-103640000D02*
X85710000Y-107179999D01*
X85710000Y-107179999D02*
X85260000Y-107179999D01*
X85260000Y-107179999D02*
X85260000Y-110719999D01*
G04 #@! TO.C,U10*
X148125000Y-91939999D02*
X148125000Y-95479999D01*
X148575000Y-91939999D02*
X148125000Y-91939999D01*
X148575000Y-88400000D02*
X148575000Y-91939999D01*
X148125000Y-88400000D02*
X148575000Y-88400000D01*
X148125000Y-84860000D02*
X148125000Y-88400000D01*
X165565000Y-84860001D02*
X148125000Y-84860000D01*
X165565000Y-95480000D02*
X165565000Y-84860001D01*
X148125000Y-95479999D02*
X165565000Y-95480000D01*
D12*
G04 #@! TO.C,G\002A\002A\002A*
G36*
X139998757Y-93834566D02*
X139996334Y-93815663D01*
X140057878Y-93700996D01*
X140081000Y-93683666D01*
X140153484Y-93702860D01*
X140165667Y-93763336D01*
X140121463Y-93879179D01*
X140081000Y-93895333D01*
X139998757Y-93834566D01*
X139998757Y-93834566D01*
G37*
X139998757Y-93834566D02*
X139996334Y-93815663D01*
X140057878Y-93700996D01*
X140081000Y-93683666D01*
X140153484Y-93702860D01*
X140165667Y-93763336D01*
X140121463Y-93879179D01*
X140081000Y-93895333D01*
X139998757Y-93834566D01*
G36*
X139599830Y-93233875D02*
X139589737Y-93101551D01*
X139606514Y-93071597D01*
X139644996Y-93096848D01*
X139650983Y-93182722D01*
X139630306Y-93273064D01*
X139599830Y-93233875D01*
X139599830Y-93233875D01*
G37*
X139599830Y-93233875D02*
X139589737Y-93101551D01*
X139606514Y-93071597D01*
X139644996Y-93096848D01*
X139650983Y-93182722D01*
X139630306Y-93273064D01*
X139599830Y-93233875D01*
G36*
X139511264Y-92930486D02*
X139536515Y-92892004D01*
X139622389Y-92886017D01*
X139712732Y-92906695D01*
X139673542Y-92937170D01*
X139541218Y-92947264D01*
X139511264Y-92930486D01*
X139511264Y-92930486D01*
G37*
X139511264Y-92930486D02*
X139536515Y-92892004D01*
X139622389Y-92886017D01*
X139712732Y-92906695D01*
X139673542Y-92937170D01*
X139541218Y-92947264D01*
X139511264Y-92930486D01*
G36*
X140708036Y-92838287D02*
X140716000Y-92794666D01*
X140824243Y-92713229D01*
X140847997Y-92710000D01*
X140925387Y-92774579D01*
X140927667Y-92794666D01*
X140858752Y-92868971D01*
X140795670Y-92879333D01*
X140708036Y-92838287D01*
X140708036Y-92838287D01*
G37*
X140708036Y-92838287D02*
X140716000Y-92794666D01*
X140824243Y-92713229D01*
X140847997Y-92710000D01*
X140925387Y-92774579D01*
X140927667Y-92794666D01*
X140858752Y-92868971D01*
X140795670Y-92879333D01*
X140708036Y-92838287D01*
G36*
X143249220Y-89198842D02*
X143256000Y-89154000D01*
X143328421Y-89073317D01*
X143340667Y-89069333D01*
X143407981Y-89128385D01*
X143425334Y-89154000D01*
X143405228Y-89225729D01*
X143340667Y-89238666D01*
X143249220Y-89198842D01*
X143249220Y-89198842D01*
G37*
X143249220Y-89198842D02*
X143256000Y-89154000D01*
X143328421Y-89073317D01*
X143340667Y-89069333D01*
X143407981Y-89128385D01*
X143425334Y-89154000D01*
X143405228Y-89225729D01*
X143340667Y-89238666D01*
X143249220Y-89198842D01*
G36*
X144387060Y-87050704D02*
X144295837Y-86890148D01*
X144290319Y-86720332D01*
X144290497Y-86719833D01*
X144396824Y-86631356D01*
X144568316Y-86621902D01*
X144723352Y-86686069D01*
X144772403Y-86751731D01*
X144765451Y-86932419D01*
X144648009Y-87079737D01*
X144518612Y-87122000D01*
X144387060Y-87050704D01*
X144387060Y-87050704D01*
G37*
X144387060Y-87050704D02*
X144295837Y-86890148D01*
X144290319Y-86720332D01*
X144290497Y-86719833D01*
X144396824Y-86631356D01*
X144568316Y-86621902D01*
X144723352Y-86686069D01*
X144772403Y-86751731D01*
X144765451Y-86932419D01*
X144648009Y-87079737D01*
X144518612Y-87122000D01*
X144387060Y-87050704D01*
G36*
X138590757Y-87028037D02*
X138601474Y-86900965D01*
X138694261Y-86777776D01*
X138828722Y-86665676D01*
X138918655Y-86675871D01*
X138970172Y-86728755D01*
X139019296Y-86839107D01*
X138937584Y-86945395D01*
X138881985Y-86986587D01*
X138694509Y-87067977D01*
X138590757Y-87028037D01*
X138590757Y-87028037D01*
G37*
X138590757Y-87028037D02*
X138601474Y-86900965D01*
X138694261Y-86777776D01*
X138828722Y-86665676D01*
X138918655Y-86675871D01*
X138970172Y-86728755D01*
X139019296Y-86839107D01*
X138937584Y-86945395D01*
X138881985Y-86986587D01*
X138694509Y-87067977D01*
X138590757Y-87028037D01*
G36*
X141045196Y-85980678D02*
X140937364Y-85859098D01*
X140971878Y-85720813D01*
X140979075Y-85708792D01*
X141141262Y-85554430D01*
X141323430Y-85549184D01*
X141416263Y-85612462D01*
X141506367Y-85784187D01*
X141467494Y-85938336D01*
X141338672Y-86036179D01*
X141158930Y-86038988D01*
X141045196Y-85980678D01*
X141045196Y-85980678D01*
G37*
X141045196Y-85980678D02*
X140937364Y-85859098D01*
X140971878Y-85720813D01*
X140979075Y-85708792D01*
X141141262Y-85554430D01*
X141323430Y-85549184D01*
X141416263Y-85612462D01*
X141506367Y-85784187D01*
X141467494Y-85938336D01*
X141338672Y-86036179D01*
X141158930Y-86038988D01*
X141045196Y-85980678D01*
G36*
X137202334Y-95123000D02*
X137244667Y-95080666D01*
X137287000Y-95123000D01*
X137244667Y-95165333D01*
X137202334Y-95123000D01*
X137202334Y-95123000D01*
G37*
X137202334Y-95123000D02*
X137244667Y-95080666D01*
X137287000Y-95123000D01*
X137244667Y-95165333D01*
X137202334Y-95123000D01*
G36*
X138585223Y-95137111D02*
X138596845Y-95086777D01*
X138641667Y-95080666D01*
X138711357Y-95111645D01*
X138698112Y-95137111D01*
X138597632Y-95147244D01*
X138585223Y-95137111D01*
X138585223Y-95137111D01*
G37*
X138585223Y-95137111D02*
X138596845Y-95086777D01*
X138641667Y-95080666D01*
X138711357Y-95111645D01*
X138698112Y-95137111D01*
X138597632Y-95147244D01*
X138585223Y-95137111D01*
G36*
X138839223Y-95137111D02*
X138850845Y-95086777D01*
X138895667Y-95080666D01*
X138965357Y-95111645D01*
X138952112Y-95137111D01*
X138851632Y-95147244D01*
X138839223Y-95137111D01*
X138839223Y-95137111D01*
G37*
X138839223Y-95137111D02*
X138850845Y-95086777D01*
X138895667Y-95080666D01*
X138965357Y-95111645D01*
X138952112Y-95137111D01*
X138851632Y-95147244D01*
X138839223Y-95137111D01*
G36*
X139234334Y-95123000D02*
X139276667Y-95080666D01*
X139319000Y-95123000D01*
X139276667Y-95165333D01*
X139234334Y-95123000D01*
X139234334Y-95123000D01*
G37*
X139234334Y-95123000D02*
X139276667Y-95080666D01*
X139319000Y-95123000D01*
X139276667Y-95165333D01*
X139234334Y-95123000D01*
G36*
X139657667Y-95123000D02*
X139700000Y-95080666D01*
X139742334Y-95123000D01*
X139700000Y-95165333D01*
X139657667Y-95123000D01*
X139657667Y-95123000D01*
G37*
X139657667Y-95123000D02*
X139700000Y-95080666D01*
X139742334Y-95123000D01*
X139700000Y-95165333D01*
X139657667Y-95123000D01*
G36*
X140369370Y-95143599D02*
X140358056Y-95142456D01*
X140277940Y-95126757D01*
X140350477Y-95114847D01*
X140558998Y-95108802D01*
X140631334Y-95108449D01*
X140878492Y-95112179D01*
X141000761Y-95122680D01*
X140978197Y-95137872D01*
X140950722Y-95141773D01*
X140670740Y-95155988D01*
X140369370Y-95143599D01*
X140369370Y-95143599D01*
G37*
X140369370Y-95143599D02*
X140358056Y-95142456D01*
X140277940Y-95126757D01*
X140350477Y-95114847D01*
X140558998Y-95108802D01*
X140631334Y-95108449D01*
X140878492Y-95112179D01*
X141000761Y-95122680D01*
X140978197Y-95137872D01*
X140950722Y-95141773D01*
X140670740Y-95155988D01*
X140369370Y-95143599D01*
G36*
X141266334Y-95123000D02*
X141308667Y-95080666D01*
X141351000Y-95123000D01*
X141308667Y-95165333D01*
X141266334Y-95123000D01*
X141266334Y-95123000D01*
G37*
X141266334Y-95123000D02*
X141308667Y-95080666D01*
X141351000Y-95123000D01*
X141308667Y-95165333D01*
X141266334Y-95123000D01*
G36*
X141689667Y-95123000D02*
X141732000Y-95080666D01*
X141774334Y-95123000D01*
X141732000Y-95165333D01*
X141689667Y-95123000D01*
X141689667Y-95123000D01*
G37*
X141689667Y-95123000D02*
X141732000Y-95080666D01*
X141774334Y-95123000D01*
X141732000Y-95165333D01*
X141689667Y-95123000D01*
G36*
X142141223Y-95137111D02*
X142152845Y-95086777D01*
X142197667Y-95080666D01*
X142267357Y-95111645D01*
X142254112Y-95137111D01*
X142153632Y-95147244D01*
X142141223Y-95137111D01*
X142141223Y-95137111D01*
G37*
X142141223Y-95137111D02*
X142152845Y-95086777D01*
X142197667Y-95080666D01*
X142267357Y-95111645D01*
X142254112Y-95137111D01*
X142153632Y-95147244D01*
X142141223Y-95137111D01*
G36*
X142536334Y-95123000D02*
X142578667Y-95080666D01*
X142621000Y-95123000D01*
X142578667Y-95165333D01*
X142536334Y-95123000D01*
X142536334Y-95123000D01*
G37*
X142536334Y-95123000D02*
X142578667Y-95080666D01*
X142621000Y-95123000D01*
X142578667Y-95165333D01*
X142536334Y-95123000D01*
G36*
X144716500Y-95136740D02*
X144705864Y-95105837D01*
X144822334Y-95094035D01*
X144942529Y-95107340D01*
X144928167Y-95136740D01*
X144754825Y-95147922D01*
X144716500Y-95136740D01*
X144716500Y-95136740D01*
G37*
X144716500Y-95136740D02*
X144705864Y-95105837D01*
X144822334Y-95094035D01*
X144942529Y-95107340D01*
X144928167Y-95136740D01*
X144754825Y-95147922D01*
X144716500Y-95136740D01*
G36*
X145393834Y-95140419D02*
X145353711Y-95119481D01*
X145460085Y-95106196D01*
X145584334Y-95103727D01*
X145767455Y-95110332D01*
X145817724Y-95127218D01*
X145774834Y-95140419D01*
X145528117Y-95154426D01*
X145393834Y-95140419D01*
X145393834Y-95140419D01*
G37*
X145393834Y-95140419D02*
X145353711Y-95119481D01*
X145460085Y-95106196D01*
X145584334Y-95103727D01*
X145767455Y-95110332D01*
X145817724Y-95127218D01*
X145774834Y-95140419D01*
X145528117Y-95154426D01*
X145393834Y-95140419D01*
G36*
X146007667Y-95123000D02*
X146050000Y-95080666D01*
X146092334Y-95123000D01*
X146050000Y-95165333D01*
X146007667Y-95123000D01*
X146007667Y-95123000D01*
G37*
X146007667Y-95123000D02*
X146050000Y-95080666D01*
X146092334Y-95123000D01*
X146050000Y-95165333D01*
X146007667Y-95123000D01*
G36*
X137320282Y-94943121D02*
X137414000Y-94826666D01*
X137541230Y-94701450D01*
X137609578Y-94657333D01*
X137592386Y-94710212D01*
X137498667Y-94826666D01*
X137371437Y-94951883D01*
X137303089Y-94996000D01*
X137320282Y-94943121D01*
X137320282Y-94943121D01*
G37*
X137320282Y-94943121D02*
X137414000Y-94826666D01*
X137541230Y-94701450D01*
X137609578Y-94657333D01*
X137592386Y-94710212D01*
X137498667Y-94826666D01*
X137371437Y-94951883D01*
X137303089Y-94996000D01*
X137320282Y-94943121D01*
G36*
X143806334Y-94615000D02*
X143848667Y-94572666D01*
X143891000Y-94615000D01*
X143848667Y-94657333D01*
X143806334Y-94615000D01*
X143806334Y-94615000D01*
G37*
X143806334Y-94615000D02*
X143848667Y-94572666D01*
X143891000Y-94615000D01*
X143848667Y-94657333D01*
X143806334Y-94615000D01*
G36*
X142799573Y-94504050D02*
X142790334Y-94445666D01*
X142808448Y-94332704D01*
X142823609Y-94318666D01*
X142878202Y-94384872D01*
X142905618Y-94445666D01*
X142907378Y-94554688D01*
X142872343Y-94572666D01*
X142799573Y-94504050D01*
X142799573Y-94504050D01*
G37*
X142799573Y-94504050D02*
X142790334Y-94445666D01*
X142808448Y-94332704D01*
X142823609Y-94318666D01*
X142878202Y-94384872D01*
X142905618Y-94445666D01*
X142907378Y-94554688D01*
X142872343Y-94572666D01*
X142799573Y-94504050D01*
G36*
X143552334Y-94361000D02*
X143594667Y-94318666D01*
X143637000Y-94361000D01*
X143594667Y-94403333D01*
X143552334Y-94361000D01*
X143552334Y-94361000D01*
G37*
X143552334Y-94361000D02*
X143594667Y-94318666D01*
X143637000Y-94361000D01*
X143594667Y-94403333D01*
X143552334Y-94361000D01*
G36*
X137743615Y-94435121D02*
X137837334Y-94318666D01*
X137964564Y-94193450D01*
X138032912Y-94149333D01*
X138015719Y-94202212D01*
X137922000Y-94318666D01*
X137794771Y-94443883D01*
X137726423Y-94488000D01*
X137743615Y-94435121D01*
X137743615Y-94435121D01*
G37*
X137743615Y-94435121D02*
X137837334Y-94318666D01*
X137964564Y-94193450D01*
X138032912Y-94149333D01*
X138015719Y-94202212D01*
X137922000Y-94318666D01*
X137794771Y-94443883D01*
X137726423Y-94488000D01*
X137743615Y-94435121D01*
G36*
X145161000Y-94191666D02*
X145203334Y-94149333D01*
X145245667Y-94191666D01*
X145203334Y-94234000D01*
X145161000Y-94191666D01*
X145161000Y-94191666D01*
G37*
X145161000Y-94191666D02*
X145203334Y-94149333D01*
X145245667Y-94191666D01*
X145203334Y-94234000D01*
X145161000Y-94191666D01*
G36*
X143615834Y-94893477D02*
X143130177Y-94887483D01*
X142760796Y-94880073D01*
X142518846Y-94871745D01*
X142415486Y-94862999D01*
X142461871Y-94854334D01*
X142602979Y-94848147D01*
X143000673Y-94828090D01*
X143277481Y-94798117D01*
X143414246Y-94760776D01*
X143423482Y-94739003D01*
X143433094Y-94663162D01*
X143462670Y-94657333D01*
X143548888Y-94718794D01*
X143552334Y-94742000D01*
X143633374Y-94779992D01*
X143862390Y-94807856D01*
X144218226Y-94823703D01*
X144500276Y-94826666D01*
X145448218Y-94826666D01*
X145170444Y-94540076D01*
X144981438Y-94303097D01*
X144924967Y-94106890D01*
X144930638Y-94053243D01*
X144959133Y-93917922D01*
X144972301Y-93943787D01*
X144980137Y-94069993D01*
X145047359Y-94266792D01*
X145199615Y-94482827D01*
X145245667Y-94530333D01*
X145404306Y-94697493D01*
X145492940Y-94820343D01*
X145499667Y-94842507D01*
X145419018Y-94861628D01*
X145193086Y-94877120D01*
X144845898Y-94888332D01*
X144401478Y-94894615D01*
X143883851Y-94895318D01*
X143615834Y-94893477D01*
X143615834Y-94893477D01*
G37*
X143615834Y-94893477D02*
X143130177Y-94887483D01*
X142760796Y-94880073D01*
X142518846Y-94871745D01*
X142415486Y-94862999D01*
X142461871Y-94854334D01*
X142602979Y-94848147D01*
X143000673Y-94828090D01*
X143277481Y-94798117D01*
X143414246Y-94760776D01*
X143423482Y-94739003D01*
X143433094Y-94663162D01*
X143462670Y-94657333D01*
X143548888Y-94718794D01*
X143552334Y-94742000D01*
X143633374Y-94779992D01*
X143862390Y-94807856D01*
X144218226Y-94823703D01*
X144500276Y-94826666D01*
X145448218Y-94826666D01*
X145170444Y-94540076D01*
X144981438Y-94303097D01*
X144924967Y-94106890D01*
X144930638Y-94053243D01*
X144959133Y-93917922D01*
X144972301Y-93943787D01*
X144980137Y-94069993D01*
X145047359Y-94266792D01*
X145199615Y-94482827D01*
X145245667Y-94530333D01*
X145404306Y-94697493D01*
X145492940Y-94820343D01*
X145499667Y-94842507D01*
X145419018Y-94861628D01*
X145193086Y-94877120D01*
X144845898Y-94888332D01*
X144401478Y-94894615D01*
X143883851Y-94895318D01*
X143615834Y-94893477D01*
G36*
X142901830Y-93995875D02*
X142891737Y-93863551D01*
X142908514Y-93833597D01*
X142946996Y-93858848D01*
X142952983Y-93944722D01*
X142932306Y-94035064D01*
X142901830Y-93995875D01*
X142901830Y-93995875D01*
G37*
X142901830Y-93995875D02*
X142891737Y-93863551D01*
X142908514Y-93833597D01*
X142946996Y-93858848D01*
X142952983Y-93944722D01*
X142932306Y-94035064D01*
X142901830Y-93995875D01*
G36*
X144596556Y-93697778D02*
X144586423Y-93597298D01*
X144596556Y-93584889D01*
X144646890Y-93596511D01*
X144653000Y-93641333D01*
X144622022Y-93711023D01*
X144596556Y-93697778D01*
X144596556Y-93697778D01*
G37*
X144596556Y-93697778D02*
X144586423Y-93597298D01*
X144596556Y-93584889D01*
X144646890Y-93596511D01*
X144653000Y-93641333D01*
X144622022Y-93711023D01*
X144596556Y-93697778D01*
G36*
X143383000Y-93345000D02*
X143425334Y-93302666D01*
X143467667Y-93345000D01*
X143425334Y-93387333D01*
X143383000Y-93345000D01*
X143383000Y-93345000D01*
G37*
X143383000Y-93345000D02*
X143425334Y-93302666D01*
X143467667Y-93345000D01*
X143425334Y-93387333D01*
X143383000Y-93345000D01*
G36*
X142621000Y-93260333D02*
X142663334Y-93218000D01*
X142705667Y-93260333D01*
X142663334Y-93302666D01*
X142621000Y-93260333D01*
X142621000Y-93260333D01*
G37*
X142621000Y-93260333D02*
X142663334Y-93218000D01*
X142705667Y-93260333D01*
X142663334Y-93302666D01*
X142621000Y-93260333D01*
G36*
X138073915Y-93662500D02*
X138059908Y-93415783D01*
X138073915Y-93281500D01*
X138094853Y-93241377D01*
X138108137Y-93347751D01*
X138110607Y-93472000D01*
X138104002Y-93655121D01*
X138087116Y-93705390D01*
X138073915Y-93662500D01*
X138073915Y-93662500D01*
G37*
X138073915Y-93662500D02*
X138059908Y-93415783D01*
X138073915Y-93281500D01*
X138094853Y-93241377D01*
X138108137Y-93347751D01*
X138110607Y-93472000D01*
X138104002Y-93655121D01*
X138087116Y-93705390D01*
X138073915Y-93662500D01*
G36*
X143129000Y-93175666D02*
X143171334Y-93133333D01*
X143213667Y-93175666D01*
X143171334Y-93218000D01*
X143129000Y-93175666D01*
X143129000Y-93175666D01*
G37*
X143129000Y-93175666D02*
X143171334Y-93133333D01*
X143213667Y-93175666D01*
X143171334Y-93218000D01*
X143129000Y-93175666D01*
G36*
X144845892Y-93578342D02*
X144845640Y-93576317D01*
X144831813Y-93300206D01*
X144846504Y-93068317D01*
X144864146Y-93021550D01*
X144876464Y-93122289D01*
X144880765Y-93345000D01*
X144875676Y-93562278D01*
X144863154Y-93645976D01*
X144845892Y-93578342D01*
X144845892Y-93578342D01*
G37*
X144845892Y-93578342D02*
X144845640Y-93576317D01*
X144831813Y-93300206D01*
X144846504Y-93068317D01*
X144864146Y-93021550D01*
X144876464Y-93122289D01*
X144880765Y-93345000D01*
X144875676Y-93562278D01*
X144863154Y-93645976D01*
X144845892Y-93578342D01*
G36*
X143919223Y-92343111D02*
X143930845Y-92292777D01*
X143975667Y-92286666D01*
X144045357Y-92317645D01*
X144032112Y-92343111D01*
X143931632Y-92353244D01*
X143919223Y-92343111D01*
X143919223Y-92343111D01*
G37*
X143919223Y-92343111D02*
X143930845Y-92292777D01*
X143975667Y-92286666D01*
X144045357Y-92317645D01*
X144032112Y-92343111D01*
X143931632Y-92353244D01*
X143919223Y-92343111D01*
G36*
X138159971Y-92519500D02*
X138146804Y-92304766D01*
X138159971Y-92223166D01*
X138184511Y-92196816D01*
X138197872Y-92313888D01*
X138198691Y-92371333D01*
X138189864Y-92525369D01*
X138167886Y-92543522D01*
X138159971Y-92519500D01*
X138159971Y-92519500D01*
G37*
X138159971Y-92519500D02*
X138146804Y-92304766D01*
X138159971Y-92223166D01*
X138184511Y-92196816D01*
X138197872Y-92313888D01*
X138198691Y-92371333D01*
X138189864Y-92525369D01*
X138167886Y-92543522D01*
X138159971Y-92519500D01*
G36*
X137978386Y-94556308D02*
X138090380Y-94409905D01*
X138170383Y-94276732D01*
X138226477Y-94122760D01*
X138266742Y-93913958D01*
X138299260Y-93616298D01*
X138332112Y-93195748D01*
X138345334Y-93011141D01*
X138430000Y-91821000D01*
X139975167Y-91797923D01*
X141520334Y-91774847D01*
X141520334Y-93338429D01*
X141307246Y-93338429D01*
X141295927Y-93324869D01*
X141196146Y-93340246D01*
X141055426Y-93341457D01*
X141043873Y-93258607D01*
X141048340Y-93246290D01*
X141141082Y-92964267D01*
X141148427Y-92795552D01*
X141067257Y-92705450D01*
X140997455Y-92680342D01*
X140784762Y-92645941D01*
X140507229Y-92627431D01*
X140444670Y-92626489D01*
X140218180Y-92615831D01*
X140105004Y-92557487D01*
X140049201Y-92408959D01*
X140029758Y-92311287D01*
X139988331Y-92118307D01*
X139954228Y-92075510D01*
X139908630Y-92165777D01*
X139898757Y-92192106D01*
X139860695Y-92371663D01*
X139874781Y-92464813D01*
X139837054Y-92532173D01*
X139680404Y-92590960D01*
X139663279Y-92594578D01*
X139482694Y-92663670D01*
X139403799Y-92759167D01*
X139403667Y-92762916D01*
X139359301Y-92856961D01*
X139209069Y-92869876D01*
X138994343Y-92824097D01*
X138867461Y-92770274D01*
X138896681Y-92708206D01*
X138909677Y-92699550D01*
X138963347Y-92642647D01*
X138864887Y-92626630D01*
X138770066Y-92646239D01*
X138737168Y-92735985D01*
X138754419Y-92939049D01*
X138763216Y-92999495D01*
X138791629Y-93228389D01*
X138774135Y-93330974D01*
X138694088Y-93347727D01*
X138624663Y-93336424D01*
X138495527Y-93315625D01*
X138525054Y-93340861D01*
X138599334Y-93375001D01*
X138758263Y-93422454D01*
X138826071Y-93417843D01*
X138891041Y-93460681D01*
X138943316Y-93576604D01*
X139066895Y-93799927D01*
X139231421Y-93896940D01*
X139394623Y-93863813D01*
X139514229Y-93696714D01*
X139533143Y-93630061D01*
X139585654Y-93463397D01*
X139642284Y-93451725D01*
X139665574Y-93481894D01*
X139727351Y-93660635D01*
X139741037Y-93786843D01*
X139774232Y-93922081D01*
X139879183Y-93922171D01*
X139969280Y-93905317D01*
X139951201Y-93988402D01*
X139921913Y-94045523D01*
X139875297Y-94301709D01*
X139906696Y-94418194D01*
X139962457Y-94543171D01*
X139987595Y-94522356D01*
X140000993Y-94361000D01*
X140010034Y-94163339D01*
X140009888Y-94054083D01*
X140076156Y-94011745D01*
X140190362Y-93999007D01*
X140467701Y-93954916D01*
X140715853Y-93848159D01*
X140875430Y-93707581D01*
X140899695Y-93654489D01*
X141002393Y-93509935D01*
X141166668Y-93402931D01*
X141307246Y-93338429D01*
X141520334Y-93338429D01*
X141520334Y-94911333D01*
X137696105Y-94911333D01*
X137978386Y-94556308D01*
X137978386Y-94556308D01*
G37*
X137978386Y-94556308D02*
X138090380Y-94409905D01*
X138170383Y-94276732D01*
X138226477Y-94122760D01*
X138266742Y-93913958D01*
X138299260Y-93616298D01*
X138332112Y-93195748D01*
X138345334Y-93011141D01*
X138430000Y-91821000D01*
X139975167Y-91797923D01*
X141520334Y-91774847D01*
X141520334Y-93338429D01*
X141307246Y-93338429D01*
X141295927Y-93324869D01*
X141196146Y-93340246D01*
X141055426Y-93341457D01*
X141043873Y-93258607D01*
X141048340Y-93246290D01*
X141141082Y-92964267D01*
X141148427Y-92795552D01*
X141067257Y-92705450D01*
X140997455Y-92680342D01*
X140784762Y-92645941D01*
X140507229Y-92627431D01*
X140444670Y-92626489D01*
X140218180Y-92615831D01*
X140105004Y-92557487D01*
X140049201Y-92408959D01*
X140029758Y-92311287D01*
X139988331Y-92118307D01*
X139954228Y-92075510D01*
X139908630Y-92165777D01*
X139898757Y-92192106D01*
X139860695Y-92371663D01*
X139874781Y-92464813D01*
X139837054Y-92532173D01*
X139680404Y-92590960D01*
X139663279Y-92594578D01*
X139482694Y-92663670D01*
X139403799Y-92759167D01*
X139403667Y-92762916D01*
X139359301Y-92856961D01*
X139209069Y-92869876D01*
X138994343Y-92824097D01*
X138867461Y-92770274D01*
X138896681Y-92708206D01*
X138909677Y-92699550D01*
X138963347Y-92642647D01*
X138864887Y-92626630D01*
X138770066Y-92646239D01*
X138737168Y-92735985D01*
X138754419Y-92939049D01*
X138763216Y-92999495D01*
X138791629Y-93228389D01*
X138774135Y-93330974D01*
X138694088Y-93347727D01*
X138624663Y-93336424D01*
X138495527Y-93315625D01*
X138525054Y-93340861D01*
X138599334Y-93375001D01*
X138758263Y-93422454D01*
X138826071Y-93417843D01*
X138891041Y-93460681D01*
X138943316Y-93576604D01*
X139066895Y-93799927D01*
X139231421Y-93896940D01*
X139394623Y-93863813D01*
X139514229Y-93696714D01*
X139533143Y-93630061D01*
X139585654Y-93463397D01*
X139642284Y-93451725D01*
X139665574Y-93481894D01*
X139727351Y-93660635D01*
X139741037Y-93786843D01*
X139774232Y-93922081D01*
X139879183Y-93922171D01*
X139969280Y-93905317D01*
X139951201Y-93988402D01*
X139921913Y-94045523D01*
X139875297Y-94301709D01*
X139906696Y-94418194D01*
X139962457Y-94543171D01*
X139987595Y-94522356D01*
X140000993Y-94361000D01*
X140010034Y-94163339D01*
X140009888Y-94054083D01*
X140076156Y-94011745D01*
X140190362Y-93999007D01*
X140467701Y-93954916D01*
X140715853Y-93848159D01*
X140875430Y-93707581D01*
X140899695Y-93654489D01*
X141002393Y-93509935D01*
X141166668Y-93402931D01*
X141307246Y-93338429D01*
X141520334Y-93338429D01*
X141520334Y-94911333D01*
X137696105Y-94911333D01*
X137978386Y-94556308D01*
G36*
X143722356Y-94321520D02*
X143721667Y-94314466D01*
X143646824Y-94261554D01*
X143458865Y-94206663D01*
X143368782Y-94189264D01*
X143157141Y-94139984D01*
X143106491Y-94088672D01*
X143139693Y-94060365D01*
X143314703Y-94016530D01*
X143492578Y-94016233D01*
X143675513Y-93999825D01*
X143721667Y-93926024D01*
X143652032Y-93829013D01*
X143570477Y-93810666D01*
X143442995Y-93743048D01*
X143419286Y-93641333D01*
X143464709Y-93503936D01*
X143528143Y-93472000D01*
X143628596Y-93527210D01*
X143637000Y-93561663D01*
X143688959Y-93612036D01*
X143722317Y-93598598D01*
X143744095Y-93505987D01*
X143679983Y-93418221D01*
X143575761Y-93278514D01*
X143552334Y-93206955D01*
X143500106Y-93162035D01*
X143467667Y-93175666D01*
X143397810Y-93198554D01*
X143399427Y-93124967D01*
X143476790Y-92934672D01*
X143552334Y-92774674D01*
X143663718Y-92540787D01*
X143710010Y-92421125D01*
X143699699Y-92377402D01*
X143641787Y-92371333D01*
X143549245Y-92437315D01*
X143427964Y-92598818D01*
X143411866Y-92625333D01*
X143291118Y-92791657D01*
X143189467Y-92874588D01*
X143138581Y-92858183D01*
X143159618Y-92752333D01*
X143166690Y-92642417D01*
X143083880Y-92629088D01*
X142944714Y-92692983D01*
X142782718Y-92814739D01*
X142631415Y-92974993D01*
X142546243Y-93106600D01*
X142484781Y-93315829D01*
X142459733Y-93582476D01*
X142460107Y-93614600D01*
X142465011Y-93717381D01*
X141998284Y-93717381D01*
X141969328Y-93589951D01*
X141917369Y-93478173D01*
X141888204Y-93523469D01*
X141875184Y-93584460D01*
X141872225Y-93739037D01*
X141893850Y-93789071D01*
X141971716Y-93811494D01*
X141998284Y-93717381D01*
X142465011Y-93717381D01*
X142469345Y-93808209D01*
X142489301Y-93847068D01*
X142529951Y-93745759D01*
X142536334Y-93726000D01*
X142583843Y-93590071D01*
X142603989Y-93604153D01*
X142612561Y-93772499D01*
X142606267Y-93941230D01*
X142539596Y-94005147D01*
X142363736Y-94000471D01*
X142313112Y-93994720D01*
X142123733Y-93989301D01*
X142049238Y-94023004D01*
X142053246Y-94036479D01*
X142024028Y-94103455D01*
X141931402Y-94126978D01*
X141816464Y-94116774D01*
X141847358Y-94036877D01*
X141862967Y-94017553D01*
X141917738Y-93916216D01*
X141869367Y-93895333D01*
X141824557Y-93822931D01*
X141794275Y-93601020D01*
X141777888Y-93222544D01*
X141774334Y-92837000D01*
X141774334Y-91778666D01*
X142451667Y-91778666D01*
X142789812Y-91782478D01*
X142992532Y-91799321D01*
X143093663Y-91837309D01*
X143127041Y-91904555D01*
X143129000Y-91941075D01*
X143152561Y-92168974D01*
X143172611Y-92258575D01*
X143172656Y-92299832D01*
X143117253Y-92204299D01*
X143099434Y-92167530D01*
X143005934Y-92017041D01*
X142946653Y-92029896D01*
X142942592Y-92040530D01*
X142891907Y-92116410D01*
X142794334Y-92069534D01*
X142758883Y-92041071D01*
X142630168Y-91967552D01*
X142487695Y-91994188D01*
X142392635Y-92041071D01*
X142183486Y-92203302D01*
X142027766Y-92393119D01*
X141943696Y-92569765D01*
X141931100Y-92751777D01*
X141983114Y-93011048D01*
X142055573Y-93232468D01*
X142129379Y-93360664D01*
X142160369Y-93374629D01*
X142246640Y-93295844D01*
X142379293Y-93121992D01*
X142523146Y-92906402D01*
X142643017Y-92702400D01*
X142703722Y-92563315D01*
X142705667Y-92548093D01*
X142767953Y-92419252D01*
X142903611Y-92333299D01*
X143035840Y-92333905D01*
X143055844Y-92348976D01*
X143211151Y-92395779D01*
X143444967Y-92355108D01*
X143668504Y-92313270D01*
X143787990Y-92351020D01*
X143813576Y-92383052D01*
X143823496Y-92513469D01*
X143785114Y-92553781D01*
X143776393Y-92613806D01*
X143910037Y-92669385D01*
X144057473Y-92727004D01*
X144103203Y-92835615D01*
X144100437Y-92862768D01*
X143940362Y-92862768D01*
X143852743Y-92774850D01*
X143724027Y-92807109D01*
X143670041Y-92864027D01*
X143613108Y-93026998D01*
X143654368Y-93111926D01*
X143788202Y-93211107D01*
X143891513Y-93144507D01*
X143936689Y-93038096D01*
X143940362Y-92862768D01*
X144100437Y-92862768D01*
X144085043Y-93013869D01*
X144077200Y-93230350D01*
X144146597Y-93297529D01*
X144291163Y-93213720D01*
X144309821Y-93196833D01*
X144388668Y-93133351D01*
X144366424Y-93192686D01*
X144364091Y-93196833D01*
X144371850Y-93290506D01*
X144510896Y-93320032D01*
X144595794Y-93310595D01*
X144623822Y-93345000D01*
X143975667Y-93345000D01*
X143933334Y-93302666D01*
X143891000Y-93345000D01*
X143933334Y-93387333D01*
X143975667Y-93345000D01*
X144623822Y-93345000D01*
X144628753Y-93351052D01*
X144615180Y-93380031D01*
X144500466Y-93435071D01*
X144410375Y-93431857D01*
X144300944Y-93442123D01*
X144287552Y-93561850D01*
X144295592Y-93609361D01*
X144294218Y-93620166D01*
X144226974Y-93620166D01*
X144176507Y-93554236D01*
X144057619Y-93575339D01*
X143933820Y-93664353D01*
X143893979Y-93720434D01*
X143815730Y-93896072D01*
X143837137Y-93969773D01*
X143902833Y-93980000D01*
X144024314Y-93916654D01*
X144154264Y-93776287D01*
X144225568Y-93633405D01*
X144226974Y-93620166D01*
X144294218Y-93620166D01*
X144263890Y-93858585D01*
X144176605Y-93995644D01*
X144073902Y-94120077D01*
X144098682Y-94150145D01*
X144259120Y-94115985D01*
X144431401Y-94094159D01*
X144468795Y-94150576D01*
X144466197Y-94159409D01*
X144363699Y-94258656D01*
X144267411Y-94292832D01*
X143955358Y-94345038D01*
X143781964Y-94354272D01*
X143722356Y-94321520D01*
X143722356Y-94321520D01*
G37*
X143722356Y-94321520D02*
X143721667Y-94314466D01*
X143646824Y-94261554D01*
X143458865Y-94206663D01*
X143368782Y-94189264D01*
X143157141Y-94139984D01*
X143106491Y-94088672D01*
X143139693Y-94060365D01*
X143314703Y-94016530D01*
X143492578Y-94016233D01*
X143675513Y-93999825D01*
X143721667Y-93926024D01*
X143652032Y-93829013D01*
X143570477Y-93810666D01*
X143442995Y-93743048D01*
X143419286Y-93641333D01*
X143464709Y-93503936D01*
X143528143Y-93472000D01*
X143628596Y-93527210D01*
X143637000Y-93561663D01*
X143688959Y-93612036D01*
X143722317Y-93598598D01*
X143744095Y-93505987D01*
X143679983Y-93418221D01*
X143575761Y-93278514D01*
X143552334Y-93206955D01*
X143500106Y-93162035D01*
X143467667Y-93175666D01*
X143397810Y-93198554D01*
X143399427Y-93124967D01*
X143476790Y-92934672D01*
X143552334Y-92774674D01*
X143663718Y-92540787D01*
X143710010Y-92421125D01*
X143699699Y-92377402D01*
X143641787Y-92371333D01*
X143549245Y-92437315D01*
X143427964Y-92598818D01*
X143411866Y-92625333D01*
X143291118Y-92791657D01*
X143189467Y-92874588D01*
X143138581Y-92858183D01*
X143159618Y-92752333D01*
X143166690Y-92642417D01*
X143083880Y-92629088D01*
X142944714Y-92692983D01*
X142782718Y-92814739D01*
X142631415Y-92974993D01*
X142546243Y-93106600D01*
X142484781Y-93315829D01*
X142459733Y-93582476D01*
X142460107Y-93614600D01*
X142465011Y-93717381D01*
X141998284Y-93717381D01*
X141969328Y-93589951D01*
X141917369Y-93478173D01*
X141888204Y-93523469D01*
X141875184Y-93584460D01*
X141872225Y-93739037D01*
X141893850Y-93789071D01*
X141971716Y-93811494D01*
X141998284Y-93717381D01*
X142465011Y-93717381D01*
X142469345Y-93808209D01*
X142489301Y-93847068D01*
X142529951Y-93745759D01*
X142536334Y-93726000D01*
X142583843Y-93590071D01*
X142603989Y-93604153D01*
X142612561Y-93772499D01*
X142606267Y-93941230D01*
X142539596Y-94005147D01*
X142363736Y-94000471D01*
X142313112Y-93994720D01*
X142123733Y-93989301D01*
X142049238Y-94023004D01*
X142053246Y-94036479D01*
X142024028Y-94103455D01*
X141931402Y-94126978D01*
X141816464Y-94116774D01*
X141847358Y-94036877D01*
X141862967Y-94017553D01*
X141917738Y-93916216D01*
X141869367Y-93895333D01*
X141824557Y-93822931D01*
X141794275Y-93601020D01*
X141777888Y-93222544D01*
X141774334Y-92837000D01*
X141774334Y-91778666D01*
X142451667Y-91778666D01*
X142789812Y-91782478D01*
X142992532Y-91799321D01*
X143093663Y-91837309D01*
X143127041Y-91904555D01*
X143129000Y-91941075D01*
X143152561Y-92168974D01*
X143172611Y-92258575D01*
X143172656Y-92299832D01*
X143117253Y-92204299D01*
X143099434Y-92167530D01*
X143005934Y-92017041D01*
X142946653Y-92029896D01*
X142942592Y-92040530D01*
X142891907Y-92116410D01*
X142794334Y-92069534D01*
X142758883Y-92041071D01*
X142630168Y-91967552D01*
X142487695Y-91994188D01*
X142392635Y-92041071D01*
X142183486Y-92203302D01*
X142027766Y-92393119D01*
X141943696Y-92569765D01*
X141931100Y-92751777D01*
X141983114Y-93011048D01*
X142055573Y-93232468D01*
X142129379Y-93360664D01*
X142160369Y-93374629D01*
X142246640Y-93295844D01*
X142379293Y-93121992D01*
X142523146Y-92906402D01*
X142643017Y-92702400D01*
X142703722Y-92563315D01*
X142705667Y-92548093D01*
X142767953Y-92419252D01*
X142903611Y-92333299D01*
X143035840Y-92333905D01*
X143055844Y-92348976D01*
X143211151Y-92395779D01*
X143444967Y-92355108D01*
X143668504Y-92313270D01*
X143787990Y-92351020D01*
X143813576Y-92383052D01*
X143823496Y-92513469D01*
X143785114Y-92553781D01*
X143776393Y-92613806D01*
X143910037Y-92669385D01*
X144057473Y-92727004D01*
X144103203Y-92835615D01*
X144100437Y-92862768D01*
X143940362Y-92862768D01*
X143852743Y-92774850D01*
X143724027Y-92807109D01*
X143670041Y-92864027D01*
X143613108Y-93026998D01*
X143654368Y-93111926D01*
X143788202Y-93211107D01*
X143891513Y-93144507D01*
X143936689Y-93038096D01*
X143940362Y-92862768D01*
X144100437Y-92862768D01*
X144085043Y-93013869D01*
X144077200Y-93230350D01*
X144146597Y-93297529D01*
X144291163Y-93213720D01*
X144309821Y-93196833D01*
X144388668Y-93133351D01*
X144366424Y-93192686D01*
X144364091Y-93196833D01*
X144371850Y-93290506D01*
X144510896Y-93320032D01*
X144595794Y-93310595D01*
X144623822Y-93345000D01*
X143975667Y-93345000D01*
X143933334Y-93302666D01*
X143891000Y-93345000D01*
X143933334Y-93387333D01*
X143975667Y-93345000D01*
X144623822Y-93345000D01*
X144628753Y-93351052D01*
X144615180Y-93380031D01*
X144500466Y-93435071D01*
X144410375Y-93431857D01*
X144300944Y-93442123D01*
X144287552Y-93561850D01*
X144295592Y-93609361D01*
X144294218Y-93620166D01*
X144226974Y-93620166D01*
X144176507Y-93554236D01*
X144057619Y-93575339D01*
X143933820Y-93664353D01*
X143893979Y-93720434D01*
X143815730Y-93896072D01*
X143837137Y-93969773D01*
X143902833Y-93980000D01*
X144024314Y-93916654D01*
X144154264Y-93776287D01*
X144225568Y-93633405D01*
X144226974Y-93620166D01*
X144294218Y-93620166D01*
X144263890Y-93858585D01*
X144176605Y-93995644D01*
X144073902Y-94120077D01*
X144098682Y-94150145D01*
X144259120Y-94115985D01*
X144431401Y-94094159D01*
X144468795Y-94150576D01*
X144466197Y-94159409D01*
X144363699Y-94258656D01*
X144267411Y-94292832D01*
X143955358Y-94345038D01*
X143781964Y-94354272D01*
X143722356Y-94321520D01*
G36*
X144761226Y-92477676D02*
X144760973Y-92475650D01*
X144747147Y-92199539D01*
X144761837Y-91967650D01*
X144779480Y-91920884D01*
X144791798Y-92021622D01*
X144796098Y-92244333D01*
X144791010Y-92461611D01*
X144778487Y-92545309D01*
X144761226Y-92477676D01*
X144761226Y-92477676D01*
G37*
X144761226Y-92477676D02*
X144760973Y-92475650D01*
X144747147Y-92199539D01*
X144761837Y-91967650D01*
X144779480Y-91920884D01*
X144791798Y-92021622D01*
X144796098Y-92244333D01*
X144791010Y-92461611D01*
X144778487Y-92545309D01*
X144761226Y-92477676D01*
G36*
X139840082Y-91405751D02*
X139749902Y-91327047D01*
X139742334Y-91308003D01*
X139782515Y-91273204D01*
X139866170Y-91351180D01*
X139877419Y-91368415D01*
X139887398Y-91426352D01*
X139840082Y-91405751D01*
X139840082Y-91405751D01*
G37*
X139840082Y-91405751D02*
X139749902Y-91327047D01*
X139742334Y-91308003D01*
X139782515Y-91273204D01*
X139866170Y-91351180D01*
X139877419Y-91368415D01*
X139887398Y-91426352D01*
X139840082Y-91405751D01*
G36*
X138243119Y-91290846D02*
X138229488Y-91070236D01*
X138244828Y-90952179D01*
X138267714Y-90932388D01*
X138280555Y-91053974D01*
X138281649Y-91143666D01*
X138273313Y-91307631D01*
X138254190Y-91332506D01*
X138243119Y-91290846D01*
X138243119Y-91290846D01*
G37*
X138243119Y-91290846D02*
X138229488Y-91070236D01*
X138244828Y-90952179D01*
X138267714Y-90932388D01*
X138280555Y-91053974D01*
X138281649Y-91143666D01*
X138273313Y-91307631D01*
X138254190Y-91332506D01*
X138243119Y-91290846D01*
G36*
X139319000Y-90805000D02*
X139361334Y-90762666D01*
X139403667Y-90805000D01*
X139361334Y-90847333D01*
X139319000Y-90805000D01*
X139319000Y-90805000D01*
G37*
X139319000Y-90805000D02*
X139361334Y-90762666D01*
X139403667Y-90805000D01*
X139361334Y-90847333D01*
X139319000Y-90805000D01*
G36*
X140807628Y-91027029D02*
X140818438Y-90932117D01*
X140874733Y-90785386D01*
X140916814Y-90787266D01*
X140927667Y-90884670D01*
X140881168Y-91025469D01*
X140850896Y-91054120D01*
X140807628Y-91027029D01*
X140807628Y-91027029D01*
G37*
X140807628Y-91027029D02*
X140818438Y-90932117D01*
X140874733Y-90785386D01*
X140916814Y-90787266D01*
X140927667Y-90884670D01*
X140881168Y-91025469D01*
X140850896Y-91054120D01*
X140807628Y-91027029D01*
G36*
X139581264Y-91169796D02*
X139553394Y-91016501D01*
X139523707Y-90789861D01*
X139532429Y-90712413D01*
X139586345Y-90766997D01*
X139627131Y-90830017D01*
X139675508Y-91025772D01*
X139657784Y-91143501D01*
X139614716Y-91227013D01*
X139581264Y-91169796D01*
X139581264Y-91169796D01*
G37*
X139581264Y-91169796D02*
X139553394Y-91016501D01*
X139523707Y-90789861D01*
X139532429Y-90712413D01*
X139586345Y-90766997D01*
X139627131Y-90830017D01*
X139675508Y-91025772D01*
X139657784Y-91143501D01*
X139614716Y-91227013D01*
X139581264Y-91169796D01*
G36*
X140504334Y-90466333D02*
X140546667Y-90424000D01*
X140589000Y-90466333D01*
X140546667Y-90508666D01*
X140504334Y-90466333D01*
X140504334Y-90466333D01*
G37*
X140504334Y-90466333D02*
X140546667Y-90424000D01*
X140589000Y-90466333D01*
X140546667Y-90508666D01*
X140504334Y-90466333D01*
G36*
X140873184Y-90585112D02*
X140868994Y-90570555D01*
X140856599Y-90386125D01*
X140872131Y-90316555D01*
X140899926Y-90313741D01*
X140911278Y-90446283D01*
X140911162Y-90466333D01*
X140898953Y-90597647D01*
X140873184Y-90585112D01*
X140873184Y-90585112D01*
G37*
X140873184Y-90585112D02*
X140868994Y-90570555D01*
X140856599Y-90386125D01*
X140872131Y-90316555D01*
X140899926Y-90313741D01*
X140911278Y-90446283D01*
X140911162Y-90466333D01*
X140898953Y-90597647D01*
X140873184Y-90585112D01*
G36*
X138896263Y-90788942D02*
X138845472Y-90695862D01*
X138897953Y-90567205D01*
X139001426Y-90433803D01*
X139145971Y-90283087D01*
X139244178Y-90218906D01*
X139258271Y-90222159D01*
X139234039Y-90303201D01*
X139118847Y-90446481D01*
X139093796Y-90472174D01*
X138965951Y-90643636D01*
X138942331Y-90777158D01*
X138945863Y-90784543D01*
X138969530Y-90846709D01*
X138896263Y-90788942D01*
X138896263Y-90788942D01*
G37*
X138896263Y-90788942D02*
X138845472Y-90695862D01*
X138897953Y-90567205D01*
X139001426Y-90433803D01*
X139145971Y-90283087D01*
X139244178Y-90218906D01*
X139258271Y-90222159D01*
X139234039Y-90303201D01*
X139118847Y-90446481D01*
X139093796Y-90472174D01*
X138965951Y-90643636D01*
X138942331Y-90777158D01*
X138945863Y-90784543D01*
X138969530Y-90846709D01*
X138896263Y-90788942D01*
G36*
X139425959Y-90378087D02*
X139491143Y-90246367D01*
X139574522Y-90170933D01*
X139582776Y-90170000D01*
X139604321Y-90228652D01*
X139555756Y-90335483D01*
X139466263Y-90453637D01*
X139426046Y-90474601D01*
X139425959Y-90378087D01*
X139425959Y-90378087D01*
G37*
X139425959Y-90378087D02*
X139491143Y-90246367D01*
X139574522Y-90170933D01*
X139582776Y-90170000D01*
X139604321Y-90228652D01*
X139555756Y-90335483D01*
X139466263Y-90453637D01*
X139426046Y-90474601D01*
X139425959Y-90378087D01*
G36*
X139974003Y-90229599D02*
X139939934Y-90209769D01*
X140050863Y-90196988D01*
X140208000Y-90194216D01*
X140400103Y-90200552D01*
X140456292Y-90215723D01*
X140397336Y-90230755D01*
X140146944Y-90244683D01*
X139974003Y-90229599D01*
X139974003Y-90229599D01*
G37*
X139974003Y-90229599D02*
X139939934Y-90209769D01*
X140050863Y-90196988D01*
X140208000Y-90194216D01*
X140400103Y-90200552D01*
X140456292Y-90215723D01*
X140397336Y-90230755D01*
X140146944Y-90244683D01*
X139974003Y-90229599D01*
G36*
X140771416Y-90135751D02*
X140681235Y-90057047D01*
X140673667Y-90038003D01*
X140713848Y-90003204D01*
X140797504Y-90081180D01*
X140808752Y-90098415D01*
X140818731Y-90156352D01*
X140771416Y-90135751D01*
X140771416Y-90135751D01*
G37*
X140771416Y-90135751D02*
X140681235Y-90057047D01*
X140673667Y-90038003D01*
X140713848Y-90003204D01*
X140797504Y-90081180D01*
X140808752Y-90098415D01*
X140818731Y-90156352D01*
X140771416Y-90135751D01*
G36*
X139403667Y-89958333D02*
X139446000Y-89916000D01*
X139488334Y-89958333D01*
X139446000Y-90000666D01*
X139403667Y-89958333D01*
X139403667Y-89958333D01*
G37*
X139403667Y-89958333D02*
X139446000Y-89916000D01*
X139488334Y-89958333D01*
X139446000Y-90000666D01*
X139403667Y-89958333D01*
G36*
X138325615Y-90306342D02*
X138315686Y-90106500D01*
X138314090Y-89858173D01*
X138323589Y-89696837D01*
X138334967Y-89662000D01*
X138407740Y-89718305D01*
X138477689Y-89795453D01*
X138540307Y-89926573D01*
X138495696Y-89986228D01*
X138417894Y-90104484D01*
X138365659Y-90297275D01*
X138342893Y-90384990D01*
X138325615Y-90306342D01*
X138325615Y-90306342D01*
G37*
X138325615Y-90306342D02*
X138315686Y-90106500D01*
X138314090Y-89858173D01*
X138323589Y-89696837D01*
X138334967Y-89662000D01*
X138407740Y-89718305D01*
X138477689Y-89795453D01*
X138540307Y-89926573D01*
X138495696Y-89986228D01*
X138417894Y-90104484D01*
X138365659Y-90297275D01*
X138342893Y-90384990D01*
X138325615Y-90306342D01*
G36*
X140081000Y-89704333D02*
X140123334Y-89662000D01*
X140165667Y-89704333D01*
X140123334Y-89746666D01*
X140081000Y-89704333D01*
X140081000Y-89704333D01*
G37*
X140081000Y-89704333D02*
X140123334Y-89662000D01*
X140165667Y-89704333D01*
X140123334Y-89746666D01*
X140081000Y-89704333D01*
G36*
X140335000Y-89704333D02*
X140377334Y-89662000D01*
X140419667Y-89704333D01*
X140377334Y-89746666D01*
X140335000Y-89704333D01*
X140335000Y-89704333D01*
G37*
X140335000Y-89704333D02*
X140377334Y-89662000D01*
X140419667Y-89704333D01*
X140377334Y-89746666D01*
X140335000Y-89704333D01*
G36*
X140746386Y-89527411D02*
X140844482Y-89406575D01*
X140851380Y-89399620D01*
X140988774Y-89167465D01*
X140993044Y-88976287D01*
X140969464Y-88804540D01*
X140963497Y-88737351D01*
X141033357Y-88769666D01*
X141068592Y-88784326D01*
X141123255Y-88884939D01*
X141100399Y-89068174D01*
X141022015Y-89279639D01*
X140910093Y-89464946D01*
X140786625Y-89569705D01*
X140747967Y-89577333D01*
X140746386Y-89527411D01*
X140746386Y-89527411D01*
G37*
X140746386Y-89527411D02*
X140844482Y-89406575D01*
X140851380Y-89399620D01*
X140988774Y-89167465D01*
X140993044Y-88976287D01*
X140969464Y-88804540D01*
X140963497Y-88737351D01*
X141033357Y-88769666D01*
X141068592Y-88784326D01*
X141123255Y-88884939D01*
X141100399Y-89068174D01*
X141022015Y-89279639D01*
X140910093Y-89464946D01*
X140786625Y-89569705D01*
X140747967Y-89577333D01*
X140746386Y-89527411D01*
G36*
X145076334Y-88773000D02*
X145118667Y-88730666D01*
X145161000Y-88773000D01*
X145118667Y-88815333D01*
X145076334Y-88773000D01*
X145076334Y-88773000D01*
G37*
X145076334Y-88773000D02*
X145118667Y-88730666D01*
X145161000Y-88773000D01*
X145118667Y-88815333D01*
X145076334Y-88773000D01*
G36*
X139594167Y-89068037D02*
X139507092Y-89044617D01*
X139542039Y-89004537D01*
X139641297Y-88876219D01*
X139680385Y-88773000D01*
X139711419Y-88687488D01*
X139728206Y-88759740D01*
X139732512Y-88836500D01*
X139707218Y-89014903D01*
X139597853Y-89068044D01*
X139594167Y-89068037D01*
X139594167Y-89068037D01*
G37*
X139594167Y-89068037D02*
X139507092Y-89044617D01*
X139542039Y-89004537D01*
X139641297Y-88876219D01*
X139680385Y-88773000D01*
X139711419Y-88687488D01*
X139728206Y-88759740D01*
X139732512Y-88836500D01*
X139707218Y-89014903D01*
X139597853Y-89068044D01*
X139594167Y-89068037D01*
G36*
X137625667Y-88519000D02*
X137668000Y-88476666D01*
X137710334Y-88519000D01*
X137668000Y-88561333D01*
X137625667Y-88519000D01*
X137625667Y-88519000D01*
G37*
X137625667Y-88519000D02*
X137668000Y-88476666D01*
X137710334Y-88519000D01*
X137668000Y-88561333D01*
X137625667Y-88519000D01*
G36*
X137456334Y-88434333D02*
X137498667Y-88392000D01*
X137541000Y-88434333D01*
X137498667Y-88476666D01*
X137456334Y-88434333D01*
X137456334Y-88434333D01*
G37*
X137456334Y-88434333D02*
X137498667Y-88392000D01*
X137541000Y-88434333D01*
X137498667Y-88476666D01*
X137456334Y-88434333D01*
G36*
X137230556Y-88363778D02*
X137242178Y-88313443D01*
X137287000Y-88307333D01*
X137356691Y-88338311D01*
X137343445Y-88363778D01*
X137242965Y-88373911D01*
X137230556Y-88363778D01*
X137230556Y-88363778D01*
G37*
X137230556Y-88363778D02*
X137242178Y-88313443D01*
X137287000Y-88307333D01*
X137356691Y-88338311D01*
X137343445Y-88363778D01*
X137242965Y-88373911D01*
X137230556Y-88363778D01*
G36*
X138839223Y-88363778D02*
X138850845Y-88313443D01*
X138895667Y-88307333D01*
X138965357Y-88338311D01*
X138952112Y-88363778D01*
X138851632Y-88373911D01*
X138839223Y-88363778D01*
X138839223Y-88363778D01*
G37*
X138839223Y-88363778D02*
X138850845Y-88313443D01*
X138895667Y-88307333D01*
X138965357Y-88338311D01*
X138952112Y-88363778D01*
X138851632Y-88373911D01*
X138839223Y-88363778D01*
G36*
X140746621Y-88332748D02*
X140675365Y-88267046D01*
X140599922Y-88157459D01*
X140650243Y-88158165D01*
X140755882Y-88219359D01*
X140838218Y-88308665D01*
X140831447Y-88347109D01*
X140746621Y-88332748D01*
X140746621Y-88332748D01*
G37*
X140746621Y-88332748D02*
X140675365Y-88267046D01*
X140599922Y-88157459D01*
X140650243Y-88158165D01*
X140755882Y-88219359D01*
X140838218Y-88308665D01*
X140831447Y-88347109D01*
X140746621Y-88332748D01*
G36*
X146374556Y-88194444D02*
X146364423Y-88093965D01*
X146374556Y-88081555D01*
X146424890Y-88093178D01*
X146431000Y-88138000D01*
X146400022Y-88207690D01*
X146374556Y-88194444D01*
X146374556Y-88194444D01*
G37*
X146374556Y-88194444D02*
X146364423Y-88093965D01*
X146374556Y-88081555D01*
X146424890Y-88093178D01*
X146431000Y-88138000D01*
X146400022Y-88207690D01*
X146374556Y-88194444D01*
G36*
X146261667Y-87926333D02*
X146304000Y-87884000D01*
X146346334Y-87926333D01*
X146304000Y-87968666D01*
X146261667Y-87926333D01*
X146261667Y-87926333D01*
G37*
X146261667Y-87926333D02*
X146304000Y-87884000D01*
X146346334Y-87926333D01*
X146304000Y-87968666D01*
X146261667Y-87926333D01*
G36*
X139115208Y-89362942D02*
X139104637Y-89356114D01*
X139000617Y-89284856D01*
X138953049Y-89220315D01*
X138975388Y-89135197D01*
X139081087Y-89002211D01*
X139283598Y-88794063D01*
X139475665Y-88603405D01*
X139656242Y-88380314D01*
X139761138Y-88164114D01*
X139771998Y-88104038D01*
X139815036Y-87937486D01*
X139894061Y-87845638D01*
X139968024Y-87853696D01*
X139996334Y-87966327D01*
X139956846Y-88127300D01*
X139911667Y-88180333D01*
X139839063Y-88300453D01*
X139827000Y-88387122D01*
X139756393Y-88535300D01*
X139673086Y-88581833D01*
X139544379Y-88667577D01*
X139405177Y-88831739D01*
X139287060Y-89023314D01*
X139221605Y-89191296D01*
X139222531Y-89196333D01*
X139065000Y-89196333D01*
X139022667Y-89154000D01*
X138980334Y-89196333D01*
X139022667Y-89238666D01*
X139065000Y-89196333D01*
X139222531Y-89196333D01*
X139238587Y-89283628D01*
X139316716Y-89394240D01*
X139319000Y-89414948D01*
X139259495Y-89432255D01*
X139115208Y-89362942D01*
X139115208Y-89362942D01*
G37*
X139115208Y-89362942D02*
X139104637Y-89356114D01*
X139000617Y-89284856D01*
X138953049Y-89220315D01*
X138975388Y-89135197D01*
X139081087Y-89002211D01*
X139283598Y-88794063D01*
X139475665Y-88603405D01*
X139656242Y-88380314D01*
X139761138Y-88164114D01*
X139771998Y-88104038D01*
X139815036Y-87937486D01*
X139894061Y-87845638D01*
X139968024Y-87853696D01*
X139996334Y-87966327D01*
X139956846Y-88127300D01*
X139911667Y-88180333D01*
X139839063Y-88300453D01*
X139827000Y-88387122D01*
X139756393Y-88535300D01*
X139673086Y-88581833D01*
X139544379Y-88667577D01*
X139405177Y-88831739D01*
X139287060Y-89023314D01*
X139221605Y-89191296D01*
X139222531Y-89196333D01*
X139065000Y-89196333D01*
X139022667Y-89154000D01*
X138980334Y-89196333D01*
X139022667Y-89238666D01*
X139065000Y-89196333D01*
X139222531Y-89196333D01*
X139238587Y-89283628D01*
X139316716Y-89394240D01*
X139319000Y-89414948D01*
X139259495Y-89432255D01*
X139115208Y-89362942D01*
G36*
X140447889Y-87855778D02*
X140459512Y-87805443D01*
X140504334Y-87799333D01*
X140574024Y-87830311D01*
X140560778Y-87855778D01*
X140460299Y-87865911D01*
X140447889Y-87855778D01*
X140447889Y-87855778D01*
G37*
X140447889Y-87855778D02*
X140459512Y-87805443D01*
X140504334Y-87799333D01*
X140574024Y-87830311D01*
X140560778Y-87855778D01*
X140460299Y-87865911D01*
X140447889Y-87855778D01*
G36*
X140109223Y-87771111D02*
X140120845Y-87720777D01*
X140165667Y-87714666D01*
X140235357Y-87745645D01*
X140222112Y-87771111D01*
X140121632Y-87781244D01*
X140109223Y-87771111D01*
X140109223Y-87771111D01*
G37*
X140109223Y-87771111D02*
X140120845Y-87720777D01*
X140165667Y-87714666D01*
X140235357Y-87745645D01*
X140222112Y-87771111D01*
X140121632Y-87781244D01*
X140109223Y-87771111D01*
G36*
X146177000Y-87757000D02*
X146219334Y-87714666D01*
X146261667Y-87757000D01*
X146219334Y-87799333D01*
X146177000Y-87757000D01*
X146177000Y-87757000D01*
G37*
X146177000Y-87757000D02*
X146219334Y-87714666D01*
X146261667Y-87757000D01*
X146219334Y-87799333D01*
X146177000Y-87757000D01*
G36*
X136865006Y-88263906D02*
X136822871Y-88225153D01*
X136826778Y-88112089D01*
X136887280Y-87930488D01*
X136974341Y-87749742D01*
X137057925Y-87639240D01*
X137080487Y-87630000D01*
X137080386Y-87692267D01*
X137032064Y-87801083D01*
X136979618Y-87968805D01*
X136991749Y-88055083D01*
X136975540Y-88132892D01*
X136932164Y-88143951D01*
X136907460Y-88174018D01*
X136990667Y-88222666D01*
X137097046Y-88278597D01*
X137049212Y-88299521D01*
X137016831Y-88301382D01*
X136865006Y-88263906D01*
X136865006Y-88263906D01*
G37*
X136865006Y-88263906D02*
X136822871Y-88225153D01*
X136826778Y-88112089D01*
X136887280Y-87930488D01*
X136974341Y-87749742D01*
X137057925Y-87639240D01*
X137080487Y-87630000D01*
X137080386Y-87692267D01*
X137032064Y-87801083D01*
X136979618Y-87968805D01*
X136991749Y-88055083D01*
X136975540Y-88132892D01*
X136932164Y-88143951D01*
X136907460Y-88174018D01*
X136990667Y-88222666D01*
X137097046Y-88278597D01*
X137049212Y-88299521D01*
X137016831Y-88301382D01*
X136865006Y-88263906D01*
G36*
X140335000Y-87672333D02*
X140377334Y-87630000D01*
X140419667Y-87672333D01*
X140377334Y-87714666D01*
X140335000Y-87672333D01*
X140335000Y-87672333D01*
G37*
X140335000Y-87672333D02*
X140377334Y-87630000D01*
X140419667Y-87672333D01*
X140377334Y-87714666D01*
X140335000Y-87672333D01*
G36*
X140504334Y-87587666D02*
X140546667Y-87545333D01*
X140589000Y-87587666D01*
X140546667Y-87630000D01*
X140504334Y-87587666D01*
X140504334Y-87587666D01*
G37*
X140504334Y-87587666D02*
X140546667Y-87545333D01*
X140589000Y-87587666D01*
X140546667Y-87630000D01*
X140504334Y-87587666D01*
G36*
X144835416Y-88781085D02*
X144759773Y-88657580D01*
X144737667Y-88512346D01*
X144718458Y-88406591D01*
X144642386Y-88310034D01*
X144481788Y-88202454D01*
X144208997Y-88063626D01*
X143974260Y-87954305D01*
X143656148Y-87804264D01*
X143409641Y-87679707D01*
X143265907Y-87596882D01*
X143242572Y-87572873D01*
X143328717Y-87590490D01*
X143525316Y-87666760D01*
X143790920Y-87785504D01*
X143808205Y-87793654D01*
X144083464Y-87913307D01*
X144300004Y-87988064D01*
X144412623Y-88002428D01*
X144414425Y-88001467D01*
X144418531Y-87911779D01*
X144336410Y-87747409D01*
X144310101Y-87708722D01*
X144188413Y-87525501D01*
X144163887Y-87459563D01*
X144222951Y-87500082D01*
X144352036Y-87636231D01*
X144537572Y-87857183D01*
X144609376Y-87947500D01*
X144852607Y-88280037D01*
X144973111Y-88503226D01*
X144973007Y-88622122D01*
X144902004Y-88646000D01*
X144855176Y-88699470D01*
X144872752Y-88743748D01*
X144882731Y-88801685D01*
X144835416Y-88781085D01*
X144835416Y-88781085D01*
G37*
X144835416Y-88781085D02*
X144759773Y-88657580D01*
X144737667Y-88512346D01*
X144718458Y-88406591D01*
X144642386Y-88310034D01*
X144481788Y-88202454D01*
X144208997Y-88063626D01*
X143974260Y-87954305D01*
X143656148Y-87804264D01*
X143409641Y-87679707D01*
X143265907Y-87596882D01*
X143242572Y-87572873D01*
X143328717Y-87590490D01*
X143525316Y-87666760D01*
X143790920Y-87785504D01*
X143808205Y-87793654D01*
X144083464Y-87913307D01*
X144300004Y-87988064D01*
X144412623Y-88002428D01*
X144414425Y-88001467D01*
X144418531Y-87911779D01*
X144336410Y-87747409D01*
X144310101Y-87708722D01*
X144188413Y-87525501D01*
X144163887Y-87459563D01*
X144222951Y-87500082D01*
X144352036Y-87636231D01*
X144537572Y-87857183D01*
X144609376Y-87947500D01*
X144852607Y-88280037D01*
X144973111Y-88503226D01*
X144973007Y-88622122D01*
X144902004Y-88646000D01*
X144855176Y-88699470D01*
X144872752Y-88743748D01*
X144882731Y-88801685D01*
X144835416Y-88781085D01*
G36*
X146105416Y-87595751D02*
X146015235Y-87517047D01*
X146007667Y-87498003D01*
X146047848Y-87463204D01*
X146131504Y-87541180D01*
X146142752Y-87558415D01*
X146152731Y-87616352D01*
X146105416Y-87595751D01*
X146105416Y-87595751D01*
G37*
X146105416Y-87595751D02*
X146015235Y-87517047D01*
X146007667Y-87498003D01*
X146047848Y-87463204D01*
X146131504Y-87541180D01*
X146142752Y-87558415D01*
X146152731Y-87616352D01*
X146105416Y-87595751D01*
G36*
X139601313Y-91628657D02*
X139199570Y-91616614D01*
X138980334Y-91602780D01*
X138855256Y-91585163D01*
X138894374Y-91569650D01*
X139092559Y-91556583D01*
X139444682Y-91546305D01*
X139932834Y-91539280D01*
X141435667Y-91524666D01*
X141435667Y-87203225D01*
X141088796Y-87380186D01*
X140875596Y-87477861D01*
X140732675Y-87522678D01*
X140704539Y-87519761D01*
X140754033Y-87470731D01*
X140905738Y-87379880D01*
X141107160Y-87274236D01*
X141305806Y-87180825D01*
X141449181Y-87126677D01*
X141477078Y-87122000D01*
X141488589Y-87202992D01*
X141498948Y-87431272D01*
X141507727Y-87784796D01*
X141514502Y-88241521D01*
X141518846Y-88779403D01*
X141520334Y-89360688D01*
X141520334Y-91599376D01*
X140525500Y-91625521D01*
X140064105Y-91631932D01*
X139601313Y-91628657D01*
X139601313Y-91628657D01*
G37*
X139601313Y-91628657D02*
X139199570Y-91616614D01*
X138980334Y-91602780D01*
X138855256Y-91585163D01*
X138894374Y-91569650D01*
X139092559Y-91556583D01*
X139444682Y-91546305D01*
X139932834Y-91539280D01*
X141435667Y-91524666D01*
X141435667Y-87203225D01*
X141088796Y-87380186D01*
X140875596Y-87477861D01*
X140732675Y-87522678D01*
X140704539Y-87519761D01*
X140754033Y-87470731D01*
X140905738Y-87379880D01*
X141107160Y-87274236D01*
X141305806Y-87180825D01*
X141449181Y-87126677D01*
X141477078Y-87122000D01*
X141488589Y-87202992D01*
X141498948Y-87431272D01*
X141507727Y-87784796D01*
X141514502Y-88241521D01*
X141518846Y-88779403D01*
X141520334Y-89360688D01*
X141520334Y-91599376D01*
X140525500Y-91625521D01*
X140064105Y-91631932D01*
X139601313Y-91628657D01*
G36*
X143533620Y-91595056D02*
X143168225Y-91590296D01*
X141732000Y-91567000D01*
X141709428Y-89344500D01*
X141705766Y-88751537D01*
X141707005Y-88218789D01*
X141712725Y-87768269D01*
X141722504Y-87421991D01*
X141735923Y-87201970D01*
X141751761Y-87129955D01*
X141848168Y-87167194D01*
X142067645Y-87263826D01*
X142380401Y-87406400D01*
X142756642Y-87581463D01*
X142875000Y-87637155D01*
X143291586Y-87832084D01*
X143680066Y-88011000D01*
X144001234Y-88156038D01*
X144215882Y-88249333D01*
X144240415Y-88259346D01*
X144459624Y-88347110D01*
X143366593Y-88347110D01*
X143337577Y-88148936D01*
X143290852Y-88000909D01*
X143251004Y-88005538D01*
X143209917Y-88095666D01*
X143152519Y-88319445D01*
X143143391Y-88434333D01*
X143153847Y-88527785D01*
X143188327Y-88467430D01*
X143213667Y-88392000D01*
X143257316Y-88277267D01*
X143282209Y-88297488D01*
X143299313Y-88468327D01*
X143302580Y-88519000D01*
X143318160Y-88712050D01*
X143334480Y-88745882D01*
X143357562Y-88630527D01*
X143359964Y-88614603D01*
X143366593Y-88347110D01*
X144459624Y-88347110D01*
X144547497Y-88382291D01*
X144609641Y-89127979D01*
X144668373Y-89856401D01*
X144483910Y-89856401D01*
X144472840Y-89717183D01*
X144395426Y-89557711D01*
X144295495Y-89455134D01*
X144137773Y-89369504D01*
X143993243Y-89325794D01*
X143908640Y-89331231D01*
X143930700Y-89393042D01*
X143937567Y-89399782D01*
X144083889Y-89479076D01*
X144187334Y-89508257D01*
X144327051Y-89603882D01*
X144349945Y-89728142D01*
X144371412Y-89875378D01*
X144413445Y-89916000D01*
X144483910Y-89856401D01*
X144668373Y-89856401D01*
X144669434Y-89869560D01*
X144711899Y-90456991D01*
X144715689Y-90523182D01*
X144399000Y-90523182D01*
X144340114Y-90281720D01*
X144178337Y-89963759D01*
X143935994Y-89606798D01*
X143648391Y-89262362D01*
X143397165Y-88989723D01*
X143675243Y-88817862D01*
X143953234Y-88670856D01*
X144122250Y-88647035D01*
X144192587Y-88749382D01*
X144177890Y-88963500D01*
X144148372Y-89161011D01*
X144168211Y-89222382D01*
X144240555Y-89179875D01*
X144335280Y-89019795D01*
X144349990Y-88810135D01*
X144295461Y-88613123D01*
X144182469Y-88490986D01*
X144118837Y-88476983D01*
X143983420Y-88518488D01*
X143785136Y-88619620D01*
X143758095Y-88635791D01*
X143574389Y-88772582D01*
X143447190Y-88883449D01*
X143207128Y-88883449D01*
X143129000Y-88779755D01*
X142964313Y-88636867D01*
X142727231Y-88500375D01*
X142478733Y-88398221D01*
X142279797Y-88358341D01*
X142226878Y-88366418D01*
X142142432Y-88474514D01*
X142113000Y-88638876D01*
X142162705Y-88877415D01*
X142246912Y-89031984D01*
X142343041Y-89144771D01*
X142354249Y-89124413D01*
X142321973Y-89027000D01*
X142237991Y-88763350D01*
X142218718Y-88614086D01*
X142264032Y-88537164D01*
X142320461Y-88508898D01*
X142500801Y-88502046D01*
X142750802Y-88604975D01*
X143044334Y-88791881D01*
X143185878Y-88888000D01*
X143207128Y-88883449D01*
X143447190Y-88883449D01*
X143323990Y-88990830D01*
X143055372Y-89247854D01*
X143004865Y-89298992D01*
X142757079Y-89545949D01*
X142590261Y-89687552D01*
X142471277Y-89743563D01*
X142366992Y-89733743D01*
X142312931Y-89711684D01*
X142149626Y-89586588D01*
X142128174Y-89452383D01*
X142252244Y-89349253D01*
X142416552Y-89368372D01*
X142515001Y-89457743D01*
X142603561Y-89566568D01*
X142611315Y-89532941D01*
X142583741Y-89435538D01*
X142575972Y-89286832D01*
X142698434Y-89219354D01*
X142723151Y-89214235D01*
X142847858Y-89186572D01*
X142814050Y-89172913D01*
X142697135Y-89165530D01*
X142462965Y-89183471D01*
X142221269Y-89246001D01*
X142029259Y-89332977D01*
X141944146Y-89424260D01*
X141943667Y-89430782D01*
X142006953Y-89580700D01*
X142150752Y-89736165D01*
X142305977Y-89826964D01*
X142337789Y-89831333D01*
X142440744Y-89882439D01*
X142423209Y-89989631D01*
X142358362Y-90048339D01*
X142240658Y-90190900D01*
X142135824Y-90424950D01*
X142071258Y-90673272D01*
X142072640Y-90853548D01*
X142183653Y-90990963D01*
X142369432Y-90994010D01*
X142604582Y-90864857D01*
X142679779Y-90801723D01*
X142917334Y-90586780D01*
X142626982Y-90755002D01*
X142389540Y-90867399D01*
X142254531Y-90858449D01*
X142201018Y-90722798D01*
X142197667Y-90645185D01*
X142249332Y-90453415D01*
X142383150Y-90188073D01*
X142567357Y-89900871D01*
X142770185Y-89643523D01*
X142883564Y-89528567D01*
X143065022Y-89365666D01*
X143007346Y-89746666D01*
X142981586Y-89968458D01*
X142996967Y-90040797D01*
X143040730Y-90000666D01*
X143099250Y-89829649D01*
X143111492Y-89600128D01*
X143120101Y-89406490D01*
X143168469Y-89305760D01*
X143173597Y-89303795D01*
X143226693Y-89365430D01*
X143268683Y-89547787D01*
X143281449Y-89674411D01*
X143317337Y-89938533D01*
X143391462Y-90073305D01*
X143461471Y-90108245D01*
X143549146Y-90119304D01*
X143577710Y-90065758D01*
X143551708Y-89910677D01*
X143507246Y-89736224D01*
X143450372Y-89446501D01*
X143467312Y-89298203D01*
X143555504Y-89296425D01*
X143674767Y-89402953D01*
X143771136Y-89561053D01*
X143736776Y-89733036D01*
X143723745Y-89760790D01*
X143664044Y-89891295D01*
X143687758Y-89881747D01*
X143750571Y-89805963D01*
X143839735Y-89716282D01*
X143917061Y-89734374D01*
X144031894Y-89876160D01*
X144050994Y-89902883D01*
X144090331Y-89972444D01*
X143947445Y-89972444D01*
X143935823Y-89922110D01*
X143891000Y-89916000D01*
X143821310Y-89946978D01*
X143834556Y-89972444D01*
X143935036Y-89982577D01*
X143947445Y-89972444D01*
X144090331Y-89972444D01*
X144179191Y-90129576D01*
X144234079Y-90295872D01*
X143667023Y-90295872D01*
X143594667Y-90254666D01*
X143424631Y-90189516D01*
X143320433Y-90193867D01*
X143213667Y-90254666D01*
X143198664Y-90274909D01*
X142922946Y-90274909D01*
X142839723Y-90261351D01*
X142729909Y-90276917D01*
X142728598Y-90305819D01*
X142841915Y-90326031D01*
X142890875Y-90312503D01*
X142922946Y-90274909D01*
X143198664Y-90274909D01*
X143174738Y-90307190D01*
X143280866Y-90330275D01*
X143425334Y-90332086D01*
X143622923Y-90322298D01*
X143667023Y-90295872D01*
X144234079Y-90295872D01*
X144248841Y-90340596D01*
X144250253Y-90351587D01*
X144243358Y-90487929D01*
X144150195Y-90538465D01*
X143995516Y-90540736D01*
X143817054Y-90546003D01*
X143779516Y-90591375D01*
X143815383Y-90646570D01*
X143963738Y-90730916D01*
X143633182Y-90730916D01*
X143620369Y-90633961D01*
X143578269Y-90679134D01*
X143522259Y-90802124D01*
X143444831Y-90960810D01*
X143394513Y-90975687D01*
X143354415Y-90894962D01*
X143301084Y-90786070D01*
X143239093Y-90812770D01*
X143171697Y-90897837D01*
X143086299Y-90996098D01*
X143051665Y-90961409D01*
X143041660Y-90805000D01*
X143032716Y-90634941D01*
X143008656Y-90623848D01*
X142950896Y-90758079D01*
X142919023Y-91040706D01*
X142966534Y-91202579D01*
X143074932Y-91393373D01*
X143171498Y-91429768D01*
X143235176Y-91334166D01*
X143290659Y-91271186D01*
X143400710Y-91335525D01*
X143494719Y-91385474D01*
X143550684Y-91313171D01*
X143583812Y-91176775D01*
X143621287Y-90926647D01*
X143633182Y-90730916D01*
X143963738Y-90730916D01*
X143965997Y-90732200D01*
X144155367Y-90762666D01*
X144330792Y-90738865D01*
X144393291Y-90632250D01*
X144399000Y-90523182D01*
X144715689Y-90523182D01*
X144737527Y-90904517D01*
X144746811Y-91226380D01*
X144740243Y-91436825D01*
X144718314Y-91550095D01*
X144694279Y-91579120D01*
X144583421Y-91589201D01*
X144333123Y-91595363D01*
X143973239Y-91597388D01*
X143533620Y-91595056D01*
X143533620Y-91595056D01*
G37*
X143533620Y-91595056D02*
X143168225Y-91590296D01*
X141732000Y-91567000D01*
X141709428Y-89344500D01*
X141705766Y-88751537D01*
X141707005Y-88218789D01*
X141712725Y-87768269D01*
X141722504Y-87421991D01*
X141735923Y-87201970D01*
X141751761Y-87129955D01*
X141848168Y-87167194D01*
X142067645Y-87263826D01*
X142380401Y-87406400D01*
X142756642Y-87581463D01*
X142875000Y-87637155D01*
X143291586Y-87832084D01*
X143680066Y-88011000D01*
X144001234Y-88156038D01*
X144215882Y-88249333D01*
X144240415Y-88259346D01*
X144459624Y-88347110D01*
X143366593Y-88347110D01*
X143337577Y-88148936D01*
X143290852Y-88000909D01*
X143251004Y-88005538D01*
X143209917Y-88095666D01*
X143152519Y-88319445D01*
X143143391Y-88434333D01*
X143153847Y-88527785D01*
X143188327Y-88467430D01*
X143213667Y-88392000D01*
X143257316Y-88277267D01*
X143282209Y-88297488D01*
X143299313Y-88468327D01*
X143302580Y-88519000D01*
X143318160Y-88712050D01*
X143334480Y-88745882D01*
X143357562Y-88630527D01*
X143359964Y-88614603D01*
X143366593Y-88347110D01*
X144459624Y-88347110D01*
X144547497Y-88382291D01*
X144609641Y-89127979D01*
X144668373Y-89856401D01*
X144483910Y-89856401D01*
X144472840Y-89717183D01*
X144395426Y-89557711D01*
X144295495Y-89455134D01*
X144137773Y-89369504D01*
X143993243Y-89325794D01*
X143908640Y-89331231D01*
X143930700Y-89393042D01*
X143937567Y-89399782D01*
X144083889Y-89479076D01*
X144187334Y-89508257D01*
X144327051Y-89603882D01*
X144349945Y-89728142D01*
X144371412Y-89875378D01*
X144413445Y-89916000D01*
X144483910Y-89856401D01*
X144668373Y-89856401D01*
X144669434Y-89869560D01*
X144711899Y-90456991D01*
X144715689Y-90523182D01*
X144399000Y-90523182D01*
X144340114Y-90281720D01*
X144178337Y-89963759D01*
X143935994Y-89606798D01*
X143648391Y-89262362D01*
X143397165Y-88989723D01*
X143675243Y-88817862D01*
X143953234Y-88670856D01*
X144122250Y-88647035D01*
X144192587Y-88749382D01*
X144177890Y-88963500D01*
X144148372Y-89161011D01*
X144168211Y-89222382D01*
X144240555Y-89179875D01*
X144335280Y-89019795D01*
X144349990Y-88810135D01*
X144295461Y-88613123D01*
X144182469Y-88490986D01*
X144118837Y-88476983D01*
X143983420Y-88518488D01*
X143785136Y-88619620D01*
X143758095Y-88635791D01*
X143574389Y-88772582D01*
X143447190Y-88883449D01*
X143207128Y-88883449D01*
X143129000Y-88779755D01*
X142964313Y-88636867D01*
X142727231Y-88500375D01*
X142478733Y-88398221D01*
X142279797Y-88358341D01*
X142226878Y-88366418D01*
X142142432Y-88474514D01*
X142113000Y-88638876D01*
X142162705Y-88877415D01*
X142246912Y-89031984D01*
X142343041Y-89144771D01*
X142354249Y-89124413D01*
X142321973Y-89027000D01*
X142237991Y-88763350D01*
X142218718Y-88614086D01*
X142264032Y-88537164D01*
X142320461Y-88508898D01*
X142500801Y-88502046D01*
X142750802Y-88604975D01*
X143044334Y-88791881D01*
X143185878Y-88888000D01*
X143207128Y-88883449D01*
X143447190Y-88883449D01*
X143323990Y-88990830D01*
X143055372Y-89247854D01*
X143004865Y-89298992D01*
X142757079Y-89545949D01*
X142590261Y-89687552D01*
X142471277Y-89743563D01*
X142366992Y-89733743D01*
X142312931Y-89711684D01*
X142149626Y-89586588D01*
X142128174Y-89452383D01*
X142252244Y-89349253D01*
X142416552Y-89368372D01*
X142515001Y-89457743D01*
X142603561Y-89566568D01*
X142611315Y-89532941D01*
X142583741Y-89435538D01*
X142575972Y-89286832D01*
X142698434Y-89219354D01*
X142723151Y-89214235D01*
X142847858Y-89186572D01*
X142814050Y-89172913D01*
X142697135Y-89165530D01*
X142462965Y-89183471D01*
X142221269Y-89246001D01*
X142029259Y-89332977D01*
X141944146Y-89424260D01*
X141943667Y-89430782D01*
X142006953Y-89580700D01*
X142150752Y-89736165D01*
X142305977Y-89826964D01*
X142337789Y-89831333D01*
X142440744Y-89882439D01*
X142423209Y-89989631D01*
X142358362Y-90048339D01*
X142240658Y-90190900D01*
X142135824Y-90424950D01*
X142071258Y-90673272D01*
X142072640Y-90853548D01*
X142183653Y-90990963D01*
X142369432Y-90994010D01*
X142604582Y-90864857D01*
X142679779Y-90801723D01*
X142917334Y-90586780D01*
X142626982Y-90755002D01*
X142389540Y-90867399D01*
X142254531Y-90858449D01*
X142201018Y-90722798D01*
X142197667Y-90645185D01*
X142249332Y-90453415D01*
X142383150Y-90188073D01*
X142567357Y-89900871D01*
X142770185Y-89643523D01*
X142883564Y-89528567D01*
X143065022Y-89365666D01*
X143007346Y-89746666D01*
X142981586Y-89968458D01*
X142996967Y-90040797D01*
X143040730Y-90000666D01*
X143099250Y-89829649D01*
X143111492Y-89600128D01*
X143120101Y-89406490D01*
X143168469Y-89305760D01*
X143173597Y-89303795D01*
X143226693Y-89365430D01*
X143268683Y-89547787D01*
X143281449Y-89674411D01*
X143317337Y-89938533D01*
X143391462Y-90073305D01*
X143461471Y-90108245D01*
X143549146Y-90119304D01*
X143577710Y-90065758D01*
X143551708Y-89910677D01*
X143507246Y-89736224D01*
X143450372Y-89446501D01*
X143467312Y-89298203D01*
X143555504Y-89296425D01*
X143674767Y-89402953D01*
X143771136Y-89561053D01*
X143736776Y-89733036D01*
X143723745Y-89760790D01*
X143664044Y-89891295D01*
X143687758Y-89881747D01*
X143750571Y-89805963D01*
X143839735Y-89716282D01*
X143917061Y-89734374D01*
X144031894Y-89876160D01*
X144050994Y-89902883D01*
X144090331Y-89972444D01*
X143947445Y-89972444D01*
X143935823Y-89922110D01*
X143891000Y-89916000D01*
X143821310Y-89946978D01*
X143834556Y-89972444D01*
X143935036Y-89982577D01*
X143947445Y-89972444D01*
X144090331Y-89972444D01*
X144179191Y-90129576D01*
X144234079Y-90295872D01*
X143667023Y-90295872D01*
X143594667Y-90254666D01*
X143424631Y-90189516D01*
X143320433Y-90193867D01*
X143213667Y-90254666D01*
X143198664Y-90274909D01*
X142922946Y-90274909D01*
X142839723Y-90261351D01*
X142729909Y-90276917D01*
X142728598Y-90305819D01*
X142841915Y-90326031D01*
X142890875Y-90312503D01*
X142922946Y-90274909D01*
X143198664Y-90274909D01*
X143174738Y-90307190D01*
X143280866Y-90330275D01*
X143425334Y-90332086D01*
X143622923Y-90322298D01*
X143667023Y-90295872D01*
X144234079Y-90295872D01*
X144248841Y-90340596D01*
X144250253Y-90351587D01*
X144243358Y-90487929D01*
X144150195Y-90538465D01*
X143995516Y-90540736D01*
X143817054Y-90546003D01*
X143779516Y-90591375D01*
X143815383Y-90646570D01*
X143963738Y-90730916D01*
X143633182Y-90730916D01*
X143620369Y-90633961D01*
X143578269Y-90679134D01*
X143522259Y-90802124D01*
X143444831Y-90960810D01*
X143394513Y-90975687D01*
X143354415Y-90894962D01*
X143301084Y-90786070D01*
X143239093Y-90812770D01*
X143171697Y-90897837D01*
X143086299Y-90996098D01*
X143051665Y-90961409D01*
X143041660Y-90805000D01*
X143032716Y-90634941D01*
X143008656Y-90623848D01*
X142950896Y-90758079D01*
X142919023Y-91040706D01*
X142966534Y-91202579D01*
X143074932Y-91393373D01*
X143171498Y-91429768D01*
X143235176Y-91334166D01*
X143290659Y-91271186D01*
X143400710Y-91335525D01*
X143494719Y-91385474D01*
X143550684Y-91313171D01*
X143583812Y-91176775D01*
X143621287Y-90926647D01*
X143633182Y-90730916D01*
X143963738Y-90730916D01*
X143965997Y-90732200D01*
X144155367Y-90762666D01*
X144330792Y-90738865D01*
X144393291Y-90632250D01*
X144399000Y-90523182D01*
X144715689Y-90523182D01*
X144737527Y-90904517D01*
X144746811Y-91226380D01*
X144740243Y-91436825D01*
X144718314Y-91550095D01*
X144694279Y-91579120D01*
X144583421Y-91589201D01*
X144333123Y-91595363D01*
X143973239Y-91597388D01*
X143533620Y-91595056D01*
G36*
X138422904Y-89350611D02*
X138410100Y-89217500D01*
X138375854Y-88963571D01*
X138314571Y-88841992D01*
X138229877Y-88815333D01*
X138049227Y-88764415D01*
X137917016Y-88683662D01*
X137806903Y-88591873D01*
X137835498Y-88593124D01*
X137937601Y-88641329D01*
X138156908Y-88722079D01*
X138260065Y-88700545D01*
X138254752Y-88618783D01*
X138279018Y-88512156D01*
X138373700Y-88328185D01*
X138509843Y-88109724D01*
X138658491Y-87899629D01*
X138790689Y-87740756D01*
X138877480Y-87675962D01*
X138889116Y-87679893D01*
X138872097Y-87761651D01*
X138826523Y-87817678D01*
X138733727Y-87958321D01*
X138766621Y-88043527D01*
X138819710Y-88053333D01*
X138923455Y-88018754D01*
X139153322Y-87922838D01*
X139482673Y-87777318D01*
X139884871Y-87593925D01*
X140261352Y-87418333D01*
X140698078Y-87213451D01*
X141077971Y-87036764D01*
X141376165Y-86899712D01*
X141567795Y-86813734D01*
X141628476Y-86789381D01*
X141707631Y-86826308D01*
X141905879Y-86920996D01*
X142189872Y-87057478D01*
X142409334Y-87163298D01*
X142791602Y-87352190D01*
X143020050Y-87473844D01*
X143096886Y-87526825D01*
X143024314Y-87509694D01*
X142804542Y-87421015D01*
X142439777Y-87259352D01*
X142335260Y-87211537D01*
X141609325Y-86877741D01*
X140723348Y-87295655D01*
X140360028Y-87475540D01*
X140048043Y-87645786D01*
X139823307Y-87785795D01*
X139726352Y-87867467D01*
X139552047Y-88053883D01*
X139403099Y-88111533D01*
X139322493Y-88058985D01*
X139235768Y-88018041D01*
X139058329Y-88063768D01*
X138866293Y-88149675D01*
X138472334Y-88341075D01*
X138457073Y-88980371D01*
X138447699Y-89266755D01*
X138436624Y-89388578D01*
X138422904Y-89350611D01*
X138422904Y-89350611D01*
G37*
X138422904Y-89350611D02*
X138410100Y-89217500D01*
X138375854Y-88963571D01*
X138314571Y-88841992D01*
X138229877Y-88815333D01*
X138049227Y-88764415D01*
X137917016Y-88683662D01*
X137806903Y-88591873D01*
X137835498Y-88593124D01*
X137937601Y-88641329D01*
X138156908Y-88722079D01*
X138260065Y-88700545D01*
X138254752Y-88618783D01*
X138279018Y-88512156D01*
X138373700Y-88328185D01*
X138509843Y-88109724D01*
X138658491Y-87899629D01*
X138790689Y-87740756D01*
X138877480Y-87675962D01*
X138889116Y-87679893D01*
X138872097Y-87761651D01*
X138826523Y-87817678D01*
X138733727Y-87958321D01*
X138766621Y-88043527D01*
X138819710Y-88053333D01*
X138923455Y-88018754D01*
X139153322Y-87922838D01*
X139482673Y-87777318D01*
X139884871Y-87593925D01*
X140261352Y-87418333D01*
X140698078Y-87213451D01*
X141077971Y-87036764D01*
X141376165Y-86899712D01*
X141567795Y-86813734D01*
X141628476Y-86789381D01*
X141707631Y-86826308D01*
X141905879Y-86920996D01*
X142189872Y-87057478D01*
X142409334Y-87163298D01*
X142791602Y-87352190D01*
X143020050Y-87473844D01*
X143096886Y-87526825D01*
X143024314Y-87509694D01*
X142804542Y-87421015D01*
X142439777Y-87259352D01*
X142335260Y-87211537D01*
X141609325Y-86877741D01*
X140723348Y-87295655D01*
X140360028Y-87475540D01*
X140048043Y-87645786D01*
X139823307Y-87785795D01*
X139726352Y-87867467D01*
X139552047Y-88053883D01*
X139403099Y-88111533D01*
X139322493Y-88058985D01*
X139235768Y-88018041D01*
X139058329Y-88063768D01*
X138866293Y-88149675D01*
X138472334Y-88341075D01*
X138457073Y-88980371D01*
X138447699Y-89266755D01*
X138436624Y-89388578D01*
X138422904Y-89350611D01*
G36*
X137259823Y-87302559D02*
X137436495Y-87045964D01*
X137703990Y-86737142D01*
X138016552Y-86423964D01*
X138328423Y-86154300D01*
X138430000Y-86078309D01*
X138481106Y-86056292D01*
X138423232Y-86135997D01*
X138269524Y-86301845D01*
X138083591Y-86488833D01*
X137801720Y-86773131D01*
X137546029Y-87043306D01*
X137354819Y-87258353D01*
X137294414Y-87333666D01*
X137105646Y-87587666D01*
X137259823Y-87302559D01*
X137259823Y-87302559D01*
G37*
X137259823Y-87302559D02*
X137436495Y-87045964D01*
X137703990Y-86737142D01*
X138016552Y-86423964D01*
X138328423Y-86154300D01*
X138430000Y-86078309D01*
X138481106Y-86056292D01*
X138423232Y-86135997D01*
X138269524Y-86301845D01*
X138083591Y-86488833D01*
X137801720Y-86773131D01*
X137546029Y-87043306D01*
X137354819Y-87258353D01*
X137294414Y-87333666D01*
X137105646Y-87587666D01*
X137259823Y-87302559D01*
G36*
X145835750Y-87187888D02*
X145668785Y-87012795D01*
X145595750Y-86933693D01*
X145330445Y-86655610D01*
X145060065Y-86390263D01*
X144842638Y-86194576D01*
X144840559Y-86192859D01*
X144671039Y-86044965D01*
X144584008Y-85952414D01*
X144583366Y-85936666D01*
X144673622Y-85986595D01*
X144845938Y-86114335D01*
X144971310Y-86215992D01*
X145406630Y-86629892D01*
X145815716Y-87107646D01*
X145920145Y-87249000D01*
X145925584Y-87272500D01*
X145835750Y-87187888D01*
X145835750Y-87187888D01*
G37*
X145835750Y-87187888D02*
X145668785Y-87012795D01*
X145595750Y-86933693D01*
X145330445Y-86655610D01*
X145060065Y-86390263D01*
X144842638Y-86194576D01*
X144840559Y-86192859D01*
X144671039Y-86044965D01*
X144584008Y-85952414D01*
X144583366Y-85936666D01*
X144673622Y-85986595D01*
X144845938Y-86114335D01*
X144971310Y-86215992D01*
X145406630Y-86629892D01*
X145815716Y-87107646D01*
X145920145Y-87249000D01*
X145925584Y-87272500D01*
X145835750Y-87187888D01*
G36*
X144412082Y-85902418D02*
X144321189Y-85817168D01*
X144339834Y-85768157D01*
X144351670Y-85767333D01*
X144423283Y-85827470D01*
X144449419Y-85865082D01*
X144459398Y-85923019D01*
X144412082Y-85902418D01*
X144412082Y-85902418D01*
G37*
X144412082Y-85902418D02*
X144321189Y-85817168D01*
X144339834Y-85768157D01*
X144351670Y-85767333D01*
X144423283Y-85827470D01*
X144449419Y-85865082D01*
X144459398Y-85923019D01*
X144412082Y-85902418D01*
G36*
X144145000Y-85725000D02*
X144187334Y-85682666D01*
X144229667Y-85725000D01*
X144187334Y-85767333D01*
X144145000Y-85725000D01*
X144145000Y-85725000D01*
G37*
X144145000Y-85725000D02*
X144187334Y-85682666D01*
X144229667Y-85725000D01*
X144187334Y-85767333D01*
X144145000Y-85725000D01*
G36*
X143975667Y-85640333D02*
X144018000Y-85598000D01*
X144060334Y-85640333D01*
X144018000Y-85682666D01*
X143975667Y-85640333D01*
X143975667Y-85640333D01*
G37*
X143975667Y-85640333D02*
X144018000Y-85598000D01*
X144060334Y-85640333D01*
X144018000Y-85682666D01*
X143975667Y-85640333D01*
G36*
X138791644Y-85840108D02*
X138948236Y-85730575D01*
X139137100Y-85616065D01*
X139299227Y-85533098D01*
X139364272Y-85513333D01*
X139401027Y-85536942D01*
X139396612Y-85540964D01*
X139260728Y-85632483D01*
X139073220Y-85742990D01*
X138887411Y-85843274D01*
X138756627Y-85904121D01*
X138726334Y-85908144D01*
X138791644Y-85840108D01*
X138791644Y-85840108D01*
G37*
X138791644Y-85840108D02*
X138948236Y-85730575D01*
X139137100Y-85616065D01*
X139299227Y-85533098D01*
X139364272Y-85513333D01*
X139401027Y-85536942D01*
X139396612Y-85540964D01*
X139260728Y-85632483D01*
X139073220Y-85742990D01*
X138887411Y-85843274D01*
X138756627Y-85904121D01*
X138726334Y-85908144D01*
X138791644Y-85840108D01*
G36*
X143768398Y-85545638D02*
X143649224Y-85477316D01*
X143669188Y-85433137D01*
X143716670Y-85428666D01*
X143831480Y-85490158D01*
X143848068Y-85512363D01*
X143834440Y-85560476D01*
X143768398Y-85545638D01*
X143768398Y-85545638D01*
G37*
X143768398Y-85545638D02*
X143649224Y-85477316D01*
X143669188Y-85433137D01*
X143716670Y-85428666D01*
X143831480Y-85490158D01*
X143848068Y-85512363D01*
X143834440Y-85560476D01*
X143768398Y-85545638D01*
G36*
X143411223Y-85400444D02*
X143422845Y-85350110D01*
X143467667Y-85344000D01*
X143537357Y-85374978D01*
X143524112Y-85400444D01*
X143423632Y-85410577D01*
X143411223Y-85400444D01*
X143411223Y-85400444D01*
G37*
X143411223Y-85400444D02*
X143422845Y-85350110D01*
X143467667Y-85344000D01*
X143537357Y-85374978D01*
X143524112Y-85400444D01*
X143423632Y-85410577D01*
X143411223Y-85400444D01*
G36*
X145167307Y-88406934D02*
X145038990Y-88247131D01*
X144910676Y-88059061D01*
X144443891Y-87483415D01*
X143853940Y-87002047D01*
X143167964Y-86631256D01*
X142413107Y-86387340D01*
X142009296Y-86316914D01*
X141392407Y-86311250D01*
X140784193Y-86417901D01*
X139815103Y-86417901D01*
X139762354Y-86233367D01*
X139697398Y-86100967D01*
X139599716Y-85935538D01*
X139504318Y-85898982D01*
X139339299Y-85968534D01*
X139316398Y-85980346D01*
X139144895Y-86093980D01*
X139065636Y-86195682D01*
X139065000Y-86202578D01*
X139123385Y-86231301D01*
X139272252Y-86159012D01*
X139437633Y-86084070D01*
X139528623Y-86102693D01*
X139502790Y-86197028D01*
X139398787Y-86277945D01*
X139277850Y-86365435D01*
X139262164Y-86416053D01*
X139359931Y-86414492D01*
X139475944Y-86366631D01*
X139643866Y-86321429D01*
X139699636Y-86359411D01*
X139671244Y-86449971D01*
X139535441Y-86542563D01*
X139377851Y-86637534D01*
X139319000Y-86714431D01*
X139383433Y-86729735D01*
X139541656Y-86671983D01*
X139573000Y-86656333D01*
X139755941Y-86541229D01*
X139815103Y-86417901D01*
X140784193Y-86417901D01*
X140726297Y-86428053D01*
X140060443Y-86652195D01*
X139660195Y-86857708D01*
X139231794Y-86857708D01*
X139047808Y-86608854D01*
X138905839Y-86444805D01*
X138793951Y-86362312D01*
X138780967Y-86360000D01*
X138740850Y-86398824D01*
X138753821Y-86415710D01*
X138761746Y-86515924D01*
X138664321Y-86625959D01*
X138513958Y-86694115D01*
X138466964Y-86698666D01*
X138304633Y-86746842D01*
X138252582Y-86796415D01*
X138242573Y-86855087D01*
X138280887Y-86839333D01*
X138363630Y-86867148D01*
X138422582Y-86995585D01*
X138526412Y-87166924D01*
X138707027Y-87193992D01*
X138951236Y-87075967D01*
X139009979Y-87032187D01*
X139231794Y-86857708D01*
X139660195Y-86857708D01*
X139444323Y-86968550D01*
X139110528Y-87203150D01*
X138896073Y-87400287D01*
X138828721Y-87472897D01*
X138507108Y-87472897D01*
X138474570Y-87430102D01*
X138363938Y-87435509D01*
X138149169Y-87414437D01*
X138006800Y-87345534D01*
X137851870Y-87257724D01*
X137799730Y-87281931D01*
X137870403Y-87407039D01*
X137878402Y-87416809D01*
X137973794Y-87589683D01*
X138051134Y-87821022D01*
X138116334Y-88095666D01*
X138125001Y-87820500D01*
X138155762Y-87623017D01*
X138248266Y-87549488D01*
X138298004Y-87545333D01*
X138456063Y-87512334D01*
X138507108Y-87472897D01*
X138828721Y-87472897D01*
X138652988Y-87662348D01*
X138418016Y-87944907D01*
X138227900Y-88203537D01*
X138119382Y-88393812D01*
X138114334Y-88407667D01*
X138041740Y-88447012D01*
X137862123Y-88407076D01*
X137600191Y-88303430D01*
X137348756Y-88184122D01*
X137174559Y-88081611D01*
X137119112Y-88025348D01*
X137162047Y-87923225D01*
X137275518Y-87726089D01*
X137419654Y-87500067D01*
X137919737Y-86880541D01*
X138540142Y-86325718D01*
X139240281Y-85864068D01*
X139979568Y-85524064D01*
X140428397Y-85389503D01*
X140948088Y-85306321D01*
X141542023Y-85272995D01*
X142137010Y-85289856D01*
X142659855Y-85357237D01*
X142758259Y-85378953D01*
X143468209Y-85618065D01*
X144171883Y-85975994D01*
X144489472Y-86197635D01*
X144166544Y-86197635D01*
X144156233Y-86190666D01*
X144062483Y-86258322D01*
X144027657Y-86323033D01*
X143947975Y-86412361D01*
X143862384Y-86367547D01*
X143809833Y-86217733D01*
X143806334Y-86157448D01*
X143772409Y-85956539D01*
X143687980Y-85855265D01*
X143667397Y-85852000D01*
X143615312Y-85918573D01*
X143523048Y-86080944D01*
X143512175Y-86101795D01*
X143413542Y-86327216D01*
X143409110Y-86352075D01*
X143213667Y-86352075D01*
X143148076Y-86278595D01*
X143121558Y-86275333D01*
X143067681Y-86197461D01*
X143069840Y-85973137D01*
X143076677Y-85915500D01*
X143123905Y-85555666D01*
X143057046Y-85712042D01*
X142519557Y-85712042D01*
X142417994Y-85540738D01*
X142388167Y-85520115D01*
X142163334Y-85437382D01*
X141978666Y-85499209D01*
X141907381Y-85561714D01*
X141791596Y-85697094D01*
X141813449Y-85756064D01*
X141941010Y-85767333D01*
X142061372Y-85728674D01*
X142055656Y-85631746D01*
X142062628Y-85535728D01*
X142157739Y-85524164D01*
X142289044Y-85586384D01*
X142398824Y-85702245D01*
X142437181Y-85836789D01*
X141576656Y-85836789D01*
X141535067Y-85638089D01*
X141406921Y-85483799D01*
X141224000Y-85428666D01*
X141016336Y-85499211D01*
X140925956Y-85601198D01*
X140869596Y-85842738D01*
X140945670Y-86041154D01*
X140984510Y-86066369D01*
X140659172Y-86066369D01*
X140640539Y-85890343D01*
X140595928Y-85706560D01*
X140539858Y-85579079D01*
X140498748Y-85559119D01*
X140460812Y-85664150D01*
X140474757Y-85727711D01*
X140469562Y-85831985D01*
X140383449Y-85842062D01*
X140283721Y-85752858D01*
X140214852Y-85732810D01*
X140149561Y-85850748D01*
X140088035Y-85987269D01*
X140025084Y-85973779D01*
X139954530Y-85886390D01*
X139859726Y-85779116D01*
X139835995Y-85808116D01*
X139882025Y-85981231D01*
X139919950Y-86093366D01*
X140017406Y-86302557D01*
X140104668Y-86343117D01*
X140180982Y-86214925D01*
X140202820Y-86138829D01*
X140252229Y-85986918D01*
X140321717Y-85982354D01*
X140424185Y-86067755D01*
X140562023Y-86163059D01*
X140637312Y-86170577D01*
X140659172Y-86066369D01*
X140984510Y-86066369D01*
X141121500Y-86155303D01*
X141358597Y-86145922D01*
X141521296Y-86024524D01*
X141576656Y-85836789D01*
X142437181Y-85836789D01*
X142440714Y-85849178D01*
X142343030Y-85996923D01*
X142203155Y-86095180D01*
X142061418Y-86060653D01*
X142026965Y-86040127D01*
X141897269Y-85988147D01*
X141859000Y-86019003D01*
X141930404Y-86108708D01*
X142096563Y-86158172D01*
X142285400Y-86156142D01*
X142410433Y-86105087D01*
X142518042Y-85926548D01*
X142519557Y-85712042D01*
X143057046Y-85712042D01*
X142986420Y-85877224D01*
X142864468Y-86092090D01*
X142750939Y-86159032D01*
X142734967Y-86155048D01*
X142633826Y-86152885D01*
X142621000Y-86179118D01*
X142693392Y-86245620D01*
X142872054Y-86323177D01*
X142917334Y-86337870D01*
X143111792Y-86379260D01*
X143210028Y-86363337D01*
X143213667Y-86352075D01*
X143409110Y-86352075D01*
X143390137Y-86458475D01*
X143438723Y-86474747D01*
X143552334Y-86360000D01*
X143717902Y-86148333D01*
X143721081Y-86360000D01*
X143749697Y-86548963D01*
X143812849Y-86710941D01*
X143884791Y-86790893D01*
X143917963Y-86780881D01*
X144006629Y-86647345D01*
X144093571Y-86466100D01*
X144154854Y-86296434D01*
X144166544Y-86197635D01*
X144489472Y-86197635D01*
X144803524Y-86416807D01*
X145039342Y-86625513D01*
X145264096Y-86857114D01*
X144907000Y-86857114D01*
X144841933Y-86669263D01*
X144690251Y-86508303D01*
X144526000Y-86444666D01*
X144377252Y-86500182D01*
X144278048Y-86577714D01*
X144161756Y-86740465D01*
X144172492Y-86912764D01*
X144232646Y-87042899D01*
X144383532Y-87180652D01*
X144582139Y-87202086D01*
X144770490Y-87123173D01*
X144890605Y-86959886D01*
X144907000Y-86857114D01*
X145264096Y-86857114D01*
X145328237Y-86923209D01*
X145602499Y-87241401D01*
X145837240Y-87547160D01*
X145874364Y-87603914D01*
X145663501Y-87603914D01*
X145612625Y-87566066D01*
X145492400Y-87589973D01*
X145371782Y-87615141D01*
X145370622Y-87549597D01*
X145416849Y-87457212D01*
X145474522Y-87327960D01*
X145426189Y-87297137D01*
X145275949Y-87328191D01*
X145119609Y-87357192D01*
X145101994Y-87324037D01*
X145139834Y-87280391D01*
X145231410Y-87150908D01*
X145245667Y-87100070D01*
X145190973Y-87069266D01*
X145039081Y-87153418D01*
X144885834Y-87275000D01*
X144753303Y-87428031D01*
X144773979Y-87515619D01*
X144941973Y-87524374D01*
X144991667Y-87515700D01*
X145183204Y-87489972D01*
X145234944Y-87540542D01*
X145170013Y-87697555D01*
X145154141Y-87727484D01*
X145094916Y-87893325D01*
X145156758Y-87941512D01*
X145338487Y-87871563D01*
X145409139Y-87831661D01*
X145592888Y-87700526D01*
X145663501Y-87603914D01*
X145874364Y-87603914D01*
X146007575Y-87807556D01*
X146088618Y-87989661D01*
X146092016Y-88018412D01*
X146020576Y-88092579D01*
X145838127Y-88197942D01*
X145692674Y-88265000D01*
X145454159Y-88366413D01*
X145284141Y-88439063D01*
X145238325Y-88458889D01*
X145167307Y-88406934D01*
X145167307Y-88406934D01*
G37*
X145167307Y-88406934D02*
X145038990Y-88247131D01*
X144910676Y-88059061D01*
X144443891Y-87483415D01*
X143853940Y-87002047D01*
X143167964Y-86631256D01*
X142413107Y-86387340D01*
X142009296Y-86316914D01*
X141392407Y-86311250D01*
X140784193Y-86417901D01*
X139815103Y-86417901D01*
X139762354Y-86233367D01*
X139697398Y-86100967D01*
X139599716Y-85935538D01*
X139504318Y-85898982D01*
X139339299Y-85968534D01*
X139316398Y-85980346D01*
X139144895Y-86093980D01*
X139065636Y-86195682D01*
X139065000Y-86202578D01*
X139123385Y-86231301D01*
X139272252Y-86159012D01*
X139437633Y-86084070D01*
X139528623Y-86102693D01*
X139502790Y-86197028D01*
X139398787Y-86277945D01*
X139277850Y-86365435D01*
X139262164Y-86416053D01*
X139359931Y-86414492D01*
X139475944Y-86366631D01*
X139643866Y-86321429D01*
X139699636Y-86359411D01*
X139671244Y-86449971D01*
X139535441Y-86542563D01*
X139377851Y-86637534D01*
X139319000Y-86714431D01*
X139383433Y-86729735D01*
X139541656Y-86671983D01*
X139573000Y-86656333D01*
X139755941Y-86541229D01*
X139815103Y-86417901D01*
X140784193Y-86417901D01*
X140726297Y-86428053D01*
X140060443Y-86652195D01*
X139660195Y-86857708D01*
X139231794Y-86857708D01*
X139047808Y-86608854D01*
X138905839Y-86444805D01*
X138793951Y-86362312D01*
X138780967Y-86360000D01*
X138740850Y-86398824D01*
X138753821Y-86415710D01*
X138761746Y-86515924D01*
X138664321Y-86625959D01*
X138513958Y-86694115D01*
X138466964Y-86698666D01*
X138304633Y-86746842D01*
X138252582Y-86796415D01*
X138242573Y-86855087D01*
X138280887Y-86839333D01*
X138363630Y-86867148D01*
X138422582Y-86995585D01*
X138526412Y-87166924D01*
X138707027Y-87193992D01*
X138951236Y-87075967D01*
X139009979Y-87032187D01*
X139231794Y-86857708D01*
X139660195Y-86857708D01*
X139444323Y-86968550D01*
X139110528Y-87203150D01*
X138896073Y-87400287D01*
X138828721Y-87472897D01*
X138507108Y-87472897D01*
X138474570Y-87430102D01*
X138363938Y-87435509D01*
X138149169Y-87414437D01*
X138006800Y-87345534D01*
X137851870Y-87257724D01*
X137799730Y-87281931D01*
X137870403Y-87407039D01*
X137878402Y-87416809D01*
X137973794Y-87589683D01*
X138051134Y-87821022D01*
X138116334Y-88095666D01*
X138125001Y-87820500D01*
X138155762Y-87623017D01*
X138248266Y-87549488D01*
X138298004Y-87545333D01*
X138456063Y-87512334D01*
X138507108Y-87472897D01*
X138828721Y-87472897D01*
X138652988Y-87662348D01*
X138418016Y-87944907D01*
X138227900Y-88203537D01*
X138119382Y-88393812D01*
X138114334Y-88407667D01*
X138041740Y-88447012D01*
X137862123Y-88407076D01*
X137600191Y-88303430D01*
X137348756Y-88184122D01*
X137174559Y-88081611D01*
X137119112Y-88025348D01*
X137162047Y-87923225D01*
X137275518Y-87726089D01*
X137419654Y-87500067D01*
X137919737Y-86880541D01*
X138540142Y-86325718D01*
X139240281Y-85864068D01*
X139979568Y-85524064D01*
X140428397Y-85389503D01*
X140948088Y-85306321D01*
X141542023Y-85272995D01*
X142137010Y-85289856D01*
X142659855Y-85357237D01*
X142758259Y-85378953D01*
X143468209Y-85618065D01*
X144171883Y-85975994D01*
X144489472Y-86197635D01*
X144166544Y-86197635D01*
X144156233Y-86190666D01*
X144062483Y-86258322D01*
X144027657Y-86323033D01*
X143947975Y-86412361D01*
X143862384Y-86367547D01*
X143809833Y-86217733D01*
X143806334Y-86157448D01*
X143772409Y-85956539D01*
X143687980Y-85855265D01*
X143667397Y-85852000D01*
X143615312Y-85918573D01*
X143523048Y-86080944D01*
X143512175Y-86101795D01*
X143413542Y-86327216D01*
X143409110Y-86352075D01*
X143213667Y-86352075D01*
X143148076Y-86278595D01*
X143121558Y-86275333D01*
X143067681Y-86197461D01*
X143069840Y-85973137D01*
X143076677Y-85915500D01*
X143123905Y-85555666D01*
X143057046Y-85712042D01*
X142519557Y-85712042D01*
X142417994Y-85540738D01*
X142388167Y-85520115D01*
X142163334Y-85437382D01*
X141978666Y-85499209D01*
X141907381Y-85561714D01*
X141791596Y-85697094D01*
X141813449Y-85756064D01*
X141941010Y-85767333D01*
X142061372Y-85728674D01*
X142055656Y-85631746D01*
X142062628Y-85535728D01*
X142157739Y-85524164D01*
X142289044Y-85586384D01*
X142398824Y-85702245D01*
X142437181Y-85836789D01*
X141576656Y-85836789D01*
X141535067Y-85638089D01*
X141406921Y-85483799D01*
X141224000Y-85428666D01*
X141016336Y-85499211D01*
X140925956Y-85601198D01*
X140869596Y-85842738D01*
X140945670Y-86041154D01*
X140984510Y-86066369D01*
X140659172Y-86066369D01*
X140640539Y-85890343D01*
X140595928Y-85706560D01*
X140539858Y-85579079D01*
X140498748Y-85559119D01*
X140460812Y-85664150D01*
X140474757Y-85727711D01*
X140469562Y-85831985D01*
X140383449Y-85842062D01*
X140283721Y-85752858D01*
X140214852Y-85732810D01*
X140149561Y-85850748D01*
X140088035Y-85987269D01*
X140025084Y-85973779D01*
X139954530Y-85886390D01*
X139859726Y-85779116D01*
X139835995Y-85808116D01*
X139882025Y-85981231D01*
X139919950Y-86093366D01*
X140017406Y-86302557D01*
X140104668Y-86343117D01*
X140180982Y-86214925D01*
X140202820Y-86138829D01*
X140252229Y-85986918D01*
X140321717Y-85982354D01*
X140424185Y-86067755D01*
X140562023Y-86163059D01*
X140637312Y-86170577D01*
X140659172Y-86066369D01*
X140984510Y-86066369D01*
X141121500Y-86155303D01*
X141358597Y-86145922D01*
X141521296Y-86024524D01*
X141576656Y-85836789D01*
X142437181Y-85836789D01*
X142440714Y-85849178D01*
X142343030Y-85996923D01*
X142203155Y-86095180D01*
X142061418Y-86060653D01*
X142026965Y-86040127D01*
X141897269Y-85988147D01*
X141859000Y-86019003D01*
X141930404Y-86108708D01*
X142096563Y-86158172D01*
X142285400Y-86156142D01*
X142410433Y-86105087D01*
X142518042Y-85926548D01*
X142519557Y-85712042D01*
X143057046Y-85712042D01*
X142986420Y-85877224D01*
X142864468Y-86092090D01*
X142750939Y-86159032D01*
X142734967Y-86155048D01*
X142633826Y-86152885D01*
X142621000Y-86179118D01*
X142693392Y-86245620D01*
X142872054Y-86323177D01*
X142917334Y-86337870D01*
X143111792Y-86379260D01*
X143210028Y-86363337D01*
X143213667Y-86352075D01*
X143409110Y-86352075D01*
X143390137Y-86458475D01*
X143438723Y-86474747D01*
X143552334Y-86360000D01*
X143717902Y-86148333D01*
X143721081Y-86360000D01*
X143749697Y-86548963D01*
X143812849Y-86710941D01*
X143884791Y-86790893D01*
X143917963Y-86780881D01*
X144006629Y-86647345D01*
X144093571Y-86466100D01*
X144154854Y-86296434D01*
X144166544Y-86197635D01*
X144489472Y-86197635D01*
X144803524Y-86416807D01*
X145039342Y-86625513D01*
X145264096Y-86857114D01*
X144907000Y-86857114D01*
X144841933Y-86669263D01*
X144690251Y-86508303D01*
X144526000Y-86444666D01*
X144377252Y-86500182D01*
X144278048Y-86577714D01*
X144161756Y-86740465D01*
X144172492Y-86912764D01*
X144232646Y-87042899D01*
X144383532Y-87180652D01*
X144582139Y-87202086D01*
X144770490Y-87123173D01*
X144890605Y-86959886D01*
X144907000Y-86857114D01*
X145264096Y-86857114D01*
X145328237Y-86923209D01*
X145602499Y-87241401D01*
X145837240Y-87547160D01*
X145874364Y-87603914D01*
X145663501Y-87603914D01*
X145612625Y-87566066D01*
X145492400Y-87589973D01*
X145371782Y-87615141D01*
X145370622Y-87549597D01*
X145416849Y-87457212D01*
X145474522Y-87327960D01*
X145426189Y-87297137D01*
X145275949Y-87328191D01*
X145119609Y-87357192D01*
X145101994Y-87324037D01*
X145139834Y-87280391D01*
X145231410Y-87150908D01*
X145245667Y-87100070D01*
X145190973Y-87069266D01*
X145039081Y-87153418D01*
X144885834Y-87275000D01*
X144753303Y-87428031D01*
X144773979Y-87515619D01*
X144941973Y-87524374D01*
X144991667Y-87515700D01*
X145183204Y-87489972D01*
X145234944Y-87540542D01*
X145170013Y-87697555D01*
X145154141Y-87727484D01*
X145094916Y-87893325D01*
X145156758Y-87941512D01*
X145338487Y-87871563D01*
X145409139Y-87831661D01*
X145592888Y-87700526D01*
X145663501Y-87603914D01*
X145874364Y-87603914D01*
X146007575Y-87807556D01*
X146088618Y-87989661D01*
X146092016Y-88018412D01*
X146020576Y-88092579D01*
X145838127Y-88197942D01*
X145692674Y-88265000D01*
X145454159Y-88366413D01*
X145284141Y-88439063D01*
X145238325Y-88458889D01*
X145167307Y-88406934D01*
G36*
X143157223Y-85315778D02*
X143168845Y-85265443D01*
X143213667Y-85259333D01*
X143283357Y-85290311D01*
X143270112Y-85315778D01*
X143169632Y-85325911D01*
X143157223Y-85315778D01*
X143157223Y-85315778D01*
G37*
X143157223Y-85315778D02*
X143168845Y-85265443D01*
X143213667Y-85259333D01*
X143283357Y-85290311D01*
X143270112Y-85315778D01*
X143169632Y-85325911D01*
X143157223Y-85315778D01*
G36*
X139507996Y-85476551D02*
X139562790Y-85437954D01*
X139725174Y-85369403D01*
X139940787Y-85290386D01*
X140155264Y-85220392D01*
X140314243Y-85178910D01*
X140350083Y-85174666D01*
X140419400Y-85207475D01*
X140419667Y-85210631D01*
X140346809Y-85252798D01*
X140166337Y-85317345D01*
X139935409Y-85387602D01*
X139711178Y-85446897D01*
X139550802Y-85478559D01*
X139507996Y-85476551D01*
X139507996Y-85476551D01*
G37*
X139507996Y-85476551D02*
X139562790Y-85437954D01*
X139725174Y-85369403D01*
X139940787Y-85290386D01*
X140155264Y-85220392D01*
X140314243Y-85178910D01*
X140350083Y-85174666D01*
X140419400Y-85207475D01*
X140419667Y-85210631D01*
X140346809Y-85252798D01*
X140166337Y-85317345D01*
X139935409Y-85387602D01*
X139711178Y-85446897D01*
X139550802Y-85478559D01*
X139507996Y-85476551D01*
G36*
X142903223Y-85231111D02*
X142914845Y-85180777D01*
X142959667Y-85174666D01*
X143029357Y-85205645D01*
X143016112Y-85231111D01*
X142915632Y-85241244D01*
X142903223Y-85231111D01*
X142903223Y-85231111D01*
G37*
X142903223Y-85231111D02*
X142914845Y-85180777D01*
X142959667Y-85174666D01*
X143029357Y-85205645D01*
X143016112Y-85231111D01*
X142915632Y-85241244D01*
X142903223Y-85231111D01*
G36*
X140566222Y-85145536D02*
X140563408Y-85117741D01*
X140695950Y-85106389D01*
X140716000Y-85106505D01*
X140847315Y-85118714D01*
X140834780Y-85144483D01*
X140820222Y-85148673D01*
X140635792Y-85161068D01*
X140566222Y-85145536D01*
X140566222Y-85145536D01*
G37*
X140566222Y-85145536D02*
X140563408Y-85117741D01*
X140695950Y-85106389D01*
X140716000Y-85106505D01*
X140847315Y-85118714D01*
X140834780Y-85144483D01*
X140820222Y-85148673D01*
X140635792Y-85161068D01*
X140566222Y-85145536D01*
G36*
X142474598Y-85141153D02*
X142499849Y-85102671D01*
X142585723Y-85096684D01*
X142676065Y-85117361D01*
X142636875Y-85147837D01*
X142504552Y-85157930D01*
X142474598Y-85141153D01*
X142474598Y-85141153D01*
G37*
X142474598Y-85141153D02*
X142499849Y-85102671D01*
X142585723Y-85096684D01*
X142676065Y-85117361D01*
X142636875Y-85147837D01*
X142504552Y-85157930D01*
X142474598Y-85141153D01*
G36*
X141287500Y-85067010D02*
X141213033Y-85051866D01*
X141290221Y-85040342D01*
X141501396Y-85034285D01*
X141605000Y-85033799D01*
X141859396Y-85037476D01*
X141986062Y-85047275D01*
X141967330Y-85061348D01*
X141922500Y-85067010D01*
X141604583Y-85080710D01*
X141287500Y-85067010D01*
X141287500Y-85067010D01*
G37*
X141287500Y-85067010D02*
X141213033Y-85051866D01*
X141290221Y-85040342D01*
X141501396Y-85034285D01*
X141605000Y-85033799D01*
X141859396Y-85037476D01*
X141986062Y-85047275D01*
X141967330Y-85061348D01*
X141922500Y-85067010D01*
X141604583Y-85080710D01*
X141287500Y-85067010D01*
G04 #@! TO.C, *
D11*
G04 #@! TO.C,J1*
X82637380Y-96853333D02*
X83351666Y-96853333D01*
X83494523Y-96900952D01*
X83589761Y-96996190D01*
X83637380Y-97139047D01*
X83637380Y-97234285D01*
X83637380Y-95853333D02*
X83637380Y-96424761D01*
X83637380Y-96139047D02*
X82637380Y-96139047D01*
X82780238Y-96234285D01*
X82875476Y-96329523D01*
X82923095Y-96424761D01*
G04 #@! TO.C,J2*
X167092380Y-102568333D02*
X167806666Y-102568333D01*
X167949523Y-102615952D01*
X168044761Y-102711190D01*
X168092380Y-102854047D01*
X168092380Y-102949285D01*
X167187619Y-102139761D02*
X167140000Y-102092142D01*
X167092380Y-101996904D01*
X167092380Y-101758809D01*
X167140000Y-101663571D01*
X167187619Y-101615952D01*
X167282857Y-101568333D01*
X167378095Y-101568333D01*
X167520952Y-101615952D01*
X168092380Y-102187380D01*
X168092380Y-101568333D01*
G04 #@! TO.C,U1*
X104667380Y-76326904D02*
X105476904Y-76326904D01*
X105572142Y-76279285D01*
X105619761Y-76231666D01*
X105667380Y-76136428D01*
X105667380Y-75945952D01*
X105619761Y-75850714D01*
X105572142Y-75803095D01*
X105476904Y-75755476D01*
X104667380Y-75755476D01*
X105667380Y-74755476D02*
X105667380Y-75326904D01*
X105667380Y-75041190D02*
X104667380Y-75041190D01*
X104810238Y-75136428D01*
X104905476Y-75231666D01*
X104953095Y-75326904D01*
G04 #@! TO.C,U2*
X104667380Y-106171904D02*
X105476904Y-106171904D01*
X105572142Y-106124285D01*
X105619761Y-106076666D01*
X105667380Y-105981428D01*
X105667380Y-105790952D01*
X105619761Y-105695714D01*
X105572142Y-105648095D01*
X105476904Y-105600476D01*
X104667380Y-105600476D01*
X104762619Y-105171904D02*
X104715000Y-105124285D01*
X104667380Y-105029047D01*
X104667380Y-104790952D01*
X104715000Y-104695714D01*
X104762619Y-104648095D01*
X104857857Y-104600476D01*
X104953095Y-104600476D01*
X105095952Y-104648095D01*
X105667380Y-105219523D01*
X105667380Y-104600476D01*
G04 #@! TO.C,U3*
X87717380Y-90931904D02*
X88526904Y-90931904D01*
X88622142Y-90884285D01*
X88669761Y-90836666D01*
X88717380Y-90741428D01*
X88717380Y-90550952D01*
X88669761Y-90455714D01*
X88622142Y-90408095D01*
X88526904Y-90360476D01*
X87717380Y-90360476D01*
X87717380Y-89979523D02*
X87717380Y-89360476D01*
X88098333Y-89693809D01*
X88098333Y-89550952D01*
X88145952Y-89455714D01*
X88193571Y-89408095D01*
X88288809Y-89360476D01*
X88526904Y-89360476D01*
X88622142Y-89408095D01*
X88669761Y-89455714D01*
X88717380Y-89550952D01*
X88717380Y-89836666D01*
X88669761Y-89931904D01*
X88622142Y-89979523D01*
G04 #@! TO.C,U4*
X146577380Y-76326904D02*
X147386904Y-76326904D01*
X147482142Y-76279285D01*
X147529761Y-76231666D01*
X147577380Y-76136428D01*
X147577380Y-75945952D01*
X147529761Y-75850714D01*
X147482142Y-75803095D01*
X147386904Y-75755476D01*
X146577380Y-75755476D01*
X146910714Y-74850714D02*
X147577380Y-74850714D01*
X146529761Y-75088809D02*
X147244047Y-75326904D01*
X147244047Y-74707857D01*
G04 #@! TO.C,U5*
X124987380Y-76326904D02*
X125796904Y-76326904D01*
X125892142Y-76279285D01*
X125939761Y-76231666D01*
X125987380Y-76136428D01*
X125987380Y-75945952D01*
X125939761Y-75850714D01*
X125892142Y-75803095D01*
X125796904Y-75755476D01*
X124987380Y-75755476D01*
X124987380Y-74803095D02*
X124987380Y-75279285D01*
X125463571Y-75326904D01*
X125415952Y-75279285D01*
X125368333Y-75184047D01*
X125368333Y-74945952D01*
X125415952Y-74850714D01*
X125463571Y-74803095D01*
X125558809Y-74755476D01*
X125796904Y-74755476D01*
X125892142Y-74803095D01*
X125939761Y-74850714D01*
X125987380Y-74945952D01*
X125987380Y-75184047D01*
X125939761Y-75279285D01*
X125892142Y-75326904D01*
G04 #@! TO.C,U6*
X146577380Y-106171904D02*
X147386904Y-106171904D01*
X147482142Y-106124285D01*
X147529761Y-106076666D01*
X147577380Y-105981428D01*
X147577380Y-105790952D01*
X147529761Y-105695714D01*
X147482142Y-105648095D01*
X147386904Y-105600476D01*
X146577380Y-105600476D01*
X146577380Y-104695714D02*
X146577380Y-104886190D01*
X146625000Y-104981428D01*
X146672619Y-105029047D01*
X146815476Y-105124285D01*
X147005952Y-105171904D01*
X147386904Y-105171904D01*
X147482142Y-105124285D01*
X147529761Y-105076666D01*
X147577380Y-104981428D01*
X147577380Y-104790952D01*
X147529761Y-104695714D01*
X147482142Y-104648095D01*
X147386904Y-104600476D01*
X147148809Y-104600476D01*
X147053571Y-104648095D01*
X147005952Y-104695714D01*
X146958333Y-104790952D01*
X146958333Y-104981428D01*
X147005952Y-105076666D01*
X147053571Y-105124285D01*
X147148809Y-105171904D01*
G04 #@! TO.C,U7*
X83712380Y-76326904D02*
X84521904Y-76326904D01*
X84617142Y-76279285D01*
X84664761Y-76231666D01*
X84712380Y-76136428D01*
X84712380Y-75945952D01*
X84664761Y-75850714D01*
X84617142Y-75803095D01*
X84521904Y-75755476D01*
X83712380Y-75755476D01*
X83712380Y-75374523D02*
X83712380Y-74707857D01*
X84712380Y-75136428D01*
G04 #@! TO.C,U8*
X125622380Y-106171904D02*
X126431904Y-106171904D01*
X126527142Y-106124285D01*
X126574761Y-106076666D01*
X126622380Y-105981428D01*
X126622380Y-105790952D01*
X126574761Y-105695714D01*
X126527142Y-105648095D01*
X126431904Y-105600476D01*
X125622380Y-105600476D01*
X126050952Y-104981428D02*
X126003333Y-105076666D01*
X125955714Y-105124285D01*
X125860476Y-105171904D01*
X125812857Y-105171904D01*
X125717619Y-105124285D01*
X125670000Y-105076666D01*
X125622380Y-104981428D01*
X125622380Y-104790952D01*
X125670000Y-104695714D01*
X125717619Y-104648095D01*
X125812857Y-104600476D01*
X125860476Y-104600476D01*
X125955714Y-104648095D01*
X126003333Y-104695714D01*
X126050952Y-104790952D01*
X126050952Y-104981428D01*
X126098571Y-105076666D01*
X126146190Y-105124285D01*
X126241428Y-105171904D01*
X126431904Y-105171904D01*
X126527142Y-105124285D01*
X126574761Y-105076666D01*
X126622380Y-104981428D01*
X126622380Y-104790952D01*
X126574761Y-104695714D01*
X126527142Y-104648095D01*
X126431904Y-104600476D01*
X126241428Y-104600476D01*
X126146190Y-104648095D01*
X126098571Y-104695714D01*
X126050952Y-104790952D01*
G04 #@! TO.C,U9*
X83712380Y-106171904D02*
X84521904Y-106171904D01*
X84617142Y-106124285D01*
X84664761Y-106076666D01*
X84712380Y-105981428D01*
X84712380Y-105790952D01*
X84664761Y-105695714D01*
X84617142Y-105648095D01*
X84521904Y-105600476D01*
X83712380Y-105600476D01*
X84712380Y-105076666D02*
X84712380Y-104886190D01*
X84664761Y-104790952D01*
X84617142Y-104743333D01*
X84474285Y-104648095D01*
X84283809Y-104600476D01*
X83902857Y-104600476D01*
X83807619Y-104648095D01*
X83760000Y-104695714D01*
X83712380Y-104790952D01*
X83712380Y-104981428D01*
X83760000Y-105076666D01*
X83807619Y-105124285D01*
X83902857Y-105171904D01*
X84140952Y-105171904D01*
X84236190Y-105124285D01*
X84283809Y-105076666D01*
X84331428Y-104981428D01*
X84331428Y-104790952D01*
X84283809Y-104695714D01*
X84236190Y-104648095D01*
X84140952Y-104600476D01*
G04 #@! TO.C,U10*
X146577380Y-91408095D02*
X147386904Y-91408095D01*
X147482142Y-91360476D01*
X147529761Y-91312857D01*
X147577380Y-91217619D01*
X147577380Y-91027142D01*
X147529761Y-90931904D01*
X147482142Y-90884285D01*
X147386904Y-90836666D01*
X146577380Y-90836666D01*
X147577380Y-89836666D02*
X147577380Y-90408095D01*
X147577380Y-90122380D02*
X146577380Y-90122380D01*
X146720238Y-90217619D01*
X146815476Y-90312857D01*
X146863095Y-90408095D01*
X146577380Y-89217619D02*
X146577380Y-89122380D01*
X146625000Y-89027142D01*
X146672619Y-88979523D01*
X146767857Y-88931904D01*
X146958333Y-88884285D01*
X147196428Y-88884285D01*
X147386904Y-88931904D01*
X147482142Y-88979523D01*
X147529761Y-89027142D01*
X147577380Y-89122380D01*
X147577380Y-89217619D01*
X147529761Y-89312857D01*
X147482142Y-89360476D01*
X147386904Y-89408095D01*
X147196428Y-89455714D01*
X146958333Y-89455714D01*
X146767857Y-89408095D01*
X146672619Y-89360476D01*
X146625000Y-89312857D01*
X146577380Y-89217619D01*
G04 #@! TD*
M02*
