G04 #@! TF.GenerationSoftware,KiCad,Pcbnew,(5.0.0)*
G04 #@! TF.CreationDate,2018-09-20T19:37:14-04:00*
G04 #@! TF.ProjectId,Register,52656769737465722E6B696361645F70,rev?*
G04 #@! TF.SameCoordinates,Original*
G04 #@! TF.FileFunction,Soldermask,Top*
G04 #@! TF.FilePolarity,Negative*
%FSLAX46Y46*%
G04 Gerber Fmt 4.6, Leading zero omitted, Abs format (unit mm)*
G04 Created by KiCad (PCBNEW (5.0.0)) date 09/20/18 19:37:14*
%MOMM*%
%LPD*%
G01*
G04 APERTURE LIST*
%ADD10C,1.900000*%
%ADD11O,1.600000X2.400000*%
G04 APERTURE END LIST*
D10*
G04 #@! TO.C, *
X167640000Y-109855000D03*
G04 #@! TD*
G04 #@! TO.C, *
X83185000Y-71120000D03*
G04 #@! TD*
G04 #@! TO.C,J1*
X83185000Y-93980000D03*
X83185000Y-91440000D03*
X83185000Y-88900000D03*
X83185000Y-86360000D03*
G04 #@! TD*
G04 #@! TO.C,J2*
X167640000Y-99060000D03*
X167640000Y-96520000D03*
X167640000Y-93980000D03*
X167640000Y-91440000D03*
X167640000Y-88900000D03*
X167640000Y-86360000D03*
X167640000Y-83820000D03*
X167640000Y-81280000D03*
G04 #@! TD*
D11*
G04 #@! TO.C,U1*
X107315000Y-71755000D03*
X107315000Y-79375000D03*
X109855000Y-71755000D03*
X109855000Y-79375000D03*
X112395000Y-71755000D03*
X112395000Y-79375000D03*
X114935000Y-71755000D03*
X114935000Y-79375000D03*
X117475000Y-71755000D03*
X117475000Y-79375000D03*
X120015000Y-71755000D03*
X120015000Y-79375000D03*
X122555000Y-71755000D03*
X122555000Y-79375000D03*
G04 #@! TD*
G04 #@! TO.C,U2*
X122555000Y-109220000D03*
X122555000Y-101600000D03*
X120015000Y-109220000D03*
X120015000Y-101600000D03*
X117475000Y-109220000D03*
X117475000Y-101600000D03*
X114935000Y-109220000D03*
X114935000Y-101600000D03*
X112395000Y-109220000D03*
X112395000Y-101600000D03*
X109855000Y-109220000D03*
X109855000Y-101600000D03*
X107315000Y-109220000D03*
X107315000Y-101600000D03*
G04 #@! TD*
G04 #@! TO.C,U3*
X86360000Y-86360000D03*
X86360000Y-93980000D03*
X88900000Y-86360000D03*
X88900000Y-93980000D03*
X91440000Y-86360000D03*
X91440000Y-93980000D03*
X93980000Y-86360000D03*
X93980000Y-93980000D03*
X96520000Y-86360000D03*
X96520000Y-93980000D03*
X99060000Y-86360000D03*
X99060000Y-93980000D03*
X101600000Y-86360000D03*
X101600000Y-93980000D03*
G04 #@! TD*
G04 #@! TO.C,U4*
X164465000Y-79375000D03*
X164465000Y-71755000D03*
X161925000Y-79375000D03*
X161925000Y-71755000D03*
X159385000Y-79375000D03*
X159385000Y-71755000D03*
X156845000Y-79375000D03*
X156845000Y-71755000D03*
X154305000Y-79375000D03*
X154305000Y-71755000D03*
X151765000Y-79375000D03*
X151765000Y-71755000D03*
X149225000Y-79375000D03*
X149225000Y-71755000D03*
G04 #@! TD*
G04 #@! TO.C,U5*
X127635000Y-71755000D03*
X127635000Y-79375000D03*
X130175000Y-71755000D03*
X130175000Y-79375000D03*
X132715000Y-71755000D03*
X132715000Y-79375000D03*
X135255000Y-71755000D03*
X135255000Y-79375000D03*
X137795000Y-71755000D03*
X137795000Y-79375000D03*
X140335000Y-71755000D03*
X140335000Y-79375000D03*
X142875000Y-71755000D03*
X142875000Y-79375000D03*
G04 #@! TD*
G04 #@! TO.C,U6*
X164465000Y-109220000D03*
X164465000Y-101600000D03*
X161925000Y-109220000D03*
X161925000Y-101600000D03*
X159385000Y-109220000D03*
X159385000Y-101600000D03*
X156845000Y-109220000D03*
X156845000Y-101600000D03*
X154305000Y-109220000D03*
X154305000Y-101600000D03*
X151765000Y-109220000D03*
X151765000Y-101600000D03*
X149225000Y-109220000D03*
X149225000Y-101600000D03*
G04 #@! TD*
G04 #@! TO.C,U7*
X86360000Y-71755000D03*
X86360000Y-79375000D03*
X88900000Y-71755000D03*
X88900000Y-79375000D03*
X91440000Y-71755000D03*
X91440000Y-79375000D03*
X93980000Y-71755000D03*
X93980000Y-79375000D03*
X96520000Y-71755000D03*
X96520000Y-79375000D03*
X99060000Y-71755000D03*
X99060000Y-79375000D03*
X101600000Y-71755000D03*
X101600000Y-79375000D03*
G04 #@! TD*
G04 #@! TO.C,U8*
X143510000Y-109220000D03*
X143510000Y-101600000D03*
X140970000Y-109220000D03*
X140970000Y-101600000D03*
X138430000Y-109220000D03*
X138430000Y-101600000D03*
X135890000Y-109220000D03*
X135890000Y-101600000D03*
X133350000Y-109220000D03*
X133350000Y-101600000D03*
X130810000Y-109220000D03*
X130810000Y-101600000D03*
X128270000Y-109220000D03*
X128270000Y-101600000D03*
G04 #@! TD*
G04 #@! TO.C,U9*
X86360000Y-101600000D03*
X86360000Y-109220000D03*
X88900000Y-101600000D03*
X88900000Y-109220000D03*
X91440000Y-101600000D03*
X91440000Y-109220000D03*
X93980000Y-101600000D03*
X93980000Y-109220000D03*
X96520000Y-101600000D03*
X96520000Y-109220000D03*
X99060000Y-101600000D03*
X99060000Y-109220000D03*
X101600000Y-101600000D03*
X101600000Y-109220000D03*
G04 #@! TD*
G04 #@! TO.C,U10*
X164465000Y-93980000D03*
X164465000Y-86360000D03*
X161925000Y-93980000D03*
X161925000Y-86360000D03*
X159385000Y-93980000D03*
X159385000Y-86360000D03*
X156845000Y-93980000D03*
X156845000Y-86360000D03*
X154305000Y-93980000D03*
X154305000Y-86360000D03*
X151765000Y-93980000D03*
X151765000Y-86360000D03*
X149225000Y-93980000D03*
X149225000Y-86360000D03*
G04 #@! TD*
M02*
