M48
;DRILL file {KiCad (5.0.0)} date 09/20/18 19:37:17
;FORMAT={-:-/ absolute / inch / decimal}
FMAT,2
INCH,TZ
T1C0.0197
T2C0.0315
%
G90
G05
M72
T1
X3.4Y-3.4
X3.4Y-3.7
X3.5Y-3.4
X3.5Y-3.7
X3.6Y-3.4
X3.6Y-3.7
X3.7Y-3.4
X3.7Y-3.7
X3.8Y-3.4
X3.8Y-3.7
X3.9Y-3.4
X3.9Y-3.7
X4.Y-3.4
X4.Y-3.7
X3.4Y-4.
X3.4Y-4.3
X3.5Y-4.
X3.5Y-4.3
X3.6Y-4.
X3.6Y-4.3
X3.7Y-4.
X3.7Y-4.3
X3.8Y-4.
X3.8Y-4.3
X3.9Y-4.
X3.9Y-4.3
X4.Y-4.
X4.Y-4.3
X5.875Y-4.
X5.875Y-4.3
X5.975Y-4.
X5.975Y-4.3
X6.075Y-4.
X6.075Y-4.3
X6.175Y-4.
X6.175Y-4.3
X6.275Y-4.
X6.275Y-4.3
X6.375Y-4.
X6.375Y-4.3
X6.475Y-4.
X6.475Y-4.3
X4.225Y-2.825
X4.225Y-3.125
X4.325Y-2.825
X4.325Y-3.125
X4.425Y-2.825
X4.425Y-3.125
X4.525Y-2.825
X4.525Y-3.125
X4.625Y-2.825
X4.625Y-3.125
X4.725Y-2.825
X4.725Y-3.125
X4.825Y-2.825
X4.825Y-3.125
X5.025Y-2.825
X5.025Y-3.125
X5.125Y-2.825
X5.125Y-3.125
X5.225Y-2.825
X5.225Y-3.125
X5.325Y-2.825
X5.325Y-3.125
X5.425Y-2.825
X5.425Y-3.125
X5.525Y-2.825
X5.525Y-3.125
X5.625Y-2.825
X5.625Y-3.125
X5.875Y-3.4
X5.875Y-3.7
X5.975Y-3.4
X5.975Y-3.7
X6.075Y-3.4
X6.075Y-3.7
X6.175Y-3.4
X6.175Y-3.7
X6.275Y-3.4
X6.275Y-3.7
X6.375Y-3.4
X6.375Y-3.7
X6.475Y-3.4
X6.475Y-3.7
X3.4Y-2.825
X3.4Y-3.125
X3.5Y-2.825
X3.5Y-3.125
X3.6Y-2.825
X3.6Y-3.125
X3.7Y-2.825
X3.7Y-3.125
X3.8Y-2.825
X3.8Y-3.125
X3.9Y-2.825
X3.9Y-3.125
X4.Y-2.825
X4.Y-3.125
X5.875Y-2.825
X5.875Y-3.125
X5.975Y-2.825
X5.975Y-3.125
X6.075Y-2.825
X6.075Y-3.125
X6.175Y-2.825
X6.175Y-3.125
X6.275Y-2.825
X6.275Y-3.125
X6.375Y-2.825
X6.375Y-3.125
X6.475Y-2.825
X6.475Y-3.125
X4.225Y-4.
X4.225Y-4.3
X4.325Y-4.
X4.325Y-4.3
X4.425Y-4.
X4.425Y-4.3
X4.525Y-4.
X4.525Y-4.3
X4.625Y-4.
X4.625Y-4.3
X4.725Y-4.
X4.725Y-4.3
X4.825Y-4.
X4.825Y-4.3
X5.05Y-4.
X5.05Y-4.3
X5.15Y-4.
X5.15Y-4.3
X5.25Y-4.
X5.25Y-4.3
X5.35Y-4.
X5.35Y-4.3
X5.45Y-4.
X5.45Y-4.3
X5.55Y-4.
X5.55Y-4.3
X5.65Y-4.
X5.65Y-4.3
T2
X6.6Y-3.2
X6.6Y-3.3
X6.6Y-3.4
X6.6Y-3.5
X6.6Y-3.6
X6.6Y-3.7
X6.6Y-3.8
X6.6Y-3.9
X6.6Y-4.325
X3.275Y-2.8
X3.275Y-3.4
X3.275Y-3.5
X3.275Y-3.6
X3.275Y-3.7
T0
M30
